<svg width="916" height="680" viewBox="0 0 916 680" fill="none" xmlns="http://www.w3.org/2000/svg">
<g clip-path="url(#clip0_146_1004)">
<path d="M458 680C654.176 680 813.207 670.751 813.207 659.342C813.207 647.932 654.176 638.683 458 638.683C261.825 638.683 102.794 647.932 102.794 659.342C102.794 670.751 261.825 680 458 680Z" fill="#F5F5F5"/>
<path opacity="0.1" d="M251.533 515.115C251.753 513.47 252.598 511.973 253.893 510.931C255.188 509.888 256.835 509.381 258.495 509.512C274.177 509.275 288.851 520.316 302.463 532.16C305.486 534.769 308.765 537.47 312.154 534.733C313.203 533.869 313.968 532.712 314.353 531.411C314.939 529.285 314.939 527.041 314.353 524.915C313.848 523.159 313.009 521.517 311.879 520.078C305.962 512.322 298.762 508.599 292.918 500.588C289.645 495.998 286.933 491.035 284.839 485.806C283.007 481.207 279.343 473.779 280.809 467.556C282.439 460.11 288.027 460.749 291.416 461.771C302.133 464.964 312.136 472.575 321.223 482.046C330.914 492.12 339.689 504.256 348.428 516.319C351.725 520.9 355.206 525.608 359.42 527.269C363.633 528.93 368.964 526.247 370.742 519.64C372.519 513.034 370.43 505.442 369.99 498.872C369.402 491.032 369.784 483.15 371.126 475.403C371.722 471.308 373.109 467.366 375.212 463.796C379.938 456.898 386.936 459.325 391.516 464.545C395.012 468.911 397.715 473.852 399.504 479.144C404.643 493.768 407.726 509.029 408.664 524.495C409.36 534.076 410.826 544.058 414.783 551.486C421.176 563.494 433.103 562.545 442.354 556.249C458.458 545.299 470.879 520.553 474.195 492.886C475.275 483.871 475.55 474.126 478.848 466.57C481.724 460.037 489.107 455.621 492.716 462.665C494.17 466.187 494.576 470.051 493.889 473.797C493.242 477.507 492.33 481.167 491.159 484.747C489.327 490.952 487.495 502.577 492.441 506.209C493.179 506.655 494.005 506.935 494.863 507.03C495.72 507.124 496.588 507.031 497.406 506.756C513.601 503.398 528.66 488.215 538.553 467.027C542.137 459.053 544.875 450.729 546.723 442.189C547.914 436.97 548.409 431.367 549.728 426.184C550.573 422.105 552.285 418.253 554.748 414.887C561.05 407.369 575.596 410.909 576.42 427.023C576.915 436.349 574.423 445.474 573.507 454.599C572.939 460.293 576.475 460.256 579.113 460.074C591.754 458.796 602.929 446.094 612.84 432.882C624.62 417.169 637.664 396.766 653.749 396.163C657.413 396.036 663.513 396.51 665.712 402.149C666.731 405.604 666.731 409.279 665.712 412.734C662.451 426.202 652.888 433.155 645.56 439.816C624.9 459.12 606.727 480.907 591.461 504.676C589.134 508.326 586.734 514.348 588.951 517.925C589.375 518.606 589.995 519.144 590.73 519.469C591.465 519.795 592.282 519.892 593.073 519.75C600.639 519.166 607.729 513.18 614.636 508.216C621.542 503.252 629.383 498.909 636.62 502.65C638.851 503.984 640.794 505.744 642.338 507.83C643.882 509.917 644.996 512.287 645.615 514.804C646.908 519.216 647.115 523.873 646.219 528.382C643.563 540.773 632.076 546.34 625.756 552.453C617.053 560.817 609.085 569.908 601.94 579.627C595.345 588.624 589.116 598.479 582.521 607.312C558.705 638.938 525.729 643.628 496.417 647.297C464.522 651.275 432.553 649.122 400.841 644.942C377.776 641.877 355.041 635.343 332.526 627.587C324.795 624.795 317.119 621.747 309.534 618.134C301.382 614.265 289.382 611.874 286.25 596.636C285.59 593.351 286.36 590.686 288.54 589.464C295.3 585.631 304.936 590.759 311.293 594.135C320.068 598.807 328.386 605.468 337.399 609.064C338.848 609.773 340.426 610.182 342.038 610.267C343.651 610.352 345.263 610.11 346.779 609.556C348.265 608.935 349.489 607.819 350.241 606.399C351.2 604.548 351.435 602.409 350.901 600.395C350.529 599.308 349.901 598.325 349.069 597.53C332.845 580.966 313.461 567.8 292.057 558.804C285.187 555.866 278.171 553.457 271.557 549.296C266.211 546.003 261.598 541.655 258 536.521C254.922 531.612 249.976 522.944 251.533 515.115Z" fill="#407BFF"/>
<path opacity="0.1" d="M601.94 380.961C600.716 382.225 599.112 383.057 597.371 383.331C595.63 383.606 593.846 383.309 592.29 382.484C590.734 381.659 589.489 380.352 588.745 378.76C588 377.169 587.796 375.379 588.164 373.661C594.484 343.093 608.224 320.865 624.565 332.399C636.767 340.994 617.64 364.701 601.94 380.961Z" fill="#407BFF"/>
<path opacity="0.3" d="M557.605 395.233C562.603 392.485 566.84 388.546 569.938 383.77C573.036 378.993 574.898 373.526 575.357 367.858L587.742 217.572C588.384 209.847 587.398 202.073 584.845 194.75C582.293 187.427 578.231 180.717 572.921 175.051L534.76 134.336C532.661 132.084 531.054 129.423 530.041 126.52C529.029 123.617 528.633 120.536 528.88 117.473L530.712 95.464L431.949 87.3794L430.117 109.388C429.864 112.451 428.972 115.426 427.499 118.126C426.026 120.825 424.004 123.189 421.561 125.065L377.227 159.064C371.064 163.796 365.96 169.757 362.244 176.567C358.528 183.377 356.28 190.886 355.646 198.611L343.243 348.897C342.774 354.557 343.718 360.246 345.991 365.455C348.263 370.664 351.794 375.233 356.269 378.753C351.271 381.5 347.035 385.438 343.94 390.215C340.845 394.993 338.988 400.46 338.535 406.128L322.725 597.749C321.98 606.859 324.895 615.891 330.831 622.862C336.767 629.832 345.237 634.17 354.382 634.924L517.43 648.264C521.958 648.636 526.515 648.117 530.841 646.734C535.167 645.352 539.178 643.133 542.643 640.207C546.108 637.28 548.961 633.702 551.038 629.676C553.115 625.651 554.375 621.258 554.747 616.747L570.558 425.126C571.041 419.465 570.112 413.774 567.852 408.558C565.592 403.342 562.072 398.765 557.605 395.233Z" fill="#407BFF"/>
<path opacity="0.3" d="M431.977 87.4129L430.576 104.383L529.318 112.469L530.718 95.4997L431.977 87.4129Z" fill="#407BFF"/>
<path opacity="0.3" d="M572.005 178.974L533.844 138.223C533.844 138.223 509.241 139.281 528.348 169.339C544.635 194.76 573.013 190.8 572.005 178.974Z" fill="white"/>
<path opacity="0.2" d="M322.743 597.676C321.998 606.786 324.914 615.818 330.85 622.789C336.785 629.759 345.256 634.097 354.4 634.85L517.448 648.191C521.976 648.563 526.533 648.043 530.859 646.661C535.186 645.278 539.196 643.06 542.662 640.134C546.127 637.207 548.98 633.629 551.057 629.603C553.134 625.578 554.394 621.184 554.766 616.674L322.743 597.676Z" fill="#407BFF"/>
<path opacity="0.3" d="M564.879 182.497C569.14 187.049 572.401 192.437 574.451 198.317C576.502 204.197 577.297 210.438 576.787 216.642L564.403 366.946C564.081 370.809 562.805 374.534 560.689 377.788C558.573 381.042 555.683 383.724 552.275 385.597L537.857 393.554L550.773 403.755C553.829 406.155 556.241 409.27 557.794 412.824C559.348 416.377 559.994 420.259 559.676 424.122L543.866 615.743C543.357 621.953 540.395 627.708 535.632 631.745C530.868 635.782 524.691 637.772 518.456 637.278L355.408 623.937C352.312 623.693 349.294 622.843 346.527 621.437C343.761 620.031 341.299 618.096 339.283 615.742C337.267 613.388 335.737 610.661 334.778 607.718C333.82 604.775 333.454 601.673 333.699 598.588L349.509 406.967C349.825 403.102 351.096 399.374 353.209 396.116C355.322 392.859 358.211 390.173 361.619 388.298L376.037 380.341L363.213 370.139C360.157 367.74 357.744 364.625 356.191 361.071C354.637 357.517 353.991 353.636 354.309 349.773L366.712 199.487C367.226 193.283 369.035 187.254 372.022 181.786C375.01 176.318 379.11 171.531 384.061 167.733C398.717 158.297 437.189 181.785 482.238 185.471C527.286 189.158 555.463 177.77 564.879 182.497Z" fill="#407BFF"/>
<path opacity="0.2" d="M482.145 185.489C437.115 181.839 398.606 158.297 383.95 167.733C409.598 181.785 438.91 190.49 481.431 193.976C523.952 197.461 564.878 182.496 564.878 182.496C555.462 177.77 527.176 189.194 482.145 185.489Z" fill="#407BFF"/>
<path opacity="0.2" d="M343.262 348.897C342.793 354.557 343.737 360.246 346.009 365.455C348.282 370.664 351.813 375.233 356.287 378.753L557.606 395.178C562.604 392.43 566.84 388.492 569.938 383.715C573.036 378.938 574.898 373.472 575.358 367.803L343.262 348.897Z" fill="#407BFF"/>
<path d="M532.783 68.5846L434.317 60.4954C430.193 60.1566 426.576 63.2126 426.238 67.3211L424.274 91.1846C423.936 95.2932 427.005 98.8985 431.13 99.2373L529.595 107.326C533.719 107.665 537.337 104.609 537.675 100.501L539.638 76.6373C539.976 72.5288 536.907 68.9235 532.783 68.5846Z" fill="#407BFF"/>
<path opacity="0.2" d="M436.126 95.5551C436.006 95.5459 435.888 95.5131 435.781 95.4585C435.673 95.4039 435.577 95.3286 435.499 95.237C435.421 95.1455 435.361 95.0393 435.324 94.9248C435.287 94.8103 435.273 94.6896 435.283 94.5697L437.592 65.6987C437.611 65.4567 437.726 65.2323 437.912 65.0749C438.097 64.9174 438.338 64.8399 438.581 64.8592C438.824 64.8786 439.049 64.9933 439.207 65.1781C439.365 65.3629 439.443 65.6027 439.424 65.8447L437.042 94.6974C437.028 94.9298 436.925 95.1481 436.755 95.3075C436.585 95.467 436.36 95.5556 436.126 95.5551Z" fill="white"/>
<path opacity="0.2" d="M453.987 97.0151C453.867 97.0059 453.75 96.973 453.642 96.9185C453.534 96.8639 453.439 96.7886 453.36 96.697C453.282 96.6054 453.223 96.4993 453.186 96.3848C453.149 96.2702 453.135 96.1495 453.145 96.0296L455.526 67.1769C455.55 66.9365 455.666 66.7144 455.85 66.5578C456.035 66.4011 456.274 66.3221 456.516 66.3374C456.635 66.3466 456.752 66.3795 456.859 66.4343C456.965 66.4891 457.06 66.5647 457.137 66.6566C457.214 66.7485 457.271 66.8548 457.306 66.9693C457.341 67.0837 457.353 67.204 457.34 67.3229L454.903 96.1756C454.881 96.4032 454.775 96.6146 454.606 96.7694C454.437 96.9243 454.217 97.0117 453.987 97.0151Z" fill="white"/>
<path opacity="0.2" d="M471.831 98.5481C471.711 98.5389 471.593 98.5061 471.486 98.4515C471.378 98.3969 471.282 98.3216 471.204 98.23C471.126 98.1384 471.066 98.0323 471.029 97.9178C470.992 97.8032 470.978 97.6826 470.989 97.5626L473.37 68.71C473.398 68.4713 473.515 68.2519 473.699 68.0961C473.882 67.9403 474.118 67.8597 474.359 67.8705C474.48 67.8797 474.597 67.9125 474.705 67.9671C474.813 68.0217 474.908 68.097 474.987 68.1886C475.065 68.2802 475.124 68.3863 475.161 68.5008C475.198 68.6154 475.212 68.736 475.202 68.856L472.821 97.7086C472.811 97.8286 472.778 97.9456 472.724 98.0528C472.669 98.16 472.593 98.2554 472.501 98.3334C472.409 98.4114 472.303 98.4706 472.188 98.5074C472.073 98.5443 471.952 98.5581 471.831 98.5481Z" fill="white"/>
<path opacity="0.2" d="M489.694 99.9351C489.573 99.9259 489.456 99.8931 489.348 99.8385C489.24 99.7839 489.145 99.7086 489.066 99.6171C488.988 99.5255 488.929 99.4193 488.892 99.3048C488.855 99.1903 488.841 99.0696 488.851 98.9497L491.232 70.097C491.256 69.8565 491.372 69.6345 491.557 69.4778C491.741 69.3212 491.98 69.2422 492.222 69.2575C492.341 69.2666 492.458 69.2995 492.565 69.3544C492.672 69.4092 492.766 69.4848 492.843 69.5767C492.92 69.6685 492.977 69.7749 493.012 69.8893C493.047 70.0038 493.059 70.124 493.046 70.243L490.664 99.0957C490.658 99.2148 490.627 99.3314 490.574 99.4385C490.521 99.5456 490.447 99.6411 490.357 99.7194C490.266 99.7976 490.161 99.857 490.047 99.8941C489.933 99.9311 489.813 99.9451 489.694 99.9351Z" fill="white"/>
<path opacity="0.2" d="M507.464 101.395C507.344 101.386 507.226 101.353 507.119 101.298C507.011 101.244 506.915 101.169 506.837 101.077C506.759 100.985 506.699 100.879 506.662 100.765C506.625 100.65 506.611 100.529 506.621 100.41L509.003 71.5569C509.035 71.3199 509.153 71.103 509.336 70.948C509.518 70.793 509.752 70.7108 509.992 70.7174C510.113 70.7266 510.23 70.7595 510.338 70.8141C510.445 70.8686 510.541 70.9439 510.619 71.0355C510.698 71.1271 510.757 71.2332 510.794 71.3477C510.831 71.4623 510.845 71.583 510.835 71.7029L508.453 100.556C508.447 100.676 508.415 100.795 508.361 100.903C508.307 101.012 508.232 101.108 508.139 101.186C508.047 101.265 507.939 101.324 507.823 101.36C507.707 101.396 507.585 101.408 507.464 101.395Z" fill="white"/>
<path opacity="0.2" d="M525.4 102.855C525.279 102.846 525.162 102.813 525.054 102.758C524.946 102.704 524.851 102.629 524.772 102.537C524.694 102.445 524.635 102.339 524.598 102.225C524.561 102.11 524.547 101.989 524.557 101.87L526.865 72.9986C526.888 72.7581 527.005 72.5361 527.189 72.3794C527.374 72.2228 527.612 72.1438 527.854 72.1591C528.094 72.1823 528.316 72.2987 528.47 72.4832C528.624 72.6677 528.699 72.9053 528.679 73.1446L526.316 102.016C526.293 102.243 526.187 102.454 526.018 102.609C525.849 102.764 525.629 102.852 525.4 102.855Z" fill="white"/>
<path opacity="0.2" d="M373.728 298.692C370.943 283.344 348.501 284.439 347.219 299.969L343.188 348.897C342.719 354.557 343.663 360.246 345.936 365.455C348.209 370.664 351.739 375.233 356.214 378.753C351.216 381.5 346.98 385.438 343.886 390.215C340.791 394.992 338.933 400.46 338.48 406.128L322.67 597.749C321.925 606.859 324.841 615.891 330.776 622.862C336.712 629.832 345.183 634.17 354.327 634.923L396.463 638.373C401.105 638.751 405.773 638.062 410.105 636.358C414.437 634.654 418.318 631.981 421.448 628.545C424.579 625.109 426.874 621.003 428.158 616.543C429.442 612.083 429.68 607.388 428.853 602.822L373.728 298.692Z" fill="#407BFF"/>
<path opacity="0.3" d="M535.859 549.606C535.569 553.124 534.237 556.477 532.034 559.241C529.831 562.005 526.854 564.056 523.48 565.135C520.107 566.214 516.488 566.273 513.081 565.303C509.674 564.334 506.632 562.379 504.34 559.688C502.048 556.996 500.608 553.688 500.203 550.182C499.798 546.675 500.446 543.128 502.065 539.988C503.683 536.848 506.2 534.257 509.297 532.542C512.394 530.827 515.932 530.065 519.463 530.353C524.199 530.744 528.586 532.99 531.66 536.6C534.734 540.21 536.245 544.888 535.859 549.606Z" fill="#407BFF"/>
<path opacity="0.3" d="M478.903 480.495C478.699 482.985 477.758 485.358 476.199 487.315C474.641 489.272 472.535 490.725 470.148 491.49C467.76 492.254 465.199 492.296 462.788 491.611C460.376 490.925 458.223 489.543 456.601 487.638C454.978 485.733 453.959 483.392 453.673 480.91C453.386 478.428 453.845 475.918 454.991 473.696C456.137 471.474 457.919 469.641 460.111 468.427C462.303 467.214 464.807 466.676 467.306 466.881C470.654 467.16 473.754 468.749 475.928 471.301C478.102 473.853 479.171 477.159 478.903 480.495Z" fill="#407BFF"/>
<path opacity="0.3" d="M425.904 326.669C423.4 326.785 420.918 326.159 418.772 324.871C416.625 323.582 414.91 321.689 413.843 319.43C412.776 317.171 412.405 314.648 412.777 312.179C413.149 309.71 414.247 307.407 415.933 305.559C417.619 303.712 419.816 302.404 422.248 301.8C424.68 301.196 427.237 301.324 429.595 302.167C431.954 303.01 434.009 304.531 435.501 306.537C436.993 308.543 437.854 310.944 437.977 313.438C438.058 315.097 437.81 316.755 437.247 318.318C436.684 319.882 435.817 321.319 434.695 322.548C433.574 323.777 432.22 324.774 430.711 325.481C429.203 326.188 427.569 326.591 425.904 326.669Z" fill="#407BFF"/>
<path opacity="0.3" d="M460.473 251.17C458.698 251.258 456.937 250.82 455.413 249.911C453.888 249.001 452.669 247.662 451.909 246.062C451.15 244.461 450.884 242.673 451.146 240.922C451.407 239.171 452.185 237.537 453.379 236.227C454.574 234.916 456.132 233.989 457.856 233.561C459.581 233.134 461.394 233.225 463.066 233.825C464.737 234.425 466.193 235.505 467.248 236.929C468.303 238.354 468.91 240.058 468.992 241.826C469.101 244.189 468.267 246.499 466.67 248.251C465.073 250.002 462.845 251.052 460.473 251.17Z" fill="#407BFF"/>
<path opacity="0.3" d="M516.092 425.91C516.006 426.938 515.615 427.917 514.97 428.724C514.325 429.531 513.455 430.129 512.469 430.444C511.482 430.758 510.425 430.774 509.429 430.49C508.433 430.206 507.545 429.635 506.875 428.848C506.205 428.062 505.785 427.095 505.666 426.07C505.548 425.045 505.737 424.009 506.21 423.091C506.682 422.173 507.417 421.415 508.322 420.914C509.227 420.412 510.26 420.188 511.293 420.271C512.679 420.387 513.962 421.046 514.862 422.103C515.762 423.16 516.204 424.529 516.092 425.91Z" fill="#407BFF"/>
<path opacity="0.7" d="M421.195 568.695H420.315C418.912 568.599 417.542 568.228 416.285 567.601C415.027 566.975 413.906 566.106 412.987 565.046C412.083 563.989 411.399 562.764 410.975 561.442C410.55 560.12 410.393 558.727 410.514 557.344C410.685 555.3 411.449 553.349 412.715 551.73C413.98 550.11 415.691 548.893 417.639 548.227C419.587 547.56 421.687 547.473 423.684 547.976C425.681 548.479 427.488 549.55 428.884 551.058C430.28 552.567 431.205 554.448 431.546 556.471C431.887 558.495 431.629 560.573 430.804 562.453C429.979 564.333 428.622 565.933 426.899 567.058C425.177 568.182 423.163 568.783 421.103 568.787L421.195 568.695ZM421.195 548.913C419.111 548.923 417.093 549.641 415.474 550.947C413.855 552.254 412.732 554.071 412.289 556.099C411.847 558.128 412.111 560.245 413.04 562.104C413.968 563.962 415.505 565.449 417.396 566.32C419.287 567.191 421.42 567.394 423.443 566.895C425.465 566.396 427.256 565.225 428.521 563.575C429.785 561.925 430.447 559.895 430.397 557.82C430.348 555.745 429.59 553.749 428.248 552.161C427.466 551.238 426.508 550.479 425.429 549.928C424.351 549.376 423.173 549.044 421.964 548.949L421.195 548.913Z" fill="white"/>
<path opacity="0.7" d="M534.504 355.138H533.863C531.828 354.971 529.943 354.006 528.621 352.457C527.299 350.907 526.647 348.898 526.81 346.871C526.978 344.841 527.948 342.96 529.508 341.643C531.068 340.325 533.089 339.678 535.127 339.845C537.161 340.012 539.046 340.977 540.369 342.526C541.691 344.076 542.342 346.085 542.18 348.112C542.006 350.142 541.039 352.023 539.487 353.35C538.092 354.516 536.325 355.15 534.504 355.138ZM528.184 346.944C528.092 348.185 528.371 349.425 528.986 350.509C529.6 351.592 530.521 352.471 531.635 353.034C532.749 353.598 534.005 353.821 535.245 353.676C536.486 353.531 537.655 353.023 538.608 352.218C539.243 351.682 539.766 351.026 540.147 350.288C540.528 349.549 540.759 348.744 540.827 347.917C540.895 347.089 540.799 346.257 540.544 345.467C540.289 344.677 539.88 343.945 539.34 343.312C538.781 342.698 538.104 342.2 537.349 341.849C536.594 341.498 535.776 341.301 534.944 341.268C534.114 341.198 533.28 341.292 532.487 341.545C531.694 341.797 530.96 342.202 530.325 342.738C529.69 343.274 529.167 343.929 528.787 344.667C528.407 345.404 528.177 346.209 528.11 347.035L528.184 346.944Z" fill="white"/>
<path opacity="0.7" d="M416.139 193.336H415.864C414.918 193.243 414.045 192.788 413.43 192.066C412.814 191.344 412.505 190.413 412.566 189.468C412.613 188.758 412.866 188.077 413.296 187.509C413.726 186.94 414.313 186.51 414.985 186.27C415.658 186.029 416.386 185.99 417.08 186.157C417.774 186.323 418.405 186.688 418.894 187.207C419.383 187.725 419.709 188.375 419.832 189.076C419.955 189.776 419.87 190.498 419.587 191.151C419.304 191.804 418.835 192.36 418.239 192.752C417.643 193.143 416.944 193.353 416.23 193.354L416.139 193.336ZM413.922 189.577C413.887 190.012 413.983 190.447 414.196 190.828C414.41 191.208 414.731 191.518 415.121 191.717C415.511 191.915 415.951 191.995 416.386 191.945C416.82 191.895 417.231 191.718 417.565 191.436C417.899 191.154 418.142 190.78 418.262 190.361C418.383 189.942 418.377 189.496 418.244 189.081C418.111 188.665 417.857 188.298 417.515 188.026C417.173 187.754 416.758 187.589 416.322 187.552C416.03 187.524 415.736 187.555 415.456 187.642C415.177 187.73 414.917 187.872 414.694 188.061C414.47 188.25 414.287 188.481 414.154 188.741C414.022 189.002 413.943 189.286 413.922 189.577Z" fill="white"/>
<path opacity="0.7" d="M497.15 287.852H496.38C495.174 287.757 493.999 287.426 492.922 286.877C491.845 286.328 490.888 285.571 490.106 284.652C489.325 283.732 488.733 282.667 488.367 281.519C488 280.37 487.866 279.161 487.971 277.96C488.128 276.198 488.795 274.519 489.891 273.128C490.988 271.737 492.467 270.693 494.149 270.124C495.83 269.555 497.641 269.485 499.362 269.922C501.082 270.36 502.638 271.286 503.84 272.589C505.042 273.891 505.837 275.513 506.13 277.258C506.423 279.003 506.201 280.795 505.49 282.416C504.779 284.037 503.611 285.417 502.127 286.389C500.643 287.36 498.907 287.881 497.131 287.888L497.15 287.852ZM497.15 270.88C495.306 270.871 493.52 271.518 492.112 272.704C490.53 274.038 489.542 275.94 489.364 277.997C489.26 279.273 489.474 280.555 489.986 281.729C490.498 282.903 491.293 283.933 492.3 284.729C493.307 285.524 494.495 286.06 495.759 286.29C497.023 286.519 498.325 286.435 499.548 286.044C500.772 285.653 501.88 284.968 502.775 284.05C503.67 283.131 504.324 282.007 504.679 280.776C505.034 279.546 505.08 278.248 504.811 276.996C504.543 275.744 503.969 274.577 503.14 273.599C502.477 272.816 501.664 272.172 500.749 271.705C499.834 271.238 498.834 270.958 497.809 270.88H497.15Z" fill="white"/>
<path opacity="0.3" d="M572.298 367.639L584.133 224.325C584.208 223.409 584.101 222.488 583.819 221.613C583.536 220.739 583.084 219.928 582.486 219.228C581.889 218.528 581.159 217.952 580.338 217.534C579.518 217.115 578.622 216.861 577.703 216.788C576.784 216.71 575.86 216.814 574.982 217.093C574.104 217.373 573.291 217.822 572.588 218.416C571.885 219.009 571.306 219.735 570.886 220.552C570.465 221.368 570.21 222.26 570.137 223.175L558.302 366.489C557.917 371.253 556.351 375.848 553.745 379.861C551.14 383.874 547.575 387.181 543.371 389.484L536.171 393.481L542.638 398.572C546.407 401.53 549.383 405.371 551.301 409.753C553.219 414.134 554.019 418.92 553.63 423.684L537.82 615.305C536.867 626.802 529.613 632.405 519.408 636.876C518.761 637.165 518.228 637.66 517.893 638.283C517.559 638.906 517.441 639.622 517.558 640.319C517.675 641.015 518.021 641.654 518.542 642.134C519.062 642.614 519.728 642.909 520.434 642.972C528.125 643.597 535.751 641.156 541.635 636.184C547.52 631.212 551.182 624.115 551.817 616.455L567.627 424.833C568.019 420.069 567.22 415.282 565.302 410.9C563.384 406.518 560.406 402.678 556.635 399.722L550.168 394.612L557.367 390.634C561.568 388.326 565.13 385.019 567.736 381.007C570.341 376.994 571.908 372.402 572.298 367.639Z" fill="white"/>
<path opacity="0.3" d="M762.46 590.358C760.481 581.415 735.786 586.708 730.674 587.529C720.743 589.324 711.02 592.119 701.656 595.869C691.341 599.902 679.36 605.833 668.68 599.702C662.506 596.161 683.94 589.172 685.882 588.46C694.992 585.272 703.786 581.252 712.153 576.452C715.542 574.444 722.101 569.644 719.279 564.772C716.934 560.739 708.526 561.122 703.414 561.742C687.926 563.632 672.733 567.426 658.182 573.039C644.03 578.639 630.174 584.956 616.669 591.964C611.437 594.904 605.746 596.946 599.833 598.004C593.384 598.917 585.488 597.548 582.942 593.989C580.395 590.431 583.675 586.27 584.426 582.693C585.488 578.416 585.042 573.906 583.162 569.918C581.915 567.246 579.824 565.053 577.208 563.677C570.228 560.027 559.676 561.377 552.659 564.261C548.112 566.179 543.958 568.913 540.403 572.327C533.242 578.966 528.218 587.572 525.967 597.055C525.4 600.026 524.25 602.855 522.584 605.382C520.918 607.909 518.768 610.084 516.257 611.783C506.438 618.371 488.447 617.988 474.689 614.685C450.672 609.009 432.352 595.741 427.936 580.758C425.793 573.623 424.749 566.159 415.112 563.367C408.884 561.542 395.84 562.819 398.624 570.666C399.635 572.817 400.956 574.809 402.545 576.579C405.091 579.919 407.803 586.215 400.237 588.241C397.787 588.759 395.269 588.882 392.78 588.606C368.451 586.982 346.064 578.897 331.555 567.509C326.824 563.807 322.813 559.273 319.72 554.132C317.998 551.304 317.375 548.256 315.488 545.464C313.685 542.776 311.14 540.666 308.16 539.387C298.817 535.39 276.87 537.47 275.331 546.23C274.506 550.975 277.474 556.121 278.995 560.629C279.268 561.198 279.333 561.843 279.178 562.454C278.738 563.604 276.998 563.932 275.514 564.024C255.893 565.319 236.859 557.727 220.389 549.807C202.949 541.412 183.749 530.481 159.512 530.353C154.5 530.125 149.484 530.698 144.654 532.05C143.431 532.375 142.294 532.961 141.32 533.766C140.728 534.38 140.334 535.157 140.191 535.996C140.047 536.836 140.16 537.699 140.514 538.474C141.301 540.081 142.471 541.472 143.921 542.525C151.249 548.475 161.509 550.884 170.87 553.95C198.645 562.918 225.501 574.498 251.075 588.533C253.658 589.975 258.238 593.314 254.611 595.833C250.984 598.351 243.619 596.727 239.277 596.015C231.399 594.738 223.833 592.694 216.157 590.778C206.008 588.223 194.173 585.905 183.181 588.022C177.374 589.135 172.189 591.508 169.46 594.719C168.519 595.659 167.899 596.87 167.689 598.181C167.478 599.491 167.688 600.834 168.287 602.019C172.061 608.717 189.263 611.6 198.662 614.794C210.695 618.885 222.461 623.719 233.891 629.266C243.656 634.084 252.724 639.358 262.617 644.085C297.956 660.966 347.31 663.137 391.443 664.78C439.35 666.605 487.476 665.054 535.255 662.407C570.063 660.473 604.23 656.659 638.342 652.169C648.143 650.892 657.889 649.322 667.654 647.99C677.566 646.858 687.369 644.923 696.966 642.205C700.414 641.329 703.631 639.723 706.4 637.497C709.02 635.069 709.845 631.894 705.155 630.981C695.335 629.029 685.222 631.255 675.623 632.989C664.851 634.96 654.176 637.229 643.599 639.796C638.778 641.077 633.884 642.071 628.943 642.771C623.978 643.465 618.922 643.143 614.086 641.822C612.51 641.329 610.788 640.453 610.697 639.066C610.605 637.679 611.924 636.803 613.28 636.274C633.047 628.463 654.042 623.499 675.183 618.937C689.528 615.834 704.129 613.936 718.583 611.509C731.755 609.301 745.642 608.79 757.055 600.468C759.327 599.007 761.092 596.886 762.112 594.391C762.607 593.106 762.728 591.708 762.46 590.358Z" fill="#407BFF"/>
<path opacity="0.3" d="M195.566 516.465C190.198 501.263 171.072 474.345 167.042 490.24C164.88 499.164 195.566 516.465 195.566 516.465Z" fill="#407BFF"/>
<path opacity="0.3" d="M675.879 546.393C686.101 537.105 698.852 531.576 700.501 539.751C702.04 547.488 675.879 546.393 675.879 546.393Z" fill="#407BFF"/>
<path opacity="0.3" d="M256.48 472.519C249.482 468.869 244.022 463.012 248.126 460.566C252.23 458.121 256.48 472.519 256.48 472.519Z" fill="#407BFF"/>
</g>
<defs>
<clipPath id="clip0_146_1004">
<rect width="916" height="680" fill="white"/>
</clipPath>
</defs>
</svg>
