<svg width="320" height="1328" viewBox="0 0 320 1328" fill="none" xmlns="http://www.w3.org/2000/svg">
<g clip-path="url(#clip0_149_706)">
<path opacity="0.7" d="M302.481 49.4859H300.409C297.103 49.2601 293.875 48.3854 290.911 46.912C287.947 45.4387 285.306 43.396 283.14 40.9021C281.01 38.4176 279.398 35.537 278.398 32.4277C277.397 29.3184 277.028 26.0424 277.312 22.7901C277.715 17.9814 279.516 13.3931 282.498 9.5855C285.479 5.77785 289.511 2.91556 294.102 1.34794C298.692 -0.219686 303.643 -0.424742 308.348 0.757744C313.054 1.94023 317.312 4.45911 320.601 8.00694C323.891 11.5548 326.071 15.978 326.874 20.7367C327.678 25.4955 327.07 30.3839 325.126 34.8051C323.182 39.2263 319.984 42.9891 315.925 45.6342C311.866 48.2793 307.119 49.6923 302.266 49.7006L302.481 49.4859ZM302.481 2.96134C297.571 2.98557 292.816 4.6733 289.001 7.74589C285.186 10.8185 282.538 15.0923 281.495 19.8623C280.452 24.6322 281.076 29.6131 283.264 33.9831C285.452 38.353 289.073 41.8509 293.53 43.8994C297.987 45.9479 303.013 46.4245 307.779 45.2508C312.545 44.0771 316.766 41.3232 319.746 37.4434C322.725 33.5636 324.285 28.7899 324.168 23.9099C324.052 19.03 322.265 14.3354 319.103 10.601C317.26 8.43031 315.002 6.64486 312.46 5.34818C309.918 4.0515 307.143 3.26935 304.295 3.04713L302.481 2.96134Z" fill="#C6D7FF"/>
<path d="M289.201 408.921C289.006 411.272 288.115 413.513 286.639 415.36C285.163 417.208 283.169 418.578 280.91 419.3C278.65 420.021 276.226 420.06 273.945 419.412C271.663 418.764 269.625 417.458 268.09 415.659C266.555 413.86 265.591 411.649 265.319 409.306C265.048 406.963 265.482 404.592 266.566 402.493C267.65 400.395 269.336 398.663 271.41 397.517C273.484 396.371 275.854 395.862 278.219 396.054C281.391 396.315 284.329 397.817 286.388 400.229C288.447 402.642 289.459 405.768 289.201 408.921Z" fill="#C6D7FF"/>
<path d="M36.7944 74.9333C36.5997 77.2843 35.7081 79.525 34.2323 81.3723C32.7564 83.2196 30.7628 84.5904 28.5032 85.3116C26.2436 86.0327 23.8197 86.0718 21.5378 85.4237C19.2559 84.7757 17.2186 83.4698 15.6833 81.671C14.1481 79.8722 13.1839 77.6614 12.9126 75.3179C12.6414 72.9745 13.0752 70.6038 14.1594 68.5054C15.2435 66.4071 16.9292 64.6753 19.0034 63.5292C21.0776 62.383 23.4471 61.8738 25.8124 62.066C28.9845 62.3271 31.9226 63.8288 33.9817 66.2413C36.0408 68.6538 37.0524 71.78 36.7944 74.9333Z" fill="#ECF2FF"/>
<path d="M228.166 199.455C228.036 201.022 227.442 202.516 226.458 203.748C225.474 204.979 224.145 205.893 222.639 206.374C221.132 206.855 219.516 206.881 217.995 206.449C216.474 206.017 215.115 205.146 214.092 203.947C213.068 202.748 212.426 201.274 212.245 199.711C212.064 198.149 212.353 196.569 213.076 195.17C213.799 193.771 214.923 192.616 216.305 191.852C217.688 191.088 219.268 190.749 220.845 190.877C222.959 191.051 224.918 192.052 226.291 193.66C227.664 195.269 228.338 197.353 228.166 199.455Z" fill="#ECF2FF"/>
<path opacity="0.7" d="M52.9593 642.392H51.633C49.5171 642.247 47.451 641.688 45.554 640.745C43.6571 639.802 41.9668 638.494 40.581 636.898C39.2177 635.308 38.186 633.465 37.5456 631.475C36.9053 629.485 36.6692 627.388 36.851 625.307C37.1085 622.229 38.2617 619.293 40.1698 616.856C42.078 614.419 44.6585 612.587 47.5964 611.584C50.5343 610.58 53.7024 610.449 56.7141 611.206C59.7257 611.963 62.4506 613.575 64.5561 615.845C66.6616 618.116 68.0566 620.947 68.5708 623.992C69.085 627.038 68.6962 630.167 67.4518 632.996C66.2074 635.826 64.1613 638.234 61.5632 639.927C58.9651 641.62 55.9275 642.524 52.8211 642.529L52.9593 642.392ZM52.9593 612.616C49.8169 612.632 46.7737 613.712 44.3319 615.678C41.8901 617.645 40.1956 620.38 39.5281 623.433C38.8606 626.486 39.2599 629.673 40.6602 632.47C42.0604 635.267 44.3779 637.506 47.2303 638.817C50.0826 640.128 53.2993 640.433 56.3496 639.681C59.3998 638.93 62.1014 637.168 64.0084 634.685C65.9153 632.202 66.9138 629.146 66.839 626.023C66.7642 622.9 65.6205 619.896 63.5968 617.506C62.4176 616.116 60.9727 614.974 59.3458 614.144C57.719 613.314 55.9426 612.813 54.1197 612.671L52.9593 612.616Z" fill="#C6D7FF"/>
<path d="M310.591 913.084C310.397 915.435 309.505 917.676 308.029 919.523C306.553 921.37 304.56 922.741 302.3 923.462C300.041 924.184 297.617 924.223 295.335 923.575C293.053 922.927 291.015 921.621 289.48 919.822C287.945 918.023 286.981 915.812 286.71 913.469C286.438 911.125 286.872 908.755 287.956 906.656C289.04 904.558 290.726 902.826 292.8 901.68C294.875 900.534 297.244 900.025 299.609 900.217C302.781 900.478 305.72 901.98 307.779 904.392C309.838 906.805 310.849 909.931 310.591 913.084Z" fill="#C6D7FF"/>
<path opacity="0.7" d="M19.1992 1095.24H17.6243C15.1117 1095.07 12.6582 1094.4 10.4055 1093.28C8.15284 1092.16 6.14568 1090.61 4.50002 1088.71C2.88114 1086.83 1.65594 1084.64 0.895529 1082.27C0.135122 1079.91 -0.145291 1077.42 0.0706056 1074.95C0.37642 1071.29 1.74586 1067.81 4.01178 1064.91C6.27771 1062.02 9.34208 1059.84 12.8308 1058.65C16.3195 1057.46 20.0817 1057.31 23.658 1058.2C27.2344 1059.1 30.4702 1061.02 32.9705 1063.71C35.4707 1066.41 37.1273 1069.77 37.7379 1073.39C38.3485 1077.01 37.8868 1080.72 36.4091 1084.08C34.9314 1087.44 32.5016 1090.3 29.4164 1092.31C26.3312 1094.32 22.724 1095.39 19.0352 1095.4L19.1992 1095.24ZM19.1992 1059.88C15.4676 1059.9 11.8538 1061.18 8.95421 1063.52C6.05459 1065.85 4.04242 1069.1 3.24974 1072.72C2.45706 1076.35 2.93123 1080.13 4.59404 1083.46C6.25685 1086.78 9.00888 1089.44 12.396 1090.99C15.7832 1092.55 19.6031 1092.91 23.2252 1092.02C26.8474 1091.13 30.0555 1089.03 32.32 1086.09C34.5845 1083.14 35.7702 1079.51 35.6814 1075.8C35.5925 1072.09 34.2345 1068.52 31.8313 1065.69C30.431 1064.04 28.7151 1062.68 26.7833 1061.69C24.8514 1060.71 22.742 1060.11 20.5773 1059.94L19.1992 1059.88Z" fill="#9EBBFF"/>
<path d="M163.711 1297.45C163.5 1300 162.534 1302.43 160.935 1304.43C159.337 1306.43 157.177 1307.91 154.729 1308.69C152.281 1309.48 149.655 1309.52 147.183 1308.82C144.711 1308.11 142.504 1306.7 140.841 1304.75C139.178 1302.8 138.133 1300.41 137.839 1297.87C137.545 1295.33 138.015 1292.76 139.19 1290.49C140.364 1288.21 142.19 1286.34 144.437 1285.1C146.685 1283.85 149.251 1283.3 151.814 1283.51C155.25 1283.79 158.433 1285.42 160.664 1288.03C162.895 1290.65 163.991 1294.03 163.711 1297.45Z" fill="#C6D7FF"/>
<path opacity="0.7" d="M277.13 1262.66H275.804C273.688 1262.51 271.622 1261.95 269.725 1261.01C267.828 1260.07 266.138 1258.76 264.752 1257.16C263.389 1255.57 262.357 1253.73 261.717 1251.74C261.076 1249.75 260.84 1247.65 261.022 1245.57C261.279 1242.49 262.433 1239.56 264.341 1237.12C266.249 1234.68 268.829 1232.85 271.767 1231.85C274.705 1230.84 277.873 1230.71 280.885 1231.47C283.897 1232.23 286.622 1233.84 288.727 1236.11C290.832 1238.38 292.227 1241.21 292.742 1244.26C293.256 1247.3 292.867 1250.43 291.623 1253.26C290.378 1256.09 288.332 1258.5 285.734 1260.19C283.136 1261.88 280.098 1262.79 276.992 1262.79L277.13 1262.66ZM277.13 1232.88C273.988 1232.9 270.945 1233.98 268.503 1235.94C266.061 1237.91 264.367 1240.64 263.699 1243.7C263.032 1246.75 263.431 1249.94 264.831 1252.73C266.231 1255.53 268.549 1257.77 271.401 1259.08C274.254 1260.39 277.47 1260.7 280.52 1259.95C283.571 1259.19 286.272 1257.43 288.179 1254.95C290.086 1252.47 291.085 1249.41 291.01 1246.29C290.935 1243.16 289.791 1240.16 287.768 1237.77C286.588 1236.38 285.144 1235.24 283.517 1234.41C281.89 1233.58 280.114 1233.08 278.291 1232.93L277.13 1232.88Z" fill="#9EBBFF"/>
</g>
<defs>
<clipPath id="clip0_149_706">
<rect width="320" height="1328" fill="white"/>
</clipPath>
</defs>
</svg>
