<svg width="679" height="548" viewBox="0 0 679 548" fill="none" xmlns="http://www.w3.org/2000/svg">
<g clip-path="url(#clip0_149_510)">
<path d="M368 548C525.625 548 653.406 540.546 653.406 531.352C653.406 522.157 525.625 514.703 368 514.703C210.374 514.703 82.5938 522.157 82.5938 531.352C82.5938 540.546 210.374 548 368 548Z" fill="#F5F5F5"/>
<path opacity="0.1" d="M202.105 415.122C202.282 413.797 202.961 412.59 204.001 411.75C205.042 410.91 206.365 410.501 207.699 410.607C220.299 410.415 232.09 419.313 243.027 428.858C245.456 430.961 248.091 433.138 250.814 430.932C251.656 430.235 252.271 429.303 252.58 428.255C253.051 426.542 253.051 424.733 252.58 423.019C252.175 421.605 251.501 420.281 250.593 419.122C245.839 412.872 240.054 409.871 235.358 403.415C232.728 399.716 230.549 395.717 228.866 391.502C227.394 387.796 224.45 381.81 225.628 376.795C226.938 370.795 231.428 371.309 234.151 372.133C242.762 374.707 250.799 380.84 258.1 388.472C265.887 396.591 272.938 406.371 279.96 416.092C282.609 419.784 285.406 423.578 288.792 424.917C292.177 426.255 296.461 424.093 297.889 418.769C299.316 413.445 297.638 407.327 297.285 402.032C296.812 395.714 297.119 389.362 298.198 383.119C298.676 379.818 299.791 376.642 301.48 373.765C305.278 368.206 310.901 370.162 314.581 374.368C317.39 377.887 319.562 381.869 320.999 386.134C325.128 397.919 327.605 410.218 328.359 422.681C328.918 430.402 330.096 438.447 333.275 444.433C338.413 454.11 347.995 453.345 355.429 448.271C368.368 439.447 378.348 419.504 381.012 397.208C381.881 389.943 382.102 382.09 384.751 376.001C387.062 370.736 392.994 367.177 395.894 372.854C397.062 375.692 397.389 378.806 396.836 381.825C396.317 384.815 395.584 387.764 394.643 390.649C393.171 395.65 391.699 405.018 395.673 407.945C396.266 408.304 396.93 408.53 397.619 408.606C398.308 408.683 399.006 408.607 399.663 408.386C412.675 405.68 424.775 393.443 432.724 376.369C435.604 369.943 437.804 363.235 439.289 356.352C440.246 352.146 440.643 347.631 441.703 343.454C442.382 340.167 443.757 337.063 445.736 334.35C450.8 328.291 462.488 331.144 463.15 344.131C463.547 351.646 461.545 359 460.809 366.353C460.353 370.942 463.194 370.912 465.314 370.765C475.471 369.736 484.45 359.5 492.413 348.852C501.878 336.189 512.359 319.746 525.283 319.261C528.227 319.158 533.129 319.54 534.895 324.085C535.714 326.869 535.714 329.83 534.895 332.615C532.275 343.469 524.591 349.072 518.703 354.44C502.103 369.997 487.502 387.555 475.235 406.709C473.366 409.651 471.437 414.504 473.218 417.387C473.559 417.935 474.057 418.369 474.648 418.631C475.239 418.893 475.894 418.972 476.53 418.857C482.61 418.387 488.306 413.563 493.856 409.562C499.405 405.562 505.705 402.062 511.52 405.077C513.312 406.151 514.874 407.57 516.115 409.252C517.355 410.933 518.25 412.843 518.747 414.872C519.786 418.427 519.953 422.18 519.233 425.814C517.099 435.8 507.869 440.285 502.791 445.212C495.798 451.952 489.396 459.279 483.655 467.111C478.356 474.362 473.351 482.304 468.052 489.422C448.916 514.909 422.42 518.689 398.868 521.645C373.24 524.851 347.554 523.116 322.073 519.748C303.541 517.277 285.273 512.012 267.183 505.761C260.971 503.511 254.803 501.055 248.709 498.143C242.159 495.025 232.517 493.099 230 480.818C229.47 478.171 230.088 476.024 231.84 475.038C237.272 471.95 245.014 476.082 250.122 478.803C257.173 482.568 263.856 487.936 271.098 490.834C272.262 491.405 273.53 491.735 274.826 491.803C276.121 491.872 277.417 491.677 278.635 491.231C279.829 490.73 280.812 489.831 281.417 488.686C282.187 487.195 282.376 485.471 281.947 483.848C281.648 482.971 281.143 482.18 280.475 481.539C267.439 468.19 251.864 457.58 234.666 450.33C229.146 447.963 223.508 446.021 218.194 442.668C213.899 440.014 210.192 436.511 207.302 432.373C204.829 428.417 200.854 421.431 202.105 415.122Z" fill="#407BFF"/>
<path opacity="0.1" d="M483.655 307.01C482.671 308.028 481.383 308.698 479.984 308.92C478.585 309.141 477.152 308.902 475.901 308.237C474.651 307.572 473.651 306.519 473.052 305.236C472.454 303.954 472.29 302.511 472.586 301.127C477.664 276.493 488.704 258.579 501.834 267.874C511.638 274.801 496.27 293.906 483.655 307.01Z" fill="#407BFF"/>
<path opacity="0.3" d="M448.033 318.511C452.049 316.296 455.453 313.123 457.942 309.273C460.431 305.424 461.927 301.018 462.297 296.45L472.247 175.338C472.763 169.112 471.971 162.847 469.92 156.946C467.869 151.044 464.605 145.637 460.339 141.07L429.677 108.259C427.99 106.444 426.699 104.3 425.885 101.96C425.072 99.6208 424.754 97.138 424.952 94.6694L426.424 76.9327L347.068 70.4174L345.596 88.1542C345.393 90.6219 344.677 93.0201 343.493 95.1955C342.31 97.3708 340.685 99.2754 338.722 100.788L303.1 128.187C298.148 132 294.047 136.804 291.061 142.292C288.075 147.781 286.27 153.831 285.76 160.057L275.794 281.17C275.417 285.732 276.176 290.316 278.002 294.514C279.828 298.712 282.665 302.393 286.26 305.23C282.244 307.444 278.841 310.617 276.354 314.467C273.868 318.317 272.375 322.723 272.011 327.291L259.308 481.715C258.709 489.057 261.052 496.336 265.821 501.953C270.591 507.57 277.396 511.066 284.744 511.674L415.752 522.424C419.39 522.724 423.052 522.306 426.528 521.191C430.004 520.077 433.226 518.29 436.011 515.931C438.795 513.572 441.087 510.689 442.756 507.445C444.425 504.201 445.438 500.66 445.737 497.025L458.44 342.601C458.828 338.04 458.082 333.453 456.266 329.25C454.45 325.046 451.622 321.357 448.033 318.511Z" fill="#407BFF"/>
<path opacity="0.3" d="M347.091 70.4444L345.965 84.12L425.303 90.6371L426.429 76.9615L347.091 70.4444Z" fill="#407BFF"/>
<path opacity="0.3" d="M459.603 144.232L428.941 111.391C428.941 111.391 409.172 112.244 424.525 136.467C437.611 156.954 460.412 153.762 459.603 144.232Z" fill="white"/>
<path opacity="0.2" d="M259.322 481.656C258.724 488.998 261.067 496.277 265.836 501.894C270.605 507.512 277.411 511.008 284.759 511.615L415.767 522.366C419.405 522.666 423.066 522.247 426.542 521.133C430.018 520.018 433.241 518.231 436.025 515.872C438.81 513.514 441.102 510.63 442.771 507.386C444.439 504.142 445.452 500.602 445.751 496.966L259.322 481.656Z" fill="#407BFF"/>
<path opacity="0.3" d="M453.877 147.071C457.301 150.739 459.92 155.082 461.568 159.82C463.215 164.558 463.855 169.588 463.445 174.588L453.494 295.715C453.235 298.829 452.21 301.83 450.51 304.452C448.81 307.075 446.487 309.237 443.749 310.746L432.165 317.158L442.542 325.379C444.998 327.313 446.936 329.823 448.184 332.687C449.432 335.551 449.952 338.679 449.696 341.792L436.993 496.216C436.584 501.221 434.204 505.859 430.376 509.112C426.549 512.366 421.586 513.969 416.576 513.571L285.568 502.82C283.08 502.623 280.656 501.938 278.432 500.805C276.209 499.672 274.232 498.112 272.612 496.215C270.992 494.318 269.762 492.121 268.992 489.749C268.222 487.378 267.928 484.877 268.125 482.392L280.828 327.968C281.082 324.852 282.103 321.848 283.801 319.223C285.498 316.598 287.82 314.433 290.558 312.922L302.143 306.51L291.839 298.289C289.383 296.355 287.445 293.844 286.197 290.981C284.949 288.117 284.429 284.989 284.685 281.876L294.65 160.763C295.064 155.763 296.517 150.905 298.917 146.498C301.318 142.092 304.612 138.234 308.59 135.173C320.366 127.569 351.278 146.497 387.475 149.468C423.671 152.439 446.31 143.262 453.877 147.071Z" fill="#407BFF"/>
<path opacity="0.2" d="M387.401 149.483C351.219 146.541 320.277 127.569 308.501 135.173C329.109 146.497 352.661 153.512 386.827 156.321C420.992 159.13 453.876 147.071 453.876 147.071C446.31 143.262 423.582 152.468 387.401 149.483Z" fill="#407BFF"/>
<path opacity="0.2" d="M275.808 281.17C275.432 285.732 276.19 290.316 278.016 294.514C279.842 298.712 282.679 302.393 286.274 305.23L448.032 318.467C452.048 316.252 455.453 313.078 457.941 309.229C460.43 305.38 461.927 300.974 462.296 296.406L275.808 281.17Z" fill="#407BFF"/>
<path d="M428.087 55.2711L348.971 48.7522C345.657 48.4791 342.751 50.9419 342.479 54.2529L340.901 73.484C340.63 76.795 343.096 79.7005 346.41 79.9735L425.526 86.4925C428.84 86.7655 431.746 84.3028 432.018 80.9918L433.596 61.7606C433.867 58.4496 431.401 55.5442 428.087 55.2711Z" fill="#407BFF"/>
<path opacity="0.2" d="M350.424 77.0062C350.328 76.9988 350.233 76.9723 350.147 76.9283C350.06 76.8843 349.983 76.8237 349.92 76.7499C349.857 76.676 349.81 76.5905 349.78 76.4982C349.75 76.4059 349.739 76.3087 349.747 76.212L351.602 52.9454C351.617 52.7504 351.71 52.5696 351.859 52.4427C352.008 52.3158 352.202 52.2533 352.397 52.2689C352.592 52.2845 352.773 52.377 352.9 52.5259C353.027 52.6748 353.089 52.8681 353.074 53.0631L351.16 76.315C351.149 76.5023 351.067 76.6782 350.93 76.8067C350.793 76.9352 350.612 77.0065 350.424 77.0062Z" fill="white"/>
<path opacity="0.2" d="M364.776 78.1828C364.68 78.1753 364.585 78.1489 364.499 78.1049C364.412 78.0609 364.335 78.0002 364.272 77.9264C364.209 77.8526 364.162 77.7671 364.132 77.6748C364.102 77.5825 364.091 77.4852 364.099 77.3886L366.013 54.1367C366.032 53.9429 366.125 53.764 366.273 53.6378C366.422 53.5115 366.613 53.4478 366.808 53.4602C366.904 53.4675 366.998 53.4941 367.083 53.5382C367.169 53.5824 367.245 53.6433 367.307 53.7174C367.369 53.7914 367.415 53.8771 367.443 53.9694C367.471 54.0616 367.48 54.1585 367.47 54.2544L365.512 77.5062C365.494 77.6897 365.409 77.86 365.273 77.9848C365.138 78.1096 364.961 78.18 364.776 78.1828Z" fill="white"/>
<path opacity="0.2" d="M379.114 79.4182C379.017 79.4107 378.923 79.3843 378.836 79.3403C378.75 79.2963 378.673 79.2356 378.61 79.1618C378.547 79.088 378.499 79.0025 378.469 78.9102C378.44 78.8179 378.429 78.7206 378.437 78.624L380.35 55.3721C380.372 55.1798 380.467 55.003 380.614 54.8774C380.762 54.7518 380.951 54.6869 381.145 54.6956C381.242 54.703 381.336 54.7295 381.423 54.7735C381.509 54.8175 381.586 54.8781 381.649 54.9519C381.712 55.0257 381.76 55.1113 381.789 55.2036C381.819 55.2959 381.83 55.3931 381.822 55.4898L379.909 78.7416C379.901 78.8383 379.875 78.9326 379.831 79.019C379.787 79.1054 379.726 79.1822 379.652 79.2451C379.578 79.308 379.493 79.3557 379.4 79.3854C379.308 79.4151 379.21 79.4262 379.114 79.4182Z" fill="white"/>
<path opacity="0.2" d="M393.466 80.5359C393.369 80.5285 393.275 80.502 393.188 80.458C393.102 80.414 393.025 80.3534 392.962 80.2795C392.899 80.2057 392.851 80.1202 392.822 80.0279C392.792 79.9356 392.781 79.8383 392.789 79.7417L394.702 56.4898C394.721 56.2961 394.814 56.1171 394.963 55.9909C395.111 55.8646 395.303 55.801 395.497 55.8133C395.593 55.8207 395.687 55.8472 395.773 55.8914C395.859 55.9356 395.935 55.9965 395.996 56.0705C396.058 56.1446 396.104 56.2303 396.132 56.3225C396.16 56.4147 396.17 56.5116 396.16 56.6075L394.246 79.8594C394.24 79.9554 394.216 80.0493 394.173 80.1357C394.131 80.222 394.071 80.2989 393.999 80.362C393.926 80.425 393.841 80.4729 393.75 80.5028C393.658 80.5327 393.562 80.5439 393.466 80.5359Z" fill="white"/>
<path opacity="0.2" d="M407.744 81.7125C407.647 81.705 407.553 81.6786 407.467 81.6346C407.38 81.5906 407.303 81.5299 407.24 81.4561C407.177 81.3823 407.13 81.2968 407.1 81.2045C407.07 81.1122 407.059 81.0149 407.067 80.9183L408.981 57.6664C409.006 57.4754 409.101 57.3006 409.248 57.1757C409.395 57.0508 409.583 56.9846 409.775 56.9899C409.872 56.9973 409.967 57.0238 410.053 57.0678C410.14 57.1118 410.216 57.1724 410.279 57.2462C410.342 57.32 410.39 57.4056 410.42 57.4979C410.449 57.5902 410.461 57.6874 410.453 57.7841L408.539 81.0359C408.534 81.1333 408.508 81.2286 408.465 81.316C408.422 81.4034 408.361 81.481 408.287 81.5443C408.212 81.6075 408.126 81.6551 408.033 81.684C407.939 81.7129 407.841 81.7226 407.744 81.7125Z" fill="white"/>
<path opacity="0.2" d="M422.155 82.889C422.058 82.8816 421.964 82.8551 421.877 82.8111C421.791 82.7671 421.714 82.7065 421.651 82.6327C421.588 82.5589 421.54 82.4734 421.51 82.3811C421.481 82.2887 421.47 82.1915 421.478 82.0948L423.332 58.8283C423.351 58.6345 423.444 58.4556 423.593 58.3293C423.741 58.2031 423.933 58.1394 424.127 58.1517C424.32 58.1704 424.498 58.2642 424.622 58.4129C424.746 58.5616 424.806 58.7531 424.79 58.9459L422.891 82.2125C422.873 82.3959 422.788 82.5663 422.652 82.691C422.516 82.8158 422.339 82.8863 422.155 82.889Z" fill="white"/>
<path opacity="0.2" d="M300.288 240.711C298.05 228.342 280.018 229.224 278.988 241.74L275.75 281.17C275.373 285.731 276.131 290.316 277.957 294.514C279.783 298.712 282.62 302.393 286.216 305.23C282.2 307.444 278.797 310.617 276.31 314.467C273.823 318.317 272.331 322.723 271.967 327.291L259.263 481.715C258.665 489.057 261.007 496.336 265.777 501.953C270.546 507.57 277.352 511.066 284.699 511.674L318.555 514.453C322.285 514.758 326.036 514.203 329.516 512.829C332.997 511.456 336.116 509.302 338.631 506.533C341.146 503.764 342.991 500.455 344.022 496.861C345.054 493.267 345.245 489.484 344.58 485.804L300.288 240.711Z" fill="#407BFF"/>
<path opacity="0.3" d="M430.56 442.918C430.327 445.753 429.257 448.455 427.486 450.682C425.716 452.91 423.324 454.563 420.614 455.433C417.903 456.302 414.995 456.349 412.258 455.568C409.52 454.786 407.076 453.212 405.235 451.043C403.393 448.874 402.236 446.208 401.911 443.382C401.585 440.556 402.106 437.697 403.406 435.167C404.707 432.637 406.729 430.548 409.217 429.166C411.706 427.784 414.548 427.17 417.386 427.402C421.191 427.717 424.716 429.528 427.186 432.437C429.656 435.346 430.87 439.116 430.56 442.918Z" fill="#407BFF"/>
<path opacity="0.3" d="M384.795 387.222C384.631 389.229 383.875 391.142 382.623 392.719C381.371 394.296 379.679 395.467 377.761 396.083C375.842 396.699 373.784 396.733 371.847 396.18C369.909 395.628 368.179 394.514 366.876 392.979C365.572 391.444 364.754 389.557 364.523 387.557C364.293 385.557 364.662 383.534 365.582 381.743C366.503 379.953 367.935 378.475 369.696 377.497C371.457 376.52 373.469 376.086 375.477 376.251C378.167 376.476 380.659 377.757 382.405 379.813C384.152 381.87 385.011 384.534 384.795 387.222Z" fill="#407BFF"/>
<path opacity="0.3" d="M342.211 263.256C340.199 263.35 338.205 262.846 336.48 261.808C334.755 260.769 333.377 259.244 332.52 257.423C331.663 255.603 331.365 253.569 331.664 251.58C331.963 249.59 332.845 247.733 334.199 246.245C335.554 244.756 337.319 243.702 339.273 243.215C341.227 242.728 343.282 242.831 345.177 243.511C347.072 244.19 348.724 245.416 349.922 247.032C351.121 248.649 351.813 250.584 351.911 252.594C351.976 253.931 351.777 255.267 351.325 256.527C350.872 257.787 350.176 258.945 349.275 259.936C348.374 260.926 347.286 261.729 346.074 262.299C344.862 262.869 343.549 263.194 342.211 263.256Z" fill="#407BFF"/>
<path opacity="0.3" d="M369.987 202.413C368.561 202.485 367.146 202.131 365.921 201.399C364.696 200.666 363.717 199.586 363.106 198.297C362.496 197.007 362.282 195.566 362.493 194.155C362.703 192.744 363.328 191.427 364.287 190.371C365.247 189.315 366.499 188.567 367.885 188.223C369.27 187.878 370.727 187.952 372.07 188.435C373.413 188.919 374.583 189.789 375.431 190.937C376.278 192.085 376.766 193.458 376.832 194.883C376.92 196.788 376.249 198.65 374.966 200.061C373.683 201.472 371.893 202.318 369.987 202.413Z" fill="#407BFF"/>
<path opacity="0.3" d="M414.677 343.233C414.607 344.061 414.294 344.851 413.775 345.501C413.257 346.151 412.558 346.634 411.765 346.887C410.973 347.14 410.123 347.153 409.323 346.925C408.523 346.696 407.809 346.235 407.271 345.601C406.733 344.967 406.395 344.188 406.3 343.362C406.204 342.537 406.356 341.701 406.736 340.961C407.116 340.222 407.707 339.611 408.434 339.207C409.16 338.802 409.991 338.622 410.82 338.689C411.934 338.783 412.965 339.314 413.688 340.165C414.411 341.017 414.767 342.12 414.677 343.233Z" fill="#407BFF"/>
<path opacity="0.7" d="M338.427 458.302H337.721C336.594 458.224 335.493 457.924 334.482 457.42C333.472 456.915 332.571 456.215 331.833 455.36C331.107 454.509 330.557 453.522 330.216 452.456C329.875 451.391 329.749 450.268 329.846 449.154C329.983 447.506 330.597 445.934 331.614 444.629C332.63 443.324 334.005 442.343 335.57 441.806C337.135 441.269 338.823 441.199 340.428 441.604C342.032 442.009 343.484 442.872 344.606 444.088C345.727 445.304 346.471 446.82 346.744 448.45C347.018 450.081 346.811 451.756 346.148 453.271C345.485 454.786 344.395 456.075 343.011 456.982C341.627 457.888 340.009 458.372 338.354 458.375L338.427 458.302ZM338.427 442.359C336.753 442.367 335.132 442.946 333.831 443.999C332.53 445.052 331.628 446.516 331.272 448.151C330.916 449.785 331.129 451.492 331.875 452.989C332.621 454.487 333.856 455.685 335.375 456.387C336.895 457.089 338.609 457.253 340.234 456.85C341.859 456.448 343.298 455.505 344.314 454.175C345.33 452.846 345.862 451.21 345.822 449.538C345.782 447.865 345.173 446.257 344.095 444.977C343.466 444.233 342.697 443.621 341.83 443.177C340.963 442.733 340.017 442.465 339.046 442.389L338.427 442.359Z" fill="white"/>
<path opacity="0.7" d="M429.471 286.2H428.955C427.321 286.065 425.806 285.287 424.744 284.039C423.681 282.79 423.158 281.171 423.288 279.537C423.423 277.901 424.203 276.385 425.456 275.324C426.709 274.262 428.333 273.741 429.971 273.875C431.606 274.01 433.12 274.787 434.183 276.036C435.245 277.285 435.768 278.904 435.638 280.537C435.498 282.173 434.721 283.689 433.474 284.758C432.353 285.698 430.934 286.209 429.471 286.2ZM424.392 279.596C424.319 280.596 424.543 281.596 425.037 282.469C425.53 283.342 426.27 284.05 427.165 284.504C428.06 284.958 429.069 285.138 430.066 285.021C431.063 284.904 432.003 284.495 432.768 283.846C433.279 283.414 433.699 282.885 434.005 282.291C434.311 281.696 434.497 281.046 434.551 280.38C434.606 279.713 434.529 279.042 434.324 278.406C434.119 277.769 433.79 277.179 433.357 276.669C432.907 276.174 432.363 275.773 431.756 275.49C431.15 275.207 430.493 275.048 429.824 275.022C429.158 274.966 428.487 275.041 427.85 275.245C427.213 275.448 426.623 275.775 426.113 276.207C425.602 276.638 425.183 277.167 424.877 277.761C424.572 278.355 424.387 279.004 424.333 279.67L424.392 279.596Z" fill="white"/>
<path opacity="0.7" d="M334.365 155.806H334.144C333.384 155.731 332.682 155.364 332.188 154.783C331.694 154.201 331.445 153.45 331.494 152.689C331.532 152.116 331.736 151.568 332.081 151.11C332.426 150.652 332.898 150.305 333.438 150.111C333.978 149.918 334.563 149.886 335.121 150.02C335.679 150.154 336.186 150.449 336.578 150.866C336.971 151.284 337.233 151.808 337.332 152.373C337.431 152.937 337.363 153.519 337.135 154.045C336.908 154.571 336.532 155.02 336.052 155.335C335.573 155.651 335.012 155.82 334.438 155.821L334.365 155.806ZM332.584 152.777C332.556 153.127 332.633 153.478 332.804 153.785C332.976 154.091 333.234 154.341 333.547 154.501C333.86 154.661 334.214 154.725 334.563 154.685C334.913 154.645 335.242 154.502 335.511 154.275C335.779 154.048 335.974 153.746 336.071 153.408C336.168 153.071 336.163 152.712 336.056 152.377C335.95 152.042 335.746 151.746 335.471 151.527C335.196 151.308 334.863 151.175 334.512 151.144C334.278 151.122 334.041 151.147 333.816 151.218C333.592 151.288 333.384 151.403 333.204 151.555C333.024 151.707 332.877 151.893 332.77 152.103C332.664 152.313 332.6 152.542 332.584 152.777Z" fill="white"/>
<path opacity="0.7" d="M399.456 231.975H398.838C397.869 231.899 396.925 231.632 396.059 231.189C395.194 230.746 394.425 230.137 393.797 229.396C393.169 228.655 392.694 227.797 392.4 226.871C392.105 225.945 391.997 224.971 392.082 224.003C392.207 222.583 392.743 221.23 393.624 220.109C394.506 218.988 395.694 218.147 397.045 217.688C398.396 217.229 399.851 217.173 401.234 217.526C402.616 217.878 403.866 218.625 404.832 219.674C405.798 220.724 406.437 222.031 406.672 223.437C406.908 224.843 406.729 226.288 406.158 227.594C405.587 228.9 404.648 230.013 403.455 230.796C402.263 231.579 400.868 231.998 399.442 232.004L399.456 231.975ZM399.456 218.297C397.975 218.29 396.54 218.812 395.408 219.768C394.137 220.842 393.343 222.375 393.2 224.033C393.117 225.061 393.289 226.094 393.701 227.04C394.112 227.986 394.751 228.817 395.56 229.458C396.369 230.099 397.323 230.531 398.339 230.716C399.355 230.901 400.4 230.833 401.384 230.518C402.367 230.203 403.258 229.651 403.977 228.911C404.696 228.17 405.221 227.264 405.506 226.273C405.792 225.281 405.828 224.235 405.612 223.226C405.397 222.217 404.936 221.277 404.27 220.488C403.737 219.857 403.084 219.339 402.349 218.962C401.613 218.586 400.81 218.36 399.986 218.297H399.456Z" fill="white"/>
<path opacity="0.3" d="M459.838 296.274L469.347 180.779C469.407 180.041 469.322 179.299 469.095 178.594C468.868 177.889 468.504 177.236 468.024 176.672C467.544 176.108 466.958 175.644 466.298 175.306C465.639 174.969 464.919 174.765 464.18 174.705C463.443 174.643 462.7 174.727 461.994 174.952C461.289 175.177 460.635 175.539 460.07 176.017C459.506 176.496 459.041 177.081 458.703 177.739C458.365 178.397 458.16 179.115 458.101 179.853L448.592 295.347C448.282 299.187 447.025 302.889 444.931 306.123C442.837 309.357 439.973 312.022 436.595 313.878L430.81 317.099L436.006 321.202C439.035 323.586 441.426 326.681 442.967 330.212C444.508 333.743 445.151 337.6 444.838 341.439L432.135 495.863C431.369 505.129 425.54 509.644 417.341 513.247C416.821 513.48 416.393 513.879 416.124 514.381C415.855 514.883 415.76 515.46 415.854 516.021C415.949 516.583 416.227 517.098 416.645 517.485C417.063 517.871 417.598 518.109 418.166 518.159C424.345 518.664 430.472 516.696 435.2 512.689C439.928 508.682 442.871 502.964 443.381 496.79L456.084 342.366C456.399 338.526 455.758 334.669 454.216 331.137C452.675 327.606 450.283 324.511 447.252 322.129L442.056 318.011L447.841 314.805C451.216 312.945 454.079 310.28 456.172 307.047C458.265 303.813 459.525 300.112 459.838 296.274Z" fill="white"/>
<path opacity="0.3" d="M612.632 475.759C611.042 468.552 591.199 472.818 587.092 473.479C579.113 474.926 571.301 477.178 563.776 480.2C555.489 483.451 545.862 488.23 537.28 483.289C532.319 480.436 549.542 474.803 551.102 474.229C558.422 471.66 565.488 468.421 572.211 464.552C574.934 462.934 580.203 459.066 577.937 455.14C576.052 451.889 569.296 452.198 565.189 452.698C552.745 454.221 540.537 457.279 528.845 461.802C517.474 466.315 506.341 471.406 495.49 477.053C491.286 479.423 486.713 481.068 481.962 481.921C476.781 482.657 470.436 481.554 468.39 478.686C466.344 475.818 468.979 472.465 469.583 469.582C470.436 466.136 470.078 462.501 468.567 459.287C467.565 457.133 465.885 455.367 463.783 454.257C458.175 451.316 449.696 452.404 444.058 454.728C440.405 456.274 437.067 458.477 434.211 461.228C428.457 466.579 424.42 473.514 422.611 481.156C422.156 483.55 421.232 485.83 419.893 487.867C418.555 489.903 416.827 491.656 414.81 493.025C406.92 498.334 392.465 498.025 381.41 495.363C362.112 490.79 347.392 480.098 343.844 468.023C342.122 462.273 341.283 456.257 333.54 454.007C328.536 452.536 318.055 453.566 320.292 459.89C321.105 461.623 322.166 463.228 323.443 464.655C325.489 467.346 327.667 472.42 321.588 474.053C319.619 474.47 317.597 474.57 315.597 474.347C296.049 473.038 278.061 466.523 266.403 457.346C262.601 454.362 259.378 450.708 256.893 446.565C255.51 444.286 255.009 441.83 253.493 439.58C252.044 437.414 250 435.713 247.605 434.682C240.098 431.461 222.463 433.138 221.227 440.197C220.564 444.021 222.949 448.168 224.171 451.801C224.39 452.259 224.442 452.779 224.318 453.272C223.965 454.198 222.566 454.463 221.374 454.537C205.609 455.581 190.315 449.463 177.082 443.08C163.068 436.315 147.642 427.505 128.167 427.402C124.14 427.218 120.11 427.68 116.229 428.77C115.247 429.032 114.333 429.503 113.55 430.152C113.074 430.647 112.758 431.274 112.643 431.95C112.527 432.627 112.618 433.322 112.902 433.947C113.534 435.242 114.474 436.363 115.64 437.212C121.528 442.006 129.771 443.948 137.293 446.418C159.611 453.646 181.189 462.978 201.738 474.288C203.813 475.45 207.493 478.141 204.579 480.171C201.664 482.201 195.747 480.892 192.258 480.318C185.928 479.289 179.849 477.641 173.681 476.097C165.526 474.038 156.017 472.17 147.185 473.876C142.519 474.774 138.353 476.685 136.16 479.274C135.404 480.031 134.906 481.007 134.737 482.063C134.568 483.119 134.736 484.202 135.218 485.157C138.25 490.554 152.072 492.878 159.624 495.452C169.292 498.749 178.746 502.644 187.93 507.114C195.776 510.997 203.062 515.247 211.011 519.057C239.406 532.661 279.062 534.411 314.522 535.734C353.015 537.205 391.684 535.955 430.074 533.822C458.042 532.263 485.495 529.19 512.904 525.572C520.779 524.542 528.61 523.277 536.456 522.204C544.42 521.292 552.297 519.732 560.008 517.542C562.778 516.836 565.364 515.541 567.588 513.747C569.693 511.791 570.356 509.232 566.587 508.497C558.698 506.923 550.572 508.717 542.859 510.115C534.204 511.703 525.627 513.532 517.128 515.6C513.254 516.633 509.322 517.433 505.352 517.998C501.362 518.557 497.3 518.297 493.414 517.233C492.148 516.836 490.765 516.13 490.691 515.012C490.618 513.894 491.677 513.188 492.767 512.762C508.65 506.467 525.519 502.467 542.506 498.79C554.031 496.29 565.763 494.76 577.377 492.804C587.961 491.025 599.119 490.613 608.289 483.907C610.114 482.729 611.533 481.02 612.352 479.009C612.75 477.974 612.847 476.847 612.632 475.759Z" fill="#407BFF"/>
<path opacity="0.3" d="M157.136 416.21C152.823 403.959 137.455 382.266 134.217 395.076C132.48 402.268 157.136 416.21 157.136 416.21Z" fill="#407BFF"/>
<path opacity="0.3" d="M543.065 440.329C551.279 432.844 561.524 428.388 562.849 434.976C564.085 441.211 543.065 440.329 543.065 440.329Z" fill="#407BFF"/>
<path opacity="0.3" d="M206.08 380.795C200.457 377.853 196.071 373.133 199.368 371.162C202.665 369.192 206.08 380.795 206.08 380.795Z" fill="#407BFF"/>
</g>
<defs>
<clipPath id="clip0_149_510">
<rect width="736" height="548" fill="white"/>
</clipPath>
</defs>
</svg>
