<svg width="768" height="1280" viewBox="0 0 768 1280" fill="none" xmlns="http://www.w3.org/2000/svg">
<g clip-path="url(#clip0_149_559)">
<path opacity="0.7" d="M47.1992 664.836H45.6243C43.1117 664.663 40.6582 663.994 38.4055 662.868C36.1528 661.741 34.1457 660.18 32.5 658.273C30.8811 656.373 29.6559 654.171 28.8955 651.793C28.1351 649.416 27.8547 646.911 28.0706 644.425C28.3764 640.748 29.7459 637.24 32.0118 634.329C34.2777 631.418 37.3421 629.229 40.8308 628.031C44.3195 626.832 48.0817 626.675 51.658 627.579C55.2344 628.483 58.4702 630.409 60.9705 633.122C63.4707 635.835 65.1273 639.216 65.7379 642.855C66.3485 646.493 65.8868 650.231 64.4091 653.611C62.9314 656.992 60.5016 659.869 57.4164 661.891C54.3312 663.913 50.724 664.994 47.0352 665L47.1992 664.836ZM47.1992 629.264C43.4676 629.283 39.8538 630.573 36.9542 632.922C34.0546 635.272 32.0424 638.539 31.2497 642.186C30.4571 645.833 30.9312 649.642 32.594 652.983C34.2568 656.324 37.0089 658.998 40.396 660.565C43.7832 662.131 47.6031 662.495 51.2252 661.598C54.8474 660.7 58.0555 658.595 60.32 655.628C62.5845 652.662 63.7702 649.012 63.6814 645.281C63.5925 641.55 62.2345 637.961 59.8313 635.105C58.431 633.446 56.7151 632.081 54.7833 631.089C52.8514 630.098 50.742 629.5 48.5773 629.33L47.1992 629.264Z" fill="#C6D7FF"/>
<path d="M27.9539 464.149C27.7267 466.908 26.6864 469.538 24.9646 471.706C23.2429 473.874 20.9169 475.483 18.2807 476.33C15.6446 477.176 12.8166 477.222 10.1545 476.461C7.49227 475.701 5.11536 474.168 3.32424 472.057C1.53313 469.946 0.408238 467.351 0.0917692 464.6C-0.2247 461.85 0.281475 459.067 1.5463 456.604C2.81112 454.142 4.7778 452.109 7.19769 450.764C9.61758 449.419 12.382 448.821 15.1415 449.047C18.8422 449.353 22.2701 451.115 24.6723 453.947C27.0746 456.779 28.2548 460.448 27.9539 464.149Z" fill="#C6D7FF"/>
<path d="M31.9703 154.739C31.8243 156.512 31.1556 158.203 30.0487 159.597C28.9418 160.991 27.4466 162.025 25.7519 162.569C24.0572 163.113 22.2393 163.143 20.5279 162.654C18.8165 162.165 17.2884 161.179 16.137 159.822C14.9856 158.465 14.2624 156.797 14.059 155.029C13.8556 153.261 14.1809 151.472 14.994 149.889C15.8071 148.305 17.0714 146.999 18.6271 146.134C20.1827 145.269 21.9599 144.885 23.7338 145.03C26.1129 145.227 28.3165 146.36 29.8608 148.18C31.4051 150.001 32.1638 152.359 31.9703 154.739Z" fill="#ECF2FF"/>
<path opacity="0.7" d="M47.1573 308.87H45.9139C43.9303 308.734 41.9933 308.206 40.2149 307.317C38.4365 306.427 36.8519 305.194 35.5526 303.689C34.2746 302.189 33.3073 300.451 32.707 298.574C32.1067 296.697 31.8853 294.72 32.0557 292.756C32.2972 289.854 33.3783 287.084 35.1672 284.786C36.9561 282.488 39.3753 280.76 42.1296 279.814C44.8838 278.867 47.854 278.744 50.6774 279.457C53.5008 280.171 56.0554 281.692 58.0293 283.833C60.0032 285.975 61.311 288.645 61.7931 291.517C62.2752 294.389 61.9106 297.34 60.744 300.009C59.5774 302.678 57.6592 304.949 55.2235 306.545C52.7878 308.142 49.94 308.995 47.0278 309L47.1573 308.87ZM47.1573 280.788C44.2113 280.802 41.3583 281.821 39.0691 283.676C36.7799 285.53 35.1914 288.11 34.5656 290.989C33.9398 293.868 34.3141 296.875 35.6269 299.513C36.9396 302.15 39.1123 304.262 41.7863 305.498C44.4604 306.735 47.4761 307.023 50.3357 306.314C53.1953 305.606 55.728 303.943 57.5158 301.601C59.3036 299.259 60.2396 296.378 60.1695 293.432C60.0994 290.487 59.0272 287.653 57.13 285.399C56.0244 284.089 54.6698 283.011 53.1447 282.228C51.6195 281.446 49.9542 280.973 48.2452 280.839L47.1573 280.788Z" fill="#9EBBFF"/>
<path d="M397.954 141.149C397.727 143.908 396.686 146.538 394.965 148.706C393.243 150.874 390.917 152.483 388.281 153.33C385.645 154.176 382.817 154.222 380.154 153.461C377.492 152.701 375.115 151.168 373.324 149.057C371.533 146.946 370.408 144.351 370.092 141.6C369.775 138.85 370.281 136.067 371.546 133.604C372.811 131.142 374.778 129.109 377.198 127.764C379.618 126.419 382.382 125.821 385.141 126.047C388.842 126.353 392.27 128.115 394.672 130.947C397.075 133.779 398.255 137.448 397.954 141.149Z" fill="#ECF2FF"/>
<path opacity="0.7" d="M608.262 49.784H606.19C602.884 49.5569 599.655 48.6769 596.691 47.1946C593.727 45.7124 591.086 43.6574 588.921 41.1484C586.791 38.649 585.179 35.7511 584.178 32.623C583.178 29.495 582.809 26.1992 583.093 22.9274C583.495 18.0897 585.297 13.4738 588.279 9.64325C591.26 5.81266 595.292 2.93312 599.883 1.35606C604.473 -0.221009 609.423 -0.427301 614.129 0.762309C618.835 1.95192 623.092 4.48597 626.382 8.05517C629.672 11.6244 631.852 16.0742 632.655 20.8616C633.459 25.649 632.851 30.5669 630.907 35.0148C628.962 39.4626 625.765 43.2481 621.706 45.9091C617.646 48.5701 612.9 49.9917 608.046 50L608.262 49.784ZM608.262 2.97918C603.352 3.00356 598.597 4.70145 594.782 7.79256C590.967 10.8837 588.319 15.1833 587.276 19.9819C586.233 24.7806 586.857 29.7915 589.045 34.1878C591.233 38.584 594.854 42.103 599.311 44.1638C603.767 46.2247 608.793 46.7042 613.56 45.5234C618.326 44.3427 622.547 41.5721 625.526 37.669C628.506 33.7658 630.066 28.9633 629.949 24.054C629.832 19.1446 628.045 14.4217 624.883 10.6648C623.041 8.4811 620.783 6.68489 618.241 5.3804C615.699 4.07591 612.924 3.28905 610.075 3.06549L608.262 2.97918Z" fill="#C6D7FF"/>
<path opacity="0.7" d="M198.199 727.836H196.624C194.112 727.663 191.658 726.994 189.406 725.868C187.153 724.741 185.146 723.18 183.5 721.273C181.881 719.373 180.656 717.171 179.896 714.793C179.135 712.416 178.855 709.911 179.071 707.425C179.376 703.748 180.746 700.24 183.012 697.329C185.278 694.418 188.342 692.229 191.831 691.031C195.32 689.832 199.082 689.675 202.658 690.579C206.234 691.483 209.47 693.409 211.97 696.122C214.471 698.835 216.127 702.216 216.738 705.855C217.349 709.493 216.887 713.231 215.409 716.611C213.931 719.992 211.502 722.869 208.416 724.891C205.331 726.913 201.724 727.994 198.035 728L198.199 727.836ZM198.199 692.264C194.468 692.283 190.854 693.573 187.954 695.922C185.055 698.272 183.042 701.539 182.25 705.186C181.457 708.833 181.931 712.642 183.594 715.983C185.257 719.324 188.009 721.998 191.396 723.565C194.783 725.131 198.603 725.495 202.225 724.598C205.847 723.7 209.055 721.595 211.32 718.628C213.585 715.662 214.77 712.012 214.681 708.281C214.593 704.55 213.234 700.961 210.831 698.105C209.431 696.446 207.715 695.081 205.783 694.089C203.851 693.098 201.742 692.5 199.577 692.33L198.199 692.264Z" fill="#9EBBFF"/>
<path d="M632.954 260.149C632.727 262.908 631.686 265.538 629.965 267.706C628.243 269.874 625.917 271.483 623.281 272.33C620.645 273.176 617.817 273.222 615.154 272.461C612.492 271.701 610.115 270.168 608.324 268.057C606.533 265.946 605.408 263.351 605.092 260.6C604.775 257.85 605.281 255.067 606.546 252.604C607.811 250.142 609.778 248.109 612.198 246.764C614.618 245.419 617.382 244.821 620.141 245.047C623.842 245.353 627.27 247.115 629.672 249.947C632.075 252.779 633.255 256.448 632.954 260.149Z" fill="#C6D7FF"/>
<path opacity="0.7" d="M782.231 184.81H780.407C777.498 184.61 774.657 183.836 772.048 182.531C769.44 181.227 767.116 179.419 765.211 177.211C763.336 175.011 761.917 172.461 761.037 169.708C760.156 166.956 759.832 164.055 760.082 161.176C760.436 156.919 762.022 152.857 764.645 149.486C767.269 146.115 770.817 143.581 774.857 142.193C778.896 140.806 783.252 140.624 787.394 141.671C791.535 142.718 795.281 144.948 798.176 148.089C801.071 151.229 802.989 155.145 803.697 159.358C804.404 163.571 803.869 167.899 802.158 171.813C800.447 175.727 797.633 179.058 794.061 181.4C790.489 183.742 786.312 184.993 782.041 185L782.231 184.81ZM782.231 143.622C777.91 143.643 773.725 145.137 770.368 147.857C767.011 150.578 764.681 154.361 763.763 158.584C762.845 162.807 763.394 167.217 765.319 171.085C767.245 174.954 770.431 178.051 774.353 179.864C778.275 181.678 782.698 182.1 786.892 181.061C791.086 180.022 794.801 177.583 797.423 174.149C800.045 170.714 801.418 166.488 801.315 162.168C801.212 157.847 799.64 153.691 796.857 150.385C795.236 148.463 793.249 146.883 791.012 145.735C788.775 144.587 786.333 143.894 783.826 143.698L782.231 143.622Z" fill="#9EBBFF"/>
<path d="M502.954 666.149C502.727 668.908 501.686 671.538 499.965 673.706C498.243 675.874 495.917 677.483 493.281 678.33C490.645 679.176 487.817 679.222 485.154 678.461C482.492 677.701 480.115 676.168 478.324 674.057C476.533 671.946 475.408 669.351 475.092 666.6C474.775 663.85 475.281 661.067 476.546 658.604C477.811 656.142 479.778 654.109 482.198 652.764C484.618 651.419 487.382 650.821 490.141 651.047C493.842 651.353 497.27 653.115 499.672 655.947C502.075 658.779 503.255 662.448 502.954 666.149Z" fill="#C6D7FF"/>
<path opacity="0.7" d="M29.1992 1259.84H27.6243C25.1117 1259.66 22.6582 1258.99 20.4055 1257.87C18.1528 1256.74 16.1457 1255.18 14.5 1253.27C12.8811 1251.37 11.6559 1249.17 10.8955 1246.79C10.1351 1244.42 9.85471 1241.91 10.0706 1239.42C10.3764 1235.75 11.7459 1232.24 14.0118 1229.33C16.2777 1226.42 19.3421 1224.23 22.8308 1223.03C26.3195 1221.83 30.0817 1221.68 33.658 1222.58C37.2344 1223.48 40.4702 1225.41 42.9705 1228.12C45.4707 1230.83 47.1273 1234.22 47.7379 1237.85C48.3485 1241.49 47.8868 1245.23 46.4091 1248.61C44.9314 1251.99 42.5016 1254.87 39.4164 1256.89C36.3312 1258.91 32.724 1259.99 29.0352 1260L29.1992 1259.84ZM29.1992 1224.26C25.4676 1224.28 21.8538 1225.57 18.9542 1227.92C16.0546 1230.27 14.0424 1233.54 13.2497 1237.19C12.4571 1240.83 12.9312 1244.64 14.594 1247.98C16.2568 1251.32 19.0089 1254 22.396 1255.56C25.7832 1257.13 29.6031 1257.5 33.2252 1256.6C36.8474 1255.7 40.0555 1253.59 42.32 1250.63C44.5845 1247.66 45.7702 1244.01 45.6814 1240.28C45.5925 1236.55 44.2345 1232.96 41.8313 1230.11C40.431 1228.45 38.7151 1227.08 36.7833 1226.09C34.8514 1225.1 32.742 1224.5 30.5773 1224.33L29.1992 1224.26Z" fill="#C6D7FF"/>
<path d="M9.95387 1059.15C9.72667 1061.91 8.68642 1064.54 6.96465 1066.71C5.24287 1068.87 2.91689 1070.48 0.280743 1071.33C-2.35541 1072.18 -5.18336 1072.22 -7.84554 1071.46C-10.5077 1070.7 -12.8846 1069.17 -14.6758 1067.06C-16.4669 1064.95 -17.5918 1062.35 -17.9082 1059.6C-18.2247 1056.85 -17.7185 1054.07 -16.4537 1051.6C-15.1889 1049.14 -13.2222 1047.11 -10.8023 1045.76C-8.38242 1044.42 -5.618 1043.82 -2.8585 1044.05C0.842218 1044.35 4.2701 1046.12 6.67233 1048.95C9.07457 1051.78 10.2548 1055.45 9.95387 1059.15Z" fill="#C6D7FF"/>
<path d="M13.9703 749.739C13.8243 751.512 13.1556 753.203 12.0487 754.597C10.9418 755.991 9.44657 757.025 7.75191 757.569C6.05724 758.113 4.23927 758.143 2.52786 757.654C0.816458 757.165 -0.711557 756.179 -1.86299 754.822C-3.01442 753.465 -3.73756 751.797 -3.94101 750.029C-4.14445 748.261 -3.81905 746.472 -3.00595 744.889C-2.19285 743.305 -0.928554 741.999 0.627089 741.134C2.18273 740.269 3.95986 739.885 5.73382 740.03C8.11285 740.227 10.3165 741.36 11.8608 743.18C13.4051 745.001 14.1638 747.359 13.9703 749.739Z" fill="#ECF2FF"/>
<path opacity="0.7" d="M29.1573 903.87H27.9139C25.9303 903.734 23.9933 903.206 22.2149 902.317C20.4365 901.427 18.8519 900.194 17.5526 898.689C16.2746 897.189 15.3073 895.451 14.707 893.574C14.1067 891.697 13.8853 889.72 14.0557 887.756C14.2972 884.854 15.3783 882.084 17.1672 879.786C18.9561 877.488 21.3753 875.76 24.1296 874.814C26.8838 873.867 29.854 873.744 32.6774 874.457C35.5008 875.171 38.0554 876.692 40.0293 878.833C42.0032 880.975 43.311 883.645 43.7931 886.517C44.2752 889.389 43.9106 892.34 42.744 895.009C41.5774 897.678 39.6592 899.949 37.2235 901.545C34.7878 903.142 31.94 903.995 29.0278 904L29.1573 903.87ZM29.1573 875.788C26.2113 875.802 23.3583 876.821 21.0691 878.676C18.7799 880.53 17.1914 883.11 16.5656 885.989C15.9398 888.868 16.3141 891.875 17.6269 894.513C18.9396 897.15 21.1123 899.262 23.7863 900.498C26.4604 901.735 29.4761 902.023 32.3357 901.314C35.1953 900.606 37.728 898.943 39.5158 896.601C41.3036 894.259 42.2396 891.378 42.1695 888.432C42.0994 885.487 41.0272 882.653 39.13 880.399C38.0244 879.089 36.6698 878.011 35.1447 877.228C33.6195 876.446 31.9542 875.973 30.2452 875.839L29.1573 875.788Z" fill="#9EBBFF"/>
<path d="M379.954 736.149C379.727 738.908 378.686 741.538 376.965 743.706C375.243 745.874 372.917 747.483 370.281 748.33C367.645 749.176 364.817 749.222 362.154 748.461C359.492 747.701 357.115 746.168 355.324 744.057C353.533 741.946 352.408 739.351 352.092 736.6C351.775 733.85 352.281 731.067 353.546 728.604C354.811 726.142 356.778 724.109 359.198 722.764C361.618 721.419 364.382 720.821 367.141 721.047C370.842 721.353 374.27 723.115 376.672 725.947C379.075 728.779 380.255 732.448 379.954 736.149Z" fill="#ECF2FF"/>
<path opacity="0.7" d="M590.262 644.784H588.19C584.884 644.557 581.655 643.677 578.691 642.195C575.727 640.712 573.086 638.657 570.921 636.148C568.791 633.649 567.179 630.751 566.178 627.623C565.178 624.495 564.809 621.199 565.093 617.927C565.495 613.09 567.297 608.474 570.279 604.643C573.26 600.813 577.292 597.933 581.883 596.356C586.473 594.779 591.423 594.573 596.129 595.762C600.835 596.952 605.092 599.486 608.382 603.055C611.672 606.624 613.852 611.074 614.655 615.862C615.459 620.649 614.851 625.567 612.907 630.015C610.962 634.463 607.765 638.248 603.706 640.909C599.646 643.57 594.9 644.992 590.046 645L590.262 644.784ZM590.262 597.979C585.352 598.004 580.597 599.701 576.782 602.793C572.967 605.884 570.319 610.183 569.276 614.982C568.233 619.781 568.857 624.792 571.045 629.188C573.233 633.584 576.854 637.103 581.311 639.164C585.767 641.225 590.793 641.704 595.56 640.523C600.326 639.343 604.547 636.572 607.526 632.669C610.506 628.766 612.066 623.963 611.949 619.054C611.832 614.145 610.045 609.422 606.883 605.665C605.041 603.481 602.783 601.685 600.241 600.38C597.699 599.076 594.924 598.289 592.075 598.065L590.262 597.979Z" fill="#C6D7FF"/>
<path d="M614.954 855.149C614.727 857.908 613.686 860.538 611.965 862.706C610.243 864.874 607.917 866.483 605.281 867.33C602.645 868.176 599.817 868.222 597.154 867.461C594.492 866.701 592.115 865.168 590.324 863.057C588.533 860.946 587.408 858.351 587.092 855.6C586.775 852.85 587.281 850.067 588.546 847.604C589.811 845.142 591.778 843.109 594.198 841.764C596.618 840.419 599.382 839.821 602.141 840.047C605.842 840.353 609.27 842.115 611.672 844.947C614.075 847.779 615.255 851.448 614.954 855.149Z" fill="#C6D7FF"/>
<path opacity="0.7" d="M764.231 779.81H762.407C759.498 779.61 756.657 778.836 754.048 777.531C751.44 776.227 749.116 774.419 747.211 772.211C745.336 770.011 743.917 767.461 743.037 764.708C742.156 761.956 741.832 759.055 742.082 756.176C742.436 751.919 744.022 747.857 746.645 744.486C749.269 741.115 752.817 738.581 756.857 737.193C760.896 735.806 765.252 735.624 769.394 736.671C773.535 737.718 777.281 739.948 780.176 743.089C783.071 746.229 784.989 750.145 785.697 754.358C786.404 758.571 785.869 762.899 784.158 766.813C782.447 770.727 779.633 774.058 776.061 776.4C772.489 778.742 768.312 779.993 764.041 780L764.231 779.81ZM764.231 738.622C759.91 738.643 755.725 740.137 752.368 742.857C749.011 745.578 746.681 749.361 745.763 753.584C744.845 757.807 745.394 762.217 747.319 766.085C749.245 769.954 752.431 773.051 756.353 774.864C760.275 776.678 764.698 777.1 768.892 776.061C773.086 775.022 776.801 772.583 779.423 769.149C782.045 765.714 783.418 761.488 783.315 757.168C783.212 752.847 781.64 748.691 778.857 745.385C777.236 743.463 775.249 741.883 773.012 740.735C770.775 739.587 768.333 738.894 765.826 738.698L764.231 738.622Z" fill="#9EBBFF"/>
<path d="M484.954 1261.15C484.727 1263.91 483.686 1266.54 481.965 1268.71C480.243 1270.87 477.917 1272.48 475.281 1273.33C472.645 1274.18 469.817 1274.22 467.154 1273.46C464.492 1272.7 462.115 1271.17 460.324 1269.06C458.533 1266.95 457.408 1264.35 457.092 1261.6C456.775 1258.85 457.281 1256.07 458.546 1253.6C459.811 1251.14 461.778 1249.11 464.198 1247.76C466.618 1246.42 469.382 1245.82 472.141 1246.05C475.842 1246.35 479.27 1248.12 481.672 1250.95C484.075 1253.78 485.255 1257.45 484.954 1261.15Z" fill="#C6D7FF"/>
</g>
<defs>
<clipPath id="clip0_149_559">
<rect width="768" height="1280" fill="white"/>
</clipPath>
</defs>
</svg>
