<svg width="24" height="24" viewBox="0 0 24 24" fill="none" xmlns="http://www.w3.org/2000/svg">
<path fill-rule="evenodd" clip-rule="evenodd" d="M7.27983 7.71995C7.42028 7.86058 7.49917 8.0512 7.49917 8.24995C7.49917 8.4487 7.42028 8.63932 7.27983 8.77995L4.80983 11.25H20.9998C21.1987 11.25 21.3895 11.329 21.5302 11.4696C21.6708 11.6103 21.7498 11.801 21.7498 12C21.7498 12.1989 21.6708 12.3896 21.5302 12.5303C21.3895 12.6709 21.1987 12.75 20.9998 12.75H4.80983L7.27983 15.22C7.35352 15.2886 7.41262 15.3714 7.45361 15.4634C7.4946 15.5554 7.51664 15.6547 7.51842 15.7554C7.5202 15.8561 7.50167 15.9562 7.46395 16.0495C7.42623 16.1429 7.37009 16.2278 7.29887 16.299C7.22765 16.3702 7.14281 16.4264 7.04943 16.4641C6.95604 16.5018 6.85601 16.5203 6.75531 16.5185C6.6546 16.5168 6.55529 16.4947 6.46329 16.4537C6.37129 16.4127 6.28849 16.3536 6.21983 16.28L2.46983 12.53C2.32938 12.3893 2.25049 12.1987 2.25049 12C2.25049 11.8012 2.32938 11.6106 2.46983 11.47L6.21983 7.71995C6.36045 7.5795 6.55108 7.50061 6.74983 7.50061C6.94858 7.50061 7.1392 7.5795 7.27983 7.71995Z" fill="#2F2F2F"/>
</svg>
