<svg width="25" height="19" viewBox="0 0 25 19" xmlns="http://www.w3.org/2000/svg">
<path d="M24.4141 15.625C24.7363 15.625 25 15.8887 25 16.2109V18.1641C25 18.4863 24.7363 18.75 24.4141 18.75H0.585938C0.263672 18.75 0 18.4863 0 18.1641V0.585938C0 0.263672 0.263672 0 0.585938 0H2.53906C2.86133 0 3.125 0.263672 3.125 0.585938V15.625H24.4141ZM18.1982 4.66309L14.0625 7.42188L9.89746 1.87012C9.64844 1.53809 9.14063 1.5625 8.92578 1.91895L4.6875 8.98438V14.0625H23.4375L19.0479 4.89258C18.8916 4.5752 18.4912 4.46777 18.1982 4.66309Z" />
</svg>
