<svg width="280" height="208" viewBox="0 0 280 208" fill="none" xmlns="http://www.w3.org/2000/svg">
<g clip-path="url(#clip0_149_717)">
<path d="M140 208C199.966 208 248.578 205.171 248.578 201.681C248.578 198.191 199.966 195.362 140 195.362C80.0336 195.362 31.4214 198.191 31.4214 201.681C31.4214 205.171 80.0336 208 140 208Z" fill="#F5F5F5"/>
<path opacity="0.1" d="M76.8878 157.565C76.9551 157.062 77.2132 156.604 77.6091 156.285C78.005 155.966 78.5085 155.811 79.0158 155.851C83.8094 155.778 88.295 159.155 92.4558 162.778C93.3798 163.577 94.3822 164.403 95.4182 163.565C95.7387 163.301 95.9727 162.947 96.0902 162.549C96.2695 161.899 96.2695 161.213 96.0902 160.562C95.9361 160.025 95.6794 159.523 95.3342 159.083C93.5254 156.71 91.3246 155.572 89.5382 153.121C88.5376 151.717 87.7086 150.199 87.0686 148.599C86.5086 147.193 85.3886 144.921 85.8366 143.017C86.335 140.74 88.043 140.935 89.079 141.248C92.355 142.225 95.4126 144.552 98.1902 147.449C101.153 150.531 103.835 154.243 106.506 157.933C107.514 159.334 108.578 160.774 109.866 161.282C111.154 161.79 112.784 160.97 113.327 158.949C113.87 156.928 113.232 154.606 113.097 152.596C112.918 150.198 113.034 147.787 113.445 145.418C113.627 144.165 114.051 142.959 114.693 141.867C116.138 139.757 118.277 140.5 119.677 142.096C120.746 143.432 121.572 144.943 122.119 146.562C123.69 151.035 124.632 155.703 124.919 160.434C125.132 163.364 125.58 166.418 126.789 168.69C128.744 172.363 132.389 172.073 135.217 170.147C140.14 166.798 143.937 159.228 144.95 150.765C145.281 148.008 145.365 145.027 146.373 142.716C147.252 140.717 149.509 139.366 150.612 141.521C151.056 142.599 151.181 143.78 150.97 144.926C150.773 146.061 150.494 147.18 150.136 148.276C149.576 150.174 149.016 153.73 150.528 154.84C150.753 154.977 151.006 155.063 151.268 155.092C151.53 155.12 151.796 155.092 152.045 155.008C156.996 153.981 161.599 149.336 164.623 142.855C165.719 140.416 166.556 137.87 167.121 135.258C167.485 133.661 167.636 131.948 168.039 130.362C168.297 129.115 168.821 127.936 169.573 126.907C171.5 124.607 175.946 125.69 176.198 130.619C176.349 133.472 175.588 136.263 175.308 139.054C175.134 140.795 176.215 140.784 177.021 140.728C180.885 140.338 184.301 136.452 187.331 132.411C190.932 127.605 194.919 121.364 199.836 121.179C200.956 121.14 202.821 121.286 203.493 123.01C203.804 124.067 203.804 125.191 203.493 126.248C202.496 130.368 199.573 132.495 197.333 134.532C191.017 140.437 185.462 147.101 180.796 154.371C180.085 155.488 179.351 157.33 180.029 158.424C180.158 158.632 180.348 158.797 180.572 158.897C180.797 158.996 181.047 159.026 181.289 158.982C183.601 158.804 185.769 156.973 187.88 155.454C189.991 153.936 192.388 152.607 194.6 153.752C195.282 154.16 195.876 154.698 196.348 155.336C196.82 155.975 197.16 156.7 197.349 157.47C197.745 158.819 197.808 160.244 197.534 161.623C196.722 165.413 193.211 167.116 191.279 168.986C188.619 171.544 186.183 174.325 183.999 177.298C181.983 180.05 180.079 183.064 178.063 185.766C170.783 195.44 160.703 196.875 151.743 197.997C141.993 199.214 132.221 198.555 122.528 197.277C115.477 196.339 108.528 194.34 101.645 191.968C99.2822 191.114 96.9358 190.182 94.6174 189.076C92.1254 187.893 88.4574 187.162 87.4998 182.5C87.2982 181.496 87.5334 180.681 88.1998 180.307C90.2662 179.134 93.2118 180.703 95.155 181.736C97.8374 183.165 100.38 185.202 103.135 186.302C103.578 186.519 104.06 186.644 104.553 186.67C105.046 186.696 105.539 186.622 106.002 186.453C106.457 186.263 106.831 185.921 107.061 185.487C107.354 184.921 107.425 184.266 107.262 183.65C107.149 183.318 106.957 183.017 106.702 182.774C101.743 177.707 95.8178 173.68 89.275 170.928C87.175 170.03 85.0302 169.293 83.0086 168.02C81.3746 167.013 79.9644 165.683 78.8646 164.112C77.9238 162.611 76.4118 159.959 76.8878 157.565Z" fill="#407BFF"/>
<path opacity="0.1" d="M183.999 116.529C183.625 116.916 183.135 117.17 182.602 117.254C182.07 117.338 181.525 117.247 181.049 116.995C180.573 116.743 180.193 116.343 179.965 115.856C179.738 115.369 179.676 114.822 179.788 114.296C181.72 104.946 185.92 98.147 190.915 101.675C194.645 104.304 188.798 111.556 183.999 116.529Z" fill="#407BFF"/>
<path opacity="0.3" d="M170.447 120.895C171.975 120.054 173.27 118.849 174.217 117.388C175.164 115.927 175.733 114.255 175.874 112.521L179.659 66.5515C179.856 64.1885 179.554 61.8106 178.774 59.5707C177.994 57.3307 176.752 55.2782 175.129 53.5449L163.464 41.0909C162.822 40.4022 162.331 39.5881 162.022 38.7002C161.712 37.8123 161.591 36.8699 161.667 35.9329L162.227 29.2007L132.037 26.7278L131.477 33.46C131.4 34.3966 131.127 35.3069 130.677 36.1326C130.227 36.9583 129.608 37.6812 128.862 38.2551L115.31 48.6548C113.426 50.1022 111.866 51.9258 110.73 54.0088C109.594 56.0919 108.907 58.3885 108.713 60.7516L104.922 106.721C104.778 108.453 105.067 110.193 105.762 111.786C106.456 113.38 107.536 114.777 108.903 115.854C107.376 116.694 106.081 117.899 105.135 119.36C104.189 120.821 103.621 122.494 103.482 124.227L98.6497 182.841C98.422 185.627 99.3133 188.39 101.128 190.522C102.942 192.654 105.531 193.981 108.327 194.212L158.167 198.292C159.551 198.406 160.944 198.247 162.266 197.824C163.588 197.402 164.814 196.723 165.874 195.828C166.933 194.933 167.805 193.838 168.44 192.607C169.075 191.376 169.46 190.032 169.574 188.652L174.407 130.038C174.554 128.307 174.27 126.566 173.579 124.971C172.889 123.375 171.813 121.975 170.447 120.895Z" fill="#407BFF"/>
<path opacity="0.3" d="M132.045 26.7382L131.617 31.929L161.8 34.4026L162.228 29.2118L132.045 26.7382Z" fill="#407BFF"/>
<path opacity="0.3" d="M174.849 54.7452L163.184 42.28C163.184 42.28 155.663 42.6038 161.504 51.7978C166.482 59.5738 175.157 58.3625 174.849 54.7452Z" fill="white"/>
<path opacity="0.2" d="M98.6551 182.819C98.4274 185.605 99.3186 188.368 101.133 190.5C102.947 192.632 105.537 193.959 108.332 194.19L158.172 198.27C159.556 198.384 160.949 198.225 162.271 197.802C163.594 197.379 164.82 196.701 165.879 195.806C166.938 194.91 167.81 193.816 168.445 192.585C169.08 191.353 169.465 190.009 169.579 188.63L98.6551 182.819Z" fill="#407BFF"/>
<path opacity="0.3" d="M172.67 55.8225C173.973 57.2149 174.97 58.8632 175.596 60.6617C176.223 62.4602 176.466 64.3693 176.31 66.2669L172.525 112.242C172.426 113.424 172.036 114.563 171.39 115.559C170.743 116.554 169.859 117.375 168.818 117.947L164.41 120.381L168.358 123.502C169.293 124.236 170.03 125.189 170.505 126.276C170.98 127.363 171.177 128.55 171.08 129.731L166.247 188.345C166.092 190.244 165.186 192.005 163.73 193.24C162.274 194.475 160.386 195.083 158.48 194.932L108.64 190.851C107.694 190.777 106.771 190.517 105.925 190.087C105.08 189.657 104.327 189.065 103.711 188.345C103.095 187.625 102.627 186.791 102.334 185.89C102.041 184.99 101.929 184.041 102.004 183.098L106.837 124.484C106.933 123.302 107.322 122.161 107.968 121.165C108.614 120.169 109.497 119.347 110.538 118.773L114.946 116.34L111.026 113.219C110.092 112.485 109.354 111.532 108.879 110.445C108.404 109.358 108.207 108.171 108.304 106.989L112.095 61.0196C112.252 59.1218 112.805 57.2777 113.719 55.6051C114.632 53.9326 115.885 52.4685 117.398 51.3065C121.878 48.4204 133.638 55.6048 147.409 56.7324C161.179 57.86 169.792 54.3767 172.67 55.8225Z" fill="#407BFF"/>
<path opacity="0.2" d="M147.381 56.738C133.616 55.6216 121.845 48.4205 117.365 51.3065C125.205 55.6048 134.165 58.2676 147.162 59.3338C160.16 60.4 172.67 55.8225 172.67 55.8225C169.792 54.3767 161.146 57.8712 147.381 56.738Z" fill="#407BFF"/>
<path opacity="0.2" d="M104.927 106.721C104.784 108.453 105.072 110.193 105.767 111.786C106.461 113.38 107.541 114.777 108.909 115.854L170.447 120.878C171.975 120.037 173.27 118.833 174.217 117.372C175.164 115.911 175.733 114.238 175.873 112.505L104.927 106.721Z" fill="#407BFF"/>
<path d="M162.859 20.9789L132.761 18.5045C131.5 18.4009 130.394 19.3357 130.291 20.5924L129.691 27.8918C129.587 29.1486 130.526 30.2514 131.786 30.355L161.885 32.8293C163.146 32.933 164.251 31.9982 164.355 30.7415L164.955 23.4421C165.058 22.1853 164.12 21.0825 162.859 20.9789Z" fill="#407BFF"/>
<path opacity="0.2" d="M133.313 29.2286C133.276 29.2258 133.241 29.2157 133.208 29.199C133.175 29.1823 133.145 29.1593 133.122 29.1313C133.098 29.1033 133.079 29.0708 133.068 29.0358C133.057 29.0008 133.053 28.9638 133.056 28.9272L133.761 20.0961C133.767 20.022 133.802 19.9534 133.859 19.9052C133.916 19.8571 133.989 19.8333 134.064 19.8393C134.138 19.8452 134.207 19.8803 134.255 19.9368C134.303 19.9933 134.327 20.0667 134.321 20.1407L133.593 28.9662C133.589 29.0373 133.558 29.1041 133.506 29.1529C133.453 29.2016 133.385 29.2287 133.313 29.2286Z" fill="white"/>
<path opacity="0.2" d="M138.773 29.6753C138.736 29.6725 138.701 29.6625 138.668 29.6458C138.635 29.6291 138.605 29.6061 138.581 29.578C138.558 29.55 138.539 29.5176 138.528 29.4825C138.517 29.4475 138.513 29.4106 138.516 29.3739L139.244 20.5484C139.251 20.4748 139.286 20.4069 139.343 20.359C139.399 20.3111 139.472 20.2869 139.546 20.2916C139.583 20.2944 139.618 20.3044 139.651 20.3212C139.684 20.338 139.712 20.3611 139.736 20.3892C139.759 20.4173 139.777 20.4498 139.788 20.4849C139.798 20.5199 139.802 20.5566 139.798 20.593L139.053 29.4186C139.046 29.4882 139.014 29.5528 138.962 29.6002C138.911 29.6476 138.843 29.6743 138.773 29.6753Z" fill="white"/>
<path opacity="0.2" d="M144.228 30.1443C144.191 30.1415 144.155 30.1314 144.122 30.1147C144.089 30.098 144.06 30.075 144.036 30.047C144.012 30.019 143.994 29.9865 143.983 29.9515C143.971 29.9165 143.967 29.8795 143.97 29.8429L144.698 21.0173C144.707 20.9443 144.743 20.8772 144.799 20.8296C144.855 20.7819 144.927 20.7572 145.001 20.7605C145.037 20.7634 145.073 20.7734 145.106 20.7901C145.139 20.8068 145.168 20.8298 145.192 20.8578C145.216 20.8859 145.234 20.9183 145.246 20.9534C145.257 20.9884 145.261 21.0253 145.258 21.062L144.53 29.8875C144.527 29.9242 144.517 29.96 144.501 29.9928C144.484 30.0256 144.461 30.0548 144.433 30.0786C144.404 30.1025 144.372 30.1206 144.337 30.1319C144.302 30.1431 144.265 30.1474 144.228 30.1443Z" fill="white"/>
<path opacity="0.2" d="M149.688 30.5684C149.651 30.5656 149.615 30.5555 149.582 30.5388C149.549 30.5221 149.52 30.4991 149.496 30.4711C149.472 30.4431 149.454 30.4106 149.443 30.3756C149.431 30.3406 149.427 30.3036 149.43 30.267L150.158 21.4414C150.165 21.3679 150.201 21.3 150.257 21.2521C150.314 21.2041 150.387 21.18 150.461 21.1847C150.497 21.1874 150.533 21.1975 150.565 21.2143C150.598 21.2311 150.627 21.2542 150.65 21.2823C150.674 21.3104 150.692 21.3429 150.702 21.3779C150.713 21.4129 150.716 21.4497 150.713 21.4861L149.985 30.3116C149.982 30.3481 149.973 30.3837 149.957 30.4165C149.941 30.4493 149.918 30.4785 149.89 30.5024C149.863 30.5263 149.831 30.5445 149.796 30.5558C149.761 30.5672 149.724 30.5714 149.688 30.5684Z" fill="white"/>
<path opacity="0.2" d="M155.12 31.015C155.083 31.0122 155.047 31.0021 155.014 30.9854C154.981 30.9687 154.952 30.9457 154.928 30.9177C154.904 30.8897 154.886 30.8572 154.875 30.8222C154.863 30.7871 154.859 30.7502 154.862 30.7135L155.59 21.888C155.6 21.8155 155.636 21.7492 155.692 21.7017C155.748 21.6543 155.819 21.6292 155.893 21.6312C155.93 21.634 155.965 21.6441 155.998 21.6608C156.031 21.6775 156.06 21.7005 156.084 21.7285C156.108 21.7565 156.126 21.789 156.138 21.824C156.149 21.8591 156.153 21.896 156.15 21.9327L155.422 30.7582C155.42 30.7952 155.411 30.8313 155.394 30.8645C155.378 30.8976 155.355 30.9271 155.326 30.9511C155.298 30.9751 155.265 30.9932 155.23 31.0042C155.194 31.0151 155.157 31.0188 155.12 31.015Z" fill="white"/>
<path opacity="0.2" d="M160.602 31.4617C160.566 31.4589 160.53 31.4488 160.497 31.4321C160.464 31.4154 160.435 31.3924 160.411 31.3644C160.387 31.3364 160.369 31.3039 160.357 31.2689C160.346 31.2338 160.342 31.1969 160.345 31.1602L161.05 22.3291C161.057 22.2556 161.093 22.1877 161.149 22.1398C161.206 22.0918 161.279 22.0677 161.353 22.0724C161.426 22.0794 161.494 22.1151 161.541 22.1715C161.588 22.2279 161.611 22.3006 161.605 22.3738L160.882 31.2049C160.875 31.2745 160.843 31.3392 160.791 31.3865C160.74 31.4339 160.672 31.4607 160.602 31.4617Z" fill="white"/>
<path opacity="0.2" d="M114.24 91.3647C113.389 86.6701 106.529 87.005 106.137 91.7555L104.905 106.721C104.761 108.453 105.05 110.193 105.744 111.786C106.439 113.38 107.518 114.777 108.886 115.854C107.359 116.694 106.064 117.899 105.118 119.36C104.172 120.821 103.604 122.494 103.465 124.227L98.6326 182.841C98.4049 185.628 99.2962 188.39 101.111 190.522C102.925 192.655 105.514 193.982 108.309 194.212L121.189 195.267C122.608 195.383 124.035 195.172 125.359 194.651C126.684 194.13 127.87 193.312 128.827 192.261C129.784 191.21 130.485 189.954 130.878 188.59C131.27 187.225 131.343 185.79 131.09 184.393L114.24 91.3647Z" fill="#407BFF"/>
<path opacity="0.3" d="M163.8 168.115C163.711 169.191 163.304 170.217 162.631 171.062C161.957 171.908 161.047 172.535 160.016 172.865C158.985 173.195 157.878 173.213 156.837 172.916C155.796 172.62 154.866 172.022 154.165 171.199C153.464 170.375 153.024 169.364 152.901 168.291C152.777 167.218 152.975 166.133 153.47 165.173C153.964 164.213 154.734 163.42 155.68 162.895C156.627 162.371 157.708 162.138 158.788 162.226C160.236 162.345 161.576 163.032 162.516 164.137C163.456 165.241 163.918 166.672 163.8 168.115Z" fill="#407BFF"/>
<path opacity="0.3" d="M146.389 146.975C146.327 147.737 146.039 148.463 145.563 149.061C145.087 149.66 144.443 150.104 143.713 150.338C142.983 150.572 142.201 150.585 141.463 150.375C140.726 150.165 140.068 149.742 139.572 149.16C139.076 148.577 138.765 147.861 138.677 147.102C138.59 146.343 138.73 145.575 139.08 144.895C139.43 144.216 139.975 143.655 140.645 143.284C141.315 142.913 142.081 142.748 142.845 142.811C143.868 142.896 144.816 143.382 145.48 144.163C146.145 144.943 146.472 145.955 146.389 146.975Z" fill="#407BFF"/>
<path opacity="0.3" d="M130.189 99.9223C129.423 99.9578 128.665 99.7665 128.009 99.3724C127.352 98.9783 126.828 98.3992 126.502 97.7082C126.176 97.0172 126.063 96.2454 126.176 95.4902C126.29 94.735 126.626 94.0304 127.141 93.4653C127.656 92.9002 128.328 92.5001 129.071 92.3154C129.815 92.1307 130.596 92.1697 131.317 92.4276C132.038 92.6855 132.666 93.1506 133.122 93.7643C133.578 94.3779 133.842 95.1125 133.879 95.8752C133.904 96.3826 133.828 96.8899 133.656 97.3681C133.484 97.8463 133.219 98.286 132.876 98.6619C132.533 99.0378 132.119 99.3426 131.658 99.5589C131.197 99.7752 130.698 99.8987 130.189 99.9223Z" fill="#407BFF"/>
<path opacity="0.3" d="M140.756 76.8285C140.213 76.8556 139.675 76.7215 139.209 76.4433C138.743 76.1652 138.37 75.7554 138.138 75.266C137.906 74.7765 137.824 74.2293 137.904 73.6938C137.984 73.1583 138.222 72.6585 138.587 72.2577C138.952 71.8568 139.429 71.5731 139.956 71.4423C140.483 71.3115 141.037 71.3396 141.548 71.523C142.059 71.7064 142.504 72.0369 142.827 72.4726C143.149 72.9083 143.335 73.4295 143.36 73.9704C143.393 74.6933 143.138 75.3999 142.65 75.9356C142.162 76.4713 141.481 76.7924 140.756 76.8285Z" fill="#407BFF"/>
<path opacity="0.3" d="M157.758 130.278C157.731 130.593 157.612 130.892 157.415 131.139C157.217 131.386 156.951 131.569 156.65 131.665C156.348 131.761 156.025 131.766 155.721 131.679C155.416 131.593 155.145 131.418 154.94 131.177C154.735 130.936 154.607 130.641 154.571 130.327C154.534 130.014 154.592 129.697 154.737 129.416C154.881 129.135 155.106 128.904 155.382 128.75C155.659 128.597 155.975 128.528 156.29 128.554C156.714 128.589 157.106 128.791 157.381 129.114C157.656 129.437 157.792 129.856 157.758 130.278Z" fill="#407BFF"/>
<path opacity="0.7" d="M128.75 173.954H128.481C128.052 173.925 127.633 173.811 127.249 173.619C126.864 173.427 126.522 173.162 126.241 172.837C125.964 172.514 125.755 172.14 125.626 171.735C125.496 171.331 125.448 170.905 125.485 170.482C125.537 169.856 125.771 169.26 126.157 168.764C126.544 168.269 127.067 167.897 127.663 167.693C128.258 167.489 128.9 167.462 129.511 167.616C130.121 167.77 130.673 168.098 131.1 168.559C131.527 169.02 131.809 169.596 131.914 170.215C132.018 170.834 131.939 171.469 131.687 172.044C131.435 172.619 131.02 173.109 130.493 173.453C129.967 173.797 129.351 173.981 128.722 173.982L128.75 173.954ZM128.75 167.903C128.113 167.906 127.496 168.125 127.001 168.525C126.506 168.925 126.163 169.481 126.027 170.101C125.892 170.721 125.973 171.369 126.257 171.938C126.541 172.506 127.01 172.961 127.588 173.227C128.166 173.494 128.818 173.556 129.437 173.403C130.055 173.25 130.602 172.892 130.989 172.388C131.375 171.883 131.578 171.262 131.563 170.627C131.547 169.993 131.316 169.382 130.906 168.896C130.666 168.614 130.374 168.382 130.044 168.213C129.714 168.045 129.354 167.943 128.985 167.914L128.75 167.903Z" fill="white"/>
<path opacity="0.7" d="M163.385 108.631H163.189C162.567 108.579 161.991 108.284 161.587 107.81C161.183 107.336 160.984 106.722 161.033 106.102C161.085 105.481 161.381 104.906 161.858 104.503C162.335 104.1 162.953 103.902 163.576 103.953C164.198 104.004 164.774 104.299 165.178 104.773C165.582 105.247 165.781 105.861 165.732 106.481C165.679 107.102 165.383 107.678 164.909 108.084C164.482 108.44 163.942 108.634 163.385 108.631ZM161.453 106.124C161.425 106.504 161.511 106.883 161.698 107.215C161.886 107.546 162.168 107.815 162.508 107.987C162.849 108.159 163.233 108.228 163.612 108.183C163.991 108.139 164.349 107.984 164.64 107.737C164.834 107.573 164.994 107.373 165.11 107.147C165.227 106.921 165.297 106.675 165.318 106.422C165.339 106.169 165.31 105.914 165.232 105.672C165.154 105.431 165.029 105.207 164.864 105.013C164.693 104.825 164.486 104.673 164.255 104.566C164.024 104.458 163.774 104.398 163.52 104.388C163.266 104.367 163.011 104.395 162.769 104.473C162.527 104.55 162.302 104.674 162.108 104.838C161.914 105.002 161.754 105.202 161.638 105.428C161.522 105.653 161.451 105.899 161.431 106.152L161.453 106.124Z" fill="white"/>
<path opacity="0.7" d="M127.204 59.1382H127.12C126.831 59.1099 126.564 58.9706 126.376 58.7498C126.188 58.529 126.093 58.244 126.112 57.9549C126.126 57.7378 126.203 57.5295 126.335 57.3557C126.466 57.1819 126.646 57.0502 126.851 56.9767C127.057 56.9032 127.279 56.8912 127.491 56.9421C127.704 56.9931 127.896 57.1047 128.046 57.2633C128.195 57.422 128.295 57.6207 128.333 57.835C128.37 58.0494 128.344 58.27 128.258 58.4698C128.171 58.6696 128.028 58.8398 127.846 58.9596C127.663 59.0793 127.45 59.1434 127.232 59.1438L127.204 59.1382ZM126.526 57.9884C126.516 58.1214 126.545 58.2545 126.61 58.3709C126.675 58.4874 126.774 58.582 126.893 58.6428C127.012 58.7037 127.146 58.728 127.279 58.7127C127.412 58.6974 127.538 58.6433 127.64 58.557C127.742 58.4708 127.816 58.3564 127.853 58.2282C127.89 58.1 127.888 57.9637 127.847 57.8366C127.807 57.7096 127.729 57.5973 127.625 57.5141C127.52 57.4308 127.393 57.3803 127.26 57.3688C127.171 57.3604 127.081 57.3699 126.995 57.3966C126.91 57.4234 126.83 57.4669 126.762 57.5246C126.694 57.5824 126.638 57.6531 126.597 57.7328C126.557 57.8124 126.532 57.8993 126.526 57.9884Z" fill="white"/>
<path opacity="0.7" d="M151.967 88.0488H151.732C151.363 88.02 151.004 87.9187 150.675 87.7507C150.346 87.5827 150.053 87.3514 149.814 87.0701C149.575 86.7888 149.394 86.463 149.282 86.1117C149.17 85.7604 149.129 85.3905 149.162 85.0233C149.209 84.4843 149.413 83.9707 149.748 83.5451C150.084 83.1196 150.536 82.8003 151.05 82.6262C151.564 82.4521 152.117 82.4307 152.643 82.5645C153.169 82.6984 153.645 82.9818 154.012 83.3801C154.38 83.7785 154.623 84.2748 154.712 84.8085C154.802 85.3421 154.734 85.8903 154.517 86.3861C154.299 86.882 153.942 87.3042 153.488 87.6014C153.035 87.8986 152.504 88.0579 151.962 88.06L151.967 88.0488ZM151.967 82.8574C151.404 82.8549 150.857 83.0528 150.427 83.4156C149.944 83.8234 149.642 84.4054 149.587 85.0344C149.556 85.4247 149.621 85.8168 149.777 86.1759C149.934 86.535 150.177 86.8502 150.485 87.0935C150.792 87.3369 151.156 87.5009 151.542 87.5711C151.928 87.6412 152.326 87.6154 152.7 87.4959C153.074 87.3764 153.413 87.1669 153.687 86.8859C153.96 86.6049 154.16 86.261 154.269 85.8847C154.377 85.5083 154.391 85.1112 154.309 84.7282C154.227 84.3453 154.052 83.9884 153.798 83.6891C153.596 83.4496 153.347 83.2528 153.067 83.11C152.788 82.9672 152.482 82.8813 152.169 82.8574H151.967Z" fill="white"/>
<path opacity="0.3" d="M174.938 112.454L178.556 68.617C178.579 68.337 178.546 68.0551 178.46 67.7876C178.374 67.5201 178.235 67.2722 178.053 67.0581C177.87 66.844 177.647 66.6678 177.396 66.5397C177.145 66.4116 176.871 66.3341 176.59 66.3116C176.31 66.2879 176.027 66.3197 175.759 66.4051C175.49 66.4906 175.242 66.628 175.027 66.8096C174.812 66.9911 174.635 67.2131 174.506 67.463C174.378 67.7128 174.3 67.9855 174.277 68.2653L170.66 112.103C170.542 113.56 170.064 114.965 169.267 116.193C168.471 117.42 167.381 118.432 166.096 119.136L163.895 120.359L165.872 121.916C167.024 122.821 167.934 123.996 168.52 125.336C169.106 126.676 169.351 128.14 169.232 129.597L164.399 188.211C164.108 191.728 161.89 193.442 158.771 194.809C158.573 194.898 158.41 195.049 158.308 195.239C158.206 195.43 158.17 195.649 158.205 195.862C158.241 196.075 158.347 196.271 158.506 196.418C158.665 196.564 158.869 196.654 159.085 196.674C161.436 196.865 163.766 196.118 165.565 194.597C167.364 193.077 168.483 190.906 168.677 188.563L173.51 129.949C173.63 128.492 173.386 127.028 172.8 125.687C172.213 124.347 171.303 123.172 170.15 122.268L168.173 120.705L170.374 119.488C171.658 118.782 172.747 117.771 173.544 116.543C174.34 115.316 174.819 113.911 174.938 112.454Z" fill="white"/>
<path opacity="0.3" d="M233.066 180.58C232.462 177.845 224.913 179.464 223.35 179.715C220.315 180.264 217.343 181.119 214.48 182.266C211.327 183.5 207.665 185.314 204.4 183.438C202.513 182.355 209.065 180.217 209.658 179.999C212.443 179.024 215.131 177.795 217.689 176.326C218.725 175.712 220.729 174.244 219.867 172.754C219.15 171.52 216.58 171.637 215.017 171.827C210.283 172.405 205.639 173.566 201.191 175.282C196.865 176.996 192.63 178.928 188.501 181.071C186.902 181.971 185.162 182.595 183.355 182.919C181.384 183.198 178.97 182.779 178.192 181.691C177.413 180.602 178.416 179.33 178.645 178.235C178.97 176.927 178.834 175.548 178.259 174.328C177.878 173.51 177.239 172.84 176.439 172.419C174.305 171.302 171.08 171.715 168.935 172.597C167.545 173.184 166.275 174.02 165.189 175.065C163 177.096 161.464 179.728 160.776 182.629C160.603 183.537 160.251 184.403 159.742 185.176C159.233 185.949 158.575 186.614 157.808 187.134C154.806 189.149 149.307 189.032 145.101 188.021C137.76 186.285 132.16 182.227 130.81 177.644C130.155 175.461 129.836 173.178 126.89 172.324C124.986 171.766 120.999 172.156 121.85 174.557C122.159 175.215 122.563 175.824 123.049 176.365C123.827 177.387 124.656 179.313 122.343 179.932C121.594 180.091 120.825 180.129 120.064 180.044C112.627 179.547 105.784 177.074 101.349 173.591C99.9025 172.459 98.6765 171.072 97.7311 169.499C97.2047 168.634 97.0143 167.702 96.4375 166.848C95.8864 166.026 95.1084 165.38 94.1975 164.989C91.3415 163.766 84.6327 164.403 84.1623 167.082C83.9103 168.534 84.8175 170.108 85.2823 171.487C85.3657 171.66 85.3855 171.858 85.3383 172.045C85.2039 172.396 84.6719 172.497 84.2183 172.525C78.2207 172.921 72.4023 170.599 67.3679 168.176C62.0367 165.608 56.1679 162.265 48.7591 162.226C47.2271 162.156 45.6938 162.331 44.2175 162.745C43.8437 162.844 43.496 163.023 43.1983 163.269C43.0172 163.457 42.897 163.695 42.853 163.952C42.8091 164.209 42.8435 164.473 42.9519 164.71C43.1923 165.201 43.55 165.627 43.9935 165.949C46.2335 167.769 49.3695 168.506 52.2311 169.443C60.7213 172.187 68.9306 175.729 76.7479 180.022C77.5375 180.463 78.9375 181.484 77.8287 182.255C76.7199 183.025 74.4687 182.528 73.1415 182.311C70.7335 181.92 68.4207 181.295 66.0743 180.708C62.9719 179.927 59.3543 179.218 55.9943 179.865C54.2191 180.206 52.6343 180.932 51.7999 181.914C51.5123 182.202 51.3229 182.572 51.2586 182.973C51.1943 183.374 51.2582 183.785 51.4415 184.147C52.5951 186.196 57.8535 187.078 60.7263 188.055C64.4045 189.306 68.0011 190.785 71.4951 192.481C74.4799 193.955 77.2519 195.568 80.2759 197.014C91.0783 202.178 106.165 202.842 119.655 203.344C134.299 203.903 149.01 203.428 163.615 202.619C174.255 202.027 184.699 200.86 195.126 199.487C198.122 199.096 201.101 198.616 204.086 198.209C207.116 197.863 210.113 197.271 213.046 196.439C214.1 196.171 215.084 195.68 215.93 194.999C216.731 194.257 216.983 193.285 215.549 193.006C212.548 192.409 209.457 193.09 206.522 193.62C203.229 194.223 199.967 194.917 196.733 195.702C195.26 196.094 193.764 196.398 192.253 196.612C190.736 196.825 189.19 196.726 187.712 196.322C187.23 196.171 186.704 195.903 186.676 195.479C186.648 195.055 187.051 194.787 187.465 194.625C193.508 192.236 199.925 190.717 206.388 189.322C210.773 188.373 215.236 187.792 219.654 187.05C223.681 186.374 227.925 186.218 231.414 183.673C232.109 183.226 232.648 182.577 232.96 181.814C233.111 181.421 233.148 180.993 233.066 180.58Z" fill="#407BFF"/>
<path opacity="0.3" d="M59.7799 157.977C58.1391 153.327 52.2927 145.094 51.0607 149.956C50.3999 152.685 59.7799 157.977 59.7799 157.977Z" fill="#407BFF"/>
<path opacity="0.3" d="M206.601 167.132C209.725 164.291 213.623 162.6 214.127 165.1C214.597 167.467 206.601 167.132 206.601 167.132Z" fill="#407BFF"/>
<path opacity="0.3" d="M78.4001 144.535C76.2609 143.419 74.5921 141.627 75.8465 140.879C77.1009 140.131 78.4001 144.535 78.4001 144.535Z" fill="#407BFF"/>
</g>
<defs>
<clipPath id="clip0_149_717">
<rect width="280" height="208" fill="white"/>
</clipPath>
</defs>
</svg>
