<svg width="280" height="210" viewBox="0 0 280 210" fill="none" xmlns="http://www.w3.org/2000/svg">
<g clip-path="url(#clip0_149_657)">
<path d="M140 210C199.966 210 248.579 207.144 248.579 203.62C248.579 200.097 199.966 197.24 140 197.24C80.0341 197.24 31.4219 200.097 31.4219 203.62C31.4219 207.144 80.0341 210 140 210Z" fill="#F5F5F5"/>
<path opacity="0.1" d="M76.8883 159.079C76.9555 158.572 77.2137 158.109 77.6096 157.787C78.0055 157.465 78.509 157.309 79.0163 157.349C83.8099 157.276 88.2955 160.686 92.4563 164.343C93.3803 165.149 94.3827 165.983 95.4187 165.138C95.7392 164.871 95.9732 164.514 96.0907 164.112C96.2699 163.456 96.2699 162.763 96.0907 162.106C95.9366 161.564 95.6799 161.057 95.3347 160.612C93.5259 158.217 91.3251 157.067 89.5387 154.593C88.5381 153.176 87.7091 151.643 87.0691 150.028C86.5091 148.608 85.3891 146.314 85.8371 144.392C86.3355 142.093 88.0435 142.29 89.0795 142.606C92.3555 143.592 95.4131 145.942 98.1907 148.867C101.153 151.978 103.836 155.726 106.507 159.451C107.515 160.866 108.579 162.32 109.867 162.833C111.155 163.346 112.784 162.517 113.328 160.477C113.871 158.437 113.232 156.092 113.098 154.063C112.918 151.642 113.035 149.208 113.445 146.816C113.627 145.551 114.051 144.334 114.694 143.231C116.139 141.101 118.278 141.85 119.678 143.462C120.747 144.811 121.573 146.336 122.12 147.971C123.69 152.487 124.633 157.2 124.92 161.976C125.132 164.935 125.58 168.018 126.79 170.312C128.744 174.02 132.39 173.727 135.218 171.783C140.14 168.401 143.937 160.759 144.951 152.215C145.281 149.431 145.365 146.421 146.373 144.088C147.252 142.07 149.509 140.706 150.612 142.882C151.057 143.97 151.181 145.163 150.971 146.32C150.773 147.465 150.494 148.596 150.136 149.701C149.576 151.617 149.016 155.208 150.528 156.329C150.754 156.467 151.006 156.554 151.269 156.583C151.531 156.612 151.796 156.583 152.046 156.498C156.996 155.461 161.6 150.772 164.624 144.229C165.719 141.766 166.556 139.196 167.121 136.558C167.485 134.946 167.636 133.216 168.04 131.616C168.298 130.356 168.821 129.166 169.574 128.127C171.5 125.805 175.947 126.898 176.199 131.875C176.35 134.755 175.588 137.573 175.308 140.391C175.135 142.149 176.216 142.138 177.022 142.082C180.886 141.687 184.302 137.764 187.332 133.684C190.932 128.831 194.92 122.531 199.836 122.345C200.956 122.305 202.821 122.452 203.493 124.193C203.805 125.26 203.805 126.395 203.493 127.462C202.496 131.621 199.573 133.769 197.333 135.826C191.018 141.787 185.463 148.515 180.796 155.856C180.085 156.983 179.352 158.843 180.029 159.947C180.159 160.158 180.348 160.324 180.573 160.424C180.798 160.525 181.047 160.555 181.289 160.511C183.602 160.331 185.769 158.482 187.88 156.949C189.992 155.416 192.388 154.075 194.6 155.23C195.282 155.642 195.876 156.186 196.348 156.83C196.82 157.474 197.161 158.206 197.35 158.984C197.745 160.346 197.809 161.784 197.535 163.177C196.723 167.004 193.212 168.723 191.28 170.611C188.619 173.193 186.184 176.001 184 179.002C181.984 181.781 180.08 184.824 178.064 187.552C170.784 197.319 160.704 198.768 151.744 199.9C141.994 201.129 132.222 200.464 122.528 199.173C115.478 198.227 108.528 196.209 101.646 193.814C99.2827 192.951 96.9363 192.01 94.6179 190.894C92.1259 189.699 88.4579 188.961 87.5003 184.255C87.2987 183.241 87.5339 182.418 88.2003 182.04C90.2667 180.857 93.2123 182.44 95.1555 183.483C97.8379 184.926 100.38 186.983 103.136 188.093C103.578 188.312 104.061 188.439 104.554 188.465C105.046 188.491 105.539 188.416 106.003 188.245C106.457 188.053 106.831 187.709 107.061 187.27C107.354 186.699 107.426 186.038 107.263 185.416C107.149 185.08 106.957 184.777 106.703 184.531C101.743 179.416 95.8183 175.35 89.2755 172.572C87.1755 171.664 85.0307 170.921 83.0091 169.636C81.3751 168.618 79.9649 167.276 78.8651 165.69C77.9243 164.174 76.4123 161.497 76.8883 159.079Z" fill="#407BFF"/>
<path opacity="0.1" d="M183.999 117.65C183.625 118.04 183.135 118.297 182.602 118.382C182.07 118.467 181.525 118.375 181.049 118.12C180.573 117.865 180.193 117.462 179.965 116.97C179.738 116.479 179.676 115.926 179.788 115.395C181.72 105.955 185.92 99.0907 190.915 102.653C194.645 105.307 188.798 112.628 183.999 117.65Z" fill="#407BFF"/>
<path opacity="0.3" d="M170.447 122.057C171.975 121.209 173.27 119.992 174.217 118.517C175.163 117.042 175.733 115.354 175.873 113.603L179.659 67.1915C179.855 64.8057 179.554 62.405 178.773 60.1435C177.993 57.882 176.752 55.8098 175.128 54.0598L163.464 41.4861C162.822 40.7908 162.331 39.9689 162.021 39.0724C161.712 38.1759 161.591 37.2245 161.666 36.2785L162.226 29.4816L132.036 26.9849L131.476 33.7818C131.399 34.7274 131.127 35.6465 130.676 36.4801C130.226 37.3137 129.608 38.0436 128.861 38.623L115.309 49.1228C113.425 50.584 111.865 52.4251 110.729 54.5282C109.593 56.6313 108.906 58.95 108.712 61.3358L104.921 107.748C104.778 109.496 105.066 111.252 105.761 112.861C106.456 114.47 107.535 115.881 108.903 116.968C107.375 117.816 106.08 119.032 105.134 120.508C104.188 121.983 103.621 123.671 103.482 125.422L98.6492 184.599C98.4215 187.412 99.3128 190.202 101.127 192.354C102.942 194.507 105.531 195.847 108.326 196.079L158.166 200.199C159.55 200.314 160.943 200.154 162.266 199.727C163.588 199.3 164.814 198.615 165.873 197.711C166.932 196.807 167.804 195.702 168.439 194.459C169.074 193.216 169.459 191.859 169.573 190.466L174.406 131.289C174.554 129.541 174.27 127.783 173.579 126.172C172.888 124.562 171.812 123.148 170.447 122.057Z" fill="#407BFF"/>
<path opacity="0.3" d="M132.045 26.9952L131.617 32.2358L161.8 34.7332L162.228 29.4926L132.045 26.9952Z" fill="#407BFF"/>
<path opacity="0.3" d="M174.849 55.2715L163.184 42.6865C163.184 42.6865 155.663 43.0134 161.504 52.2958C166.483 60.1466 175.157 58.9236 174.849 55.2715Z" fill="white"/>
<path opacity="0.2" d="M98.6551 184.576C98.4274 187.39 99.3186 190.179 101.133 192.332C102.947 194.484 105.537 195.824 108.332 196.057L158.172 200.177C159.556 200.292 160.949 200.131 162.271 199.704C163.594 199.277 164.82 198.592 165.879 197.688C166.938 196.784 167.81 195.679 168.445 194.436C169.08 193.193 169.465 191.836 169.579 190.443L98.6551 184.576Z" fill="#407BFF"/>
<path opacity="0.3" d="M172.67 56.3593C173.973 57.7651 174.97 59.4292 175.596 61.245C176.223 63.0607 176.466 64.9882 176.31 66.9041L172.525 113.321C172.426 114.515 172.036 115.665 171.39 116.67C170.743 117.675 169.859 118.503 168.818 119.081L164.41 121.539L168.358 124.689C169.293 125.43 170.03 126.392 170.505 127.49C170.98 128.587 171.177 129.786 171.08 130.979L166.247 190.156C166.092 192.074 165.186 193.851 163.73 195.098C162.274 196.345 160.386 196.959 158.48 196.806L108.64 192.687C107.694 192.611 106.771 192.349 105.925 191.914C105.08 191.48 104.327 190.883 103.711 190.156C103.095 189.429 102.627 188.587 102.334 187.678C102.041 186.769 101.929 185.811 102.004 184.858L106.837 125.681C106.933 124.487 107.322 123.336 107.968 122.33C108.614 121.324 109.497 120.495 110.538 119.916L114.946 117.458L111.026 114.308C110.092 113.567 109.354 112.605 108.879 111.507C108.404 110.41 108.207 109.211 108.304 108.018L112.095 61.6063C112.252 59.6903 112.805 57.8284 113.719 56.1398C114.632 54.4512 115.885 52.973 117.398 51.7998C121.878 48.886 133.638 56.1395 147.409 57.2779C161.179 58.4164 169.792 54.8996 172.67 56.3593Z" fill="#407BFF"/>
<path opacity="0.2" d="M147.38 57.2833C133.615 56.1562 121.844 48.8858 117.364 51.7996C125.204 56.1393 134.164 58.8276 147.162 59.904C160.159 60.9805 172.67 56.3591 172.67 56.3591C169.791 54.8994 161.145 58.4274 147.38 57.2833Z" fill="#407BFF"/>
<path opacity="0.2" d="M104.927 107.748C104.784 109.496 105.073 111.252 105.767 112.861C106.462 114.47 107.541 115.881 108.909 116.968L170.447 122.04C171.975 121.192 173.27 119.975 174.217 118.5C175.164 117.025 175.733 115.337 175.874 113.586L104.927 107.748Z" fill="#407BFF"/>
<path d="M162.859 21.1805L132.76 18.6824C131.5 18.5777 130.394 19.5215 130.29 20.7903L129.69 28.1599C129.587 29.4287 130.525 30.5421 131.786 30.6468L161.884 33.1449C163.145 33.2495 164.251 32.3058 164.354 31.037L164.954 23.6674C165.058 22.3985 164.119 21.2851 162.859 21.1805Z" fill="#407BFF"/>
<path opacity="0.2" d="M133.313 29.5096C133.276 29.5067 133.241 29.4966 133.208 29.4797C133.175 29.4629 133.145 29.4396 133.122 29.4113C133.098 29.383 133.079 29.3503 133.068 29.3149C133.057 29.2795 133.053 29.2423 133.056 29.2052L133.761 20.2892C133.767 20.2145 133.802 20.1452 133.859 20.0965C133.916 20.0479 133.989 20.024 134.064 20.03C134.138 20.0359 134.207 20.0714 134.255 20.1284C134.303 20.1855 134.327 20.2596 134.321 20.3343L133.593 29.2447C133.589 29.3165 133.558 29.3839 133.506 29.4331C133.453 29.4823 133.385 29.5097 133.313 29.5096Z" fill="white"/>
<path opacity="0.2" d="M138.773 29.9606C138.736 29.9578 138.701 29.9477 138.668 29.9308C138.635 29.9139 138.605 29.8907 138.581 29.8624C138.558 29.8341 138.539 29.8014 138.528 29.766C138.517 29.7306 138.513 29.6933 138.516 29.6563L139.244 20.7459C139.251 20.6717 139.286 20.6031 139.343 20.5547C139.399 20.5063 139.472 20.4819 139.546 20.4867C139.583 20.4895 139.618 20.4996 139.651 20.5166C139.684 20.5335 139.712 20.5569 139.736 20.5852C139.759 20.6136 139.777 20.6464 139.788 20.6818C139.798 20.7171 139.802 20.7543 139.798 20.791L139.053 29.7014C139.046 29.7717 139.014 29.837 138.962 29.8848C138.911 29.9326 138.843 29.9596 138.773 29.9606Z" fill="white"/>
<path opacity="0.2" d="M144.228 30.434C144.191 30.4312 144.156 30.421 144.123 30.4041C144.09 30.3873 144.061 30.364 144.037 30.3358C144.013 30.3075 143.994 30.2747 143.983 30.2393C143.972 30.204 143.968 30.1667 143.971 30.1297L144.699 21.2193C144.707 21.1456 144.743 21.0778 144.799 21.0297C144.855 20.9816 144.927 20.9567 145.001 20.96C145.038 20.9629 145.074 20.973 145.107 20.9899C145.14 21.0067 145.169 21.03 145.193 21.0582C145.217 21.0865 145.235 21.1193 145.246 21.1547C145.258 21.1901 145.262 21.2273 145.259 21.2644L144.531 30.1747C144.528 30.2118 144.518 30.2479 144.501 30.281C144.484 30.3141 144.461 30.3436 144.433 30.3677C144.405 30.3918 144.372 30.41 144.337 30.4214C144.302 30.4328 144.265 30.4371 144.228 30.434Z" fill="white"/>
<path opacity="0.2" d="M149.688 30.8623C149.651 30.8594 149.616 30.8493 149.583 30.8324C149.55 30.8155 149.52 30.7923 149.497 30.764C149.473 30.7357 149.454 30.703 149.443 30.6676C149.432 30.6322 149.428 30.5949 149.431 30.5579L150.159 21.6475C150.166 21.5733 150.201 21.5047 150.258 21.4563C150.314 21.4079 150.387 21.3835 150.461 21.3883C150.498 21.3911 150.533 21.4013 150.566 21.4182C150.599 21.4351 150.627 21.4585 150.651 21.4868C150.674 21.5152 150.692 21.548 150.703 21.5834C150.713 21.6187 150.717 21.6559 150.713 21.6926L149.985 30.603C149.983 30.6398 149.974 30.6758 149.957 30.7089C149.941 30.742 149.919 30.7715 149.891 30.7956C149.863 30.8198 149.831 30.8381 149.796 30.8496C149.761 30.861 149.725 30.8653 149.688 30.8623Z" fill="white"/>
<path opacity="0.2" d="M155.12 31.3132C155.083 31.3104 155.047 31.3002 155.014 31.2834C154.981 31.2665 154.952 31.2433 154.928 31.215C154.904 31.1867 154.886 31.1539 154.875 31.1185C154.863 31.0832 154.859 31.0459 154.862 31.0089L155.59 22.0985C155.6 22.0253 155.636 21.9583 155.692 21.9104C155.748 21.8626 155.819 21.8372 155.893 21.8392C155.93 21.8421 155.965 21.8522 155.998 21.8691C156.031 21.8859 156.06 21.9092 156.084 21.9375C156.108 21.9657 156.126 21.9985 156.138 22.0339C156.149 22.0693 156.153 22.1065 156.15 22.1436L155.422 31.054C155.42 31.0913 155.411 31.1278 155.394 31.1613C155.378 31.1948 155.355 31.2245 155.326 31.2488C155.298 31.273 155.265 31.2912 155.23 31.3023C155.194 31.3134 155.157 31.3171 155.12 31.3132Z" fill="white"/>
<path opacity="0.2" d="M160.602 31.7641C160.566 31.7613 160.53 31.7511 160.497 31.7343C160.464 31.7174 160.435 31.6942 160.411 31.6659C160.387 31.6376 160.369 31.6048 160.357 31.5695C160.346 31.5341 160.342 31.4968 160.345 31.4598L161.05 22.5438C161.057 22.4695 161.093 22.4009 161.149 22.3526C161.206 22.3042 161.279 22.2798 161.353 22.2845C161.426 22.2917 161.494 22.3276 161.541 22.3846C161.588 22.4416 161.611 22.515 161.605 22.5889L160.882 31.5049C160.875 31.5752 160.843 31.6404 160.791 31.6883C160.74 31.7361 160.672 31.7631 160.602 31.7641Z" fill="white"/>
<path opacity="0.2" d="M114.24 92.2431C113.389 87.5033 106.529 87.8415 106.137 92.6377L104.905 107.748C104.761 109.496 105.05 111.252 105.744 112.861C106.439 114.47 107.518 115.881 108.886 116.968C107.359 117.816 106.064 119.032 105.118 120.508C104.172 121.983 103.604 123.671 103.465 125.422L98.6326 184.599C98.4049 187.412 99.2962 190.202 101.111 192.354C102.925 194.507 105.514 195.847 108.309 196.079L121.189 197.144C122.608 197.261 124.035 197.049 125.359 196.522C126.684 195.996 127.87 195.171 128.827 194.11C129.784 193.048 130.485 191.78 130.878 190.403C131.27 189.026 131.343 187.576 131.09 186.166L114.24 92.2431Z" fill="#407BFF"/>
<path opacity="0.3" d="M163.799 169.731C163.711 170.818 163.304 171.853 162.63 172.707C161.957 173.56 161.047 174.194 160.015 174.527C158.984 174.86 157.878 174.878 156.837 174.579C155.795 174.279 154.865 173.676 154.165 172.845C153.464 172.014 153.024 170.992 152.9 169.909C152.776 168.826 152.974 167.731 153.469 166.761C153.964 165.791 154.733 164.991 155.68 164.462C156.627 163.932 157.708 163.697 158.787 163.785C160.235 163.906 161.576 164.6 162.516 165.715C163.455 166.83 163.917 168.274 163.799 169.731Z" fill="#407BFF"/>
<path opacity="0.3" d="M146.39 148.388C146.327 149.157 146.04 149.89 145.564 150.494C145.087 151.099 144.443 151.547 143.714 151.784C142.984 152.02 142.201 152.033 141.464 151.821C140.727 151.609 140.069 151.182 139.573 150.594C139.077 150.006 138.765 149.283 138.678 148.516C138.59 147.75 138.73 146.975 139.081 146.288C139.431 145.602 139.976 145.036 140.646 144.661C141.316 144.287 142.081 144.121 142.845 144.184C143.868 144.27 144.816 144.761 145.481 145.549C146.145 146.337 146.472 147.358 146.39 148.388Z" fill="#407BFF"/>
<path opacity="0.3" d="M130.188 100.883C129.423 100.919 128.664 100.726 128.008 100.328C127.352 99.9299 126.828 99.3453 126.502 98.6476C126.175 97.95 126.062 97.1708 126.176 96.4083C126.289 95.6459 126.625 94.9345 127.14 94.3639C127.656 93.7934 128.327 93.3894 129.071 93.203C129.814 93.0165 130.596 93.0559 131.317 93.3163C132.038 93.5766 132.666 94.0463 133.122 94.6658C133.578 95.2853 133.841 96.0269 133.879 96.797C133.903 97.3093 133.828 97.8215 133.656 98.3043C133.483 98.7871 133.218 99.2309 132.876 99.6105C132.533 99.99 132.119 100.298 131.658 100.516C131.197 100.735 130.697 100.859 130.188 100.883Z" fill="#407BFF"/>
<path opacity="0.3" d="M140.756 77.5671C140.214 77.5944 139.675 77.4591 139.209 77.1782C138.743 76.8974 138.371 76.4837 138.138 75.9895C137.906 75.4954 137.825 74.943 137.905 74.4023C137.985 73.8616 138.223 73.357 138.588 72.9523C138.953 72.5476 139.429 72.2612 139.956 72.1291C140.483 71.9971 141.037 72.0255 141.549 72.2106C142.06 72.3958 142.505 72.7294 142.827 73.1693C143.149 73.6092 143.335 74.1355 143.36 74.6815C143.394 75.4113 143.138 76.1248 142.65 76.6656C142.162 77.2065 141.481 77.5306 140.756 77.5671Z" fill="#407BFF"/>
<path opacity="0.3" d="M157.757 131.531C157.731 131.848 157.611 132.151 157.414 132.4C157.217 132.649 156.951 132.834 156.649 132.931C156.348 133.028 156.025 133.033 155.72 132.946C155.416 132.858 155.144 132.681 154.94 132.438C154.735 132.196 154.606 131.897 154.57 131.581C154.534 131.264 154.592 130.944 154.736 130.66C154.881 130.377 155.105 130.143 155.382 129.988C155.658 129.833 155.974 129.764 156.29 129.79C156.714 129.826 157.106 130.029 157.381 130.355C157.656 130.682 157.791 131.104 157.757 131.531Z" fill="#407BFF"/>
<path opacity="0.7" d="M128.75 175.627H128.481C128.052 175.597 127.633 175.482 127.249 175.289C126.864 175.095 126.522 174.827 126.241 174.499C125.964 174.173 125.755 173.795 125.626 173.387C125.496 172.978 125.448 172.548 125.485 172.121C125.537 171.49 125.771 170.887 126.157 170.387C126.544 169.887 127.067 169.511 127.663 169.305C128.258 169.1 128.9 169.073 129.511 169.228C130.121 169.383 130.673 169.714 131.1 170.18C131.527 170.646 131.809 171.227 131.914 171.851C132.018 172.476 131.939 173.118 131.687 173.699C131.435 174.279 131.02 174.773 130.493 175.121C129.967 175.468 129.351 175.654 128.722 175.655L128.75 175.627ZM128.75 169.517C128.113 169.52 127.496 169.742 127.001 170.146C126.506 170.549 126.163 171.11 126.027 171.737C125.892 172.363 125.973 173.017 126.257 173.591C126.541 174.165 127.01 174.624 127.588 174.893C128.166 175.162 128.818 175.225 129.437 175.07C130.055 174.916 130.602 174.555 130.989 174.045C131.375 173.536 131.578 172.909 131.563 172.268C131.547 171.627 131.316 171.011 130.906 170.52C130.666 170.235 130.374 170.001 130.044 169.831C129.714 169.66 129.354 169.558 128.985 169.529L128.75 169.517Z" fill="white"/>
<path opacity="0.7" d="M163.386 109.675H163.19C162.568 109.623 161.992 109.325 161.588 108.847C161.183 108.368 160.984 107.748 161.034 107.122C161.085 106.495 161.382 105.914 161.859 105.507C162.335 105.1 162.953 104.901 163.576 104.952C164.198 105.004 164.774 105.302 165.179 105.78C165.583 106.259 165.782 106.879 165.732 107.505C165.679 108.132 165.383 108.713 164.909 109.123C164.482 109.483 163.943 109.679 163.386 109.675ZM161.454 107.144C161.426 107.528 161.511 107.911 161.699 108.245C161.887 108.58 162.168 108.851 162.509 109.025C162.849 109.199 163.233 109.268 163.612 109.223C163.992 109.178 164.349 109.022 164.64 108.773C164.835 108.608 164.994 108.405 165.111 108.177C165.227 107.949 165.298 107.7 165.319 107.445C165.34 107.189 165.31 106.932 165.232 106.688C165.154 106.444 165.029 106.218 164.864 106.023C164.693 105.833 164.486 105.679 164.255 105.571C164.025 105.463 163.775 105.402 163.52 105.392C163.267 105.37 163.012 105.399 162.769 105.477C162.527 105.555 162.302 105.68 162.108 105.846C161.914 106.011 161.755 106.213 161.638 106.441C161.522 106.669 161.452 106.917 161.431 107.173L161.454 107.144Z" fill="white"/>
<path opacity="0.7" d="M127.204 59.7068H127.12C126.831 59.6782 126.564 59.5375 126.376 59.3146C126.188 59.0917 126.093 58.8039 126.112 58.5121C126.126 58.2928 126.203 58.0826 126.335 57.9071C126.466 57.7316 126.646 57.5986 126.851 57.5245C127.057 57.4503 127.279 57.4381 127.491 57.4895C127.704 57.541 127.896 57.6537 128.046 57.8138C128.195 57.974 128.295 58.1746 128.333 58.391C128.37 58.6074 128.344 58.8302 128.258 59.0319C128.171 59.2336 128.028 59.4055 127.846 59.5264C127.663 59.6473 127.45 59.712 127.232 59.7124L127.204 59.7068ZM126.526 58.5459C126.516 58.6801 126.545 58.8145 126.61 58.9321C126.675 59.0497 126.774 59.1452 126.893 59.2066C127.012 59.268 127.146 59.2925 127.279 59.2771C127.412 59.2617 127.538 59.207 127.64 59.12C127.742 59.0329 127.816 58.9174 127.853 58.7879C127.89 58.6585 127.888 58.521 127.847 58.3927C127.807 58.2644 127.729 58.151 127.625 58.067C127.52 57.9829 127.393 57.9319 127.26 57.9204C127.171 57.9119 127.081 57.9214 126.995 57.9484C126.91 57.9754 126.83 58.0194 126.762 58.0777C126.694 58.1359 126.638 58.2074 126.597 58.2878C126.557 58.3682 126.532 58.456 126.526 58.5459Z" fill="white"/>
<path opacity="0.7" d="M151.967 88.8954H151.731C151.363 88.8663 151.003 88.764 150.674 88.5944C150.345 88.4247 150.053 88.1912 149.814 87.9072C149.575 87.6232 149.394 87.2943 149.282 86.9397C149.17 86.585 149.129 86.2115 149.161 85.8407C149.209 85.2965 149.413 84.7781 149.748 84.3484C150.083 83.9187 150.535 83.5964 151.049 83.4206C151.563 83.2448 152.117 83.2232 152.643 83.3583C153.169 83.4935 153.644 83.7796 154.012 84.1818C154.379 84.584 154.622 85.085 154.712 85.6238C154.801 86.1627 154.733 86.716 154.516 87.2167C154.299 87.7173 153.942 88.1436 153.488 88.4436C153.034 88.7437 152.504 88.9045 151.961 88.9067L151.967 88.8954ZM151.967 83.654C151.403 83.6515 150.857 83.8513 150.427 84.2176C149.943 84.6293 149.641 85.2169 149.587 85.852C149.555 86.246 149.62 86.6418 149.777 87.0044C149.933 87.367 150.176 87.6852 150.484 87.9309C150.792 88.1766 151.155 88.3421 151.541 88.413C151.928 88.4839 152.326 88.4578 152.7 88.3372C153.074 88.2165 153.413 88.005 153.686 87.7212C153.96 87.4375 154.16 87.0903 154.268 86.7104C154.377 86.3304 154.391 85.9295 154.309 85.5428C154.227 85.1562 154.051 84.7959 153.798 84.4937C153.595 84.2519 153.347 84.0532 153.067 83.909C152.787 83.7648 152.482 83.6781 152.168 83.654H151.967Z" fill="white"/>
<path opacity="0.3" d="M174.938 113.536L178.555 69.2767C178.578 68.994 178.546 68.7094 178.459 68.4393C178.373 68.1693 178.235 67.919 178.052 67.7028C177.869 67.4866 177.646 67.3088 177.395 67.1795C177.145 67.0501 176.871 66.9718 176.59 66.9491C176.309 66.9252 176.027 66.9573 175.758 67.0436C175.49 67.1298 175.241 67.2686 175.026 67.4519C174.811 67.6352 174.635 67.8593 174.506 68.1116C174.377 68.3638 174.3 68.6391 174.277 68.9217L170.659 113.181C170.542 114.652 170.063 116.071 169.267 117.31C168.47 118.549 167.38 119.57 166.095 120.282L163.895 121.516L165.871 123.088C167.023 124.002 167.933 125.188 168.519 126.541C169.106 127.894 169.35 129.372 169.231 130.844L164.399 190.021C164.107 193.571 161.89 195.302 158.771 196.682C158.573 196.772 158.41 196.924 158.307 197.117C158.205 197.309 158.169 197.53 158.205 197.745C158.241 197.961 158.347 198.158 158.506 198.306C158.665 198.454 158.868 198.545 159.084 198.565C161.435 198.758 163.766 198.004 165.565 196.468C167.364 194.933 168.483 192.742 168.677 190.376L173.51 131.199C173.63 129.727 173.385 128.249 172.799 126.896C172.213 125.542 171.303 124.356 170.15 123.444L168.173 121.865L170.374 120.637C171.658 119.924 172.747 118.903 173.543 117.664C174.339 116.425 174.819 115.006 174.938 113.536Z" fill="white"/>
<path opacity="0.3" d="M233.067 182.316C232.462 179.555 224.913 181.189 223.351 181.443C220.315 181.997 217.343 182.86 214.48 184.019C211.328 185.264 207.665 187.096 204.4 185.202C202.513 184.109 209.065 181.95 209.659 181.73C212.443 180.746 215.132 179.504 217.689 178.022C218.725 177.402 220.73 175.92 219.868 174.415C219.151 173.169 216.58 173.288 215.018 173.479C210.284 174.063 205.639 175.235 201.192 176.968C196.866 178.698 192.63 180.648 188.502 182.812C186.903 183.72 185.163 184.351 183.356 184.678C181.384 184.96 178.971 184.537 178.192 183.438C177.414 182.339 178.416 181.054 178.646 179.949C178.971 178.629 178.834 177.236 178.26 176.004C177.878 175.179 177.239 174.502 176.44 174.077C174.306 172.95 171.08 173.367 168.936 174.257C167.546 174.849 166.276 175.694 165.189 176.748C163 178.799 161.465 181.456 160.776 184.385C160.603 185.302 160.252 186.176 159.742 186.956C159.233 187.737 158.576 188.409 157.808 188.933C154.807 190.968 149.308 190.849 145.102 189.829C137.76 188.076 132.16 183.979 130.811 179.352C130.156 177.148 129.836 174.843 126.891 173.981C124.987 173.417 121 173.812 121.851 176.235C122.16 176.899 122.563 177.515 123.049 178.061C123.828 179.093 124.656 181.037 122.344 181.663C121.595 181.823 120.825 181.861 120.064 181.775C112.628 181.274 105.784 178.777 101.349 175.26C99.903 174.117 98.677 172.717 97.7316 171.129C97.2052 170.256 97.0148 169.314 96.438 168.452C95.8868 167.622 95.1089 166.97 94.198 166.575C91.342 165.341 84.6332 165.984 84.1628 168.689C83.9108 170.154 84.818 171.743 85.2828 173.136C85.3662 173.311 85.386 173.51 85.3388 173.699C85.2044 174.054 84.6724 174.156 84.2188 174.184C78.2212 174.584 72.4028 172.239 67.3684 169.793C62.0372 167.201 56.1684 163.825 48.7596 163.786C47.2276 163.715 45.6943 163.892 44.218 164.31C43.8442 164.41 43.4965 164.591 43.1988 164.839C43.0177 165.029 42.8975 165.269 42.8535 165.528C42.8096 165.788 42.844 166.054 42.9524 166.294C43.1928 166.79 43.5505 167.22 43.994 167.545C46.234 169.382 49.37 170.126 52.2316 171.073C60.7218 173.842 68.9311 177.419 76.7484 181.753C77.538 182.198 78.938 183.229 77.8292 184.007C76.7204 184.785 74.4692 184.283 73.142 184.064C70.734 183.669 68.4212 183.038 66.0748 182.446C62.9724 181.657 59.3548 180.941 55.9948 181.595C54.2196 181.939 52.6348 182.672 51.8004 183.663C51.5128 183.954 51.3234 184.328 51.2591 184.732C51.1947 185.137 51.2587 185.552 51.442 185.918C52.5956 187.986 57.854 188.877 60.7268 189.863C64.405 191.126 68.0016 192.619 71.4956 194.332C74.4804 195.82 77.2524 197.449 80.2764 198.909C91.0788 204.122 106.165 204.793 119.656 205.3C134.3 205.863 149.011 205.384 163.616 204.567C174.256 203.97 184.7 202.792 195.127 201.405C198.123 201.011 201.102 200.526 204.087 200.115C207.117 199.765 210.113 199.168 213.047 198.328C214.101 198.058 215.084 197.562 215.931 196.874C216.732 196.124 216.984 195.144 215.55 194.862C212.548 194.259 209.457 194.947 206.523 195.482C203.23 196.091 199.967 196.791 196.734 197.584C195.26 197.98 193.764 198.287 192.254 198.503C190.736 198.717 189.191 198.618 187.712 198.21C187.231 198.058 186.704 197.787 186.676 197.359C186.648 196.93 187.052 196.66 187.466 196.496C193.508 194.084 199.926 192.551 206.388 191.142C210.773 190.184 215.236 189.598 219.655 188.848C223.681 188.167 227.926 188.009 231.415 185.439C232.109 184.988 232.649 184.332 232.96 183.562C233.112 183.165 233.149 182.733 233.067 182.316Z" fill="#407BFF"/>
<path opacity="0.3" d="M59.7799 159.497C58.1391 154.802 52.2927 146.489 51.0607 151.398C50.3999 154.154 59.7799 159.497 59.7799 159.497Z" fill="#407BFF"/>
<path opacity="0.3" d="M206.602 168.739C209.726 165.871 213.624 164.163 214.128 166.688C214.598 169.077 206.602 168.739 206.602 168.739Z" fill="#407BFF"/>
<path opacity="0.3" d="M78.4006 145.925C76.2614 144.798 74.5926 142.989 75.847 142.234C77.1014 141.479 78.4006 145.925 78.4006 145.925Z" fill="#407BFF"/>
</g>
<defs>
<clipPath id="clip0_149_657">
<rect width="280" height="210" fill="white"/>
</clipPath>
</defs>
</svg>
