<svg width="768" height="680" viewBox="0 0 768 680" fill="none" xmlns="http://www.w3.org/2000/svg">
<g clip-path="url(#clip0_149_502)">
<path d="M7.95387 554.149C7.72667 556.908 6.68642 559.538 4.96465 561.706C3.24287 563.874 0.916893 565.483 -1.71926 566.33C-4.35541 567.176 -7.18336 567.222 -9.84554 566.461C-12.5077 565.701 -14.8846 564.168 -16.6758 562.057C-18.4669 559.946 -19.5918 557.351 -19.9082 554.6C-20.2247 551.85 -19.7185 549.067 -18.4537 546.604C-17.1889 544.142 -15.2222 542.109 -12.8023 540.764C-10.3824 539.419 -7.618 538.821 -4.8585 539.047C-1.15778 539.353 2.2701 541.115 4.67233 543.947C7.07457 546.779 8.2548 550.448 7.95387 554.149Z" fill="#C6D7FF"/>
<path d="M11.9703 244.739C11.8243 246.512 11.1556 248.203 10.0487 249.597C8.94184 250.991 7.44657 252.025 5.75191 252.569C4.05724 253.113 2.23927 253.143 0.527864 252.654C-1.18354 252.165 -2.71156 251.179 -3.86299 249.822C-5.01442 248.465 -5.73756 246.797 -5.94101 245.029C-6.14445 243.261 -5.81905 241.472 -5.00595 239.889C-4.19285 238.305 -2.92855 236.999 -1.37291 236.134C0.182732 235.269 1.95986 234.885 3.73382 235.03C6.11285 235.227 8.31649 236.36 9.86079 238.18C11.4051 240.001 12.1638 242.359 11.9703 244.739Z" fill="#ECF2FF"/>
<path opacity="0.7" d="M27.1573 398.87H25.9139C23.9303 398.734 21.9933 398.206 20.2149 397.317C18.4365 396.427 16.8519 395.194 15.5526 393.689C14.2746 392.189 13.3073 390.451 12.707 388.574C12.1067 386.697 11.8853 384.72 12.0557 382.756C12.2972 379.854 13.3783 377.084 15.1672 374.786C16.9561 372.488 19.3753 370.76 22.1296 369.814C24.8838 368.867 27.854 368.744 30.6774 369.457C33.5008 370.171 36.0554 371.692 38.0293 373.833C40.0032 375.975 41.311 378.645 41.7931 381.517C42.2752 384.389 41.9106 387.34 40.744 390.009C39.5774 392.678 37.6592 394.949 35.2235 396.545C32.7878 398.142 29.94 398.995 27.0278 399L27.1573 398.87ZM27.1573 370.788C24.2113 370.802 21.3583 371.821 19.0691 373.676C16.7799 375.53 15.1914 378.11 14.5656 380.989C13.9398 383.868 14.3141 386.875 15.6269 389.513C16.9396 392.15 19.1123 394.262 21.7863 395.498C24.4604 396.735 27.4761 397.023 30.3357 396.314C33.1953 395.606 35.728 393.943 37.5158 391.601C39.3036 389.259 40.2396 386.378 40.1695 383.432C40.0994 380.487 39.0272 377.653 37.13 375.399C36.0244 374.089 34.6698 373.011 33.1447 372.228C31.6195 371.446 29.9542 370.973 28.2452 370.839L27.1573 370.788Z" fill="#9EBBFF"/>
<path d="M377.954 231.149C377.727 233.908 376.686 236.538 374.965 238.706C373.243 240.874 370.917 242.483 368.281 243.33C365.645 244.176 362.817 244.222 360.154 243.461C357.492 242.701 355.115 241.168 353.324 239.057C351.533 236.946 350.408 234.351 350.092 231.6C349.775 228.85 350.281 226.067 351.546 223.604C352.811 221.142 354.778 219.109 357.198 217.764C359.618 216.419 362.382 215.821 365.141 216.047C368.842 216.353 372.27 218.115 374.672 220.947C377.075 223.779 378.255 227.448 377.954 231.149Z" fill="#ECF2FF"/>
<path opacity="0.7" d="M588.262 139.784H586.19C582.884 139.557 579.655 138.677 576.691 137.195C573.727 135.712 571.086 133.657 568.921 131.148C566.791 128.649 565.179 125.751 564.178 122.623C563.178 119.495 562.809 116.199 563.093 112.927C563.495 108.09 565.297 103.474 568.279 99.6432C571.26 95.8127 575.292 92.9331 579.883 91.3561C584.473 89.779 589.423 89.5727 594.129 90.7623C598.835 91.9519 603.092 94.486 606.382 98.0552C609.672 101.624 611.852 106.074 612.655 110.862C613.459 115.649 612.851 120.567 610.907 125.015C608.962 129.463 605.765 133.248 601.706 135.909C597.646 138.57 592.9 139.992 588.046 140L588.262 139.784ZM588.262 92.9792C583.352 93.0036 578.597 94.7014 574.782 97.7926C570.967 100.884 568.319 105.183 567.276 109.982C566.233 114.781 566.857 119.792 569.045 124.188C571.233 128.584 574.854 132.103 579.311 134.164C583.767 136.225 588.793 136.704 593.56 135.523C598.326 134.343 602.547 131.572 605.526 127.669C608.506 123.766 610.066 118.963 609.949 114.054C609.832 109.145 608.045 104.422 604.883 100.665C603.041 98.4811 600.783 96.6849 598.241 95.3804C595.699 94.0759 592.924 93.289 590.075 93.0655L588.262 92.9792Z" fill="#C6D7FF"/>
<path d="M612.954 350.149C612.727 352.908 611.686 355.538 609.965 357.706C608.243 359.874 605.917 361.483 603.281 362.33C600.645 363.176 597.817 363.222 595.154 362.461C592.492 361.701 590.115 360.168 588.324 358.057C586.533 355.946 585.408 353.351 585.092 350.6C584.775 347.85 585.281 345.067 586.546 342.604C587.811 340.142 589.778 338.109 592.198 336.764C594.618 335.419 597.382 334.821 600.141 335.047C603.842 335.353 607.27 337.115 609.672 339.947C612.075 342.779 613.255 346.448 612.954 350.149Z" fill="#C6D7FF"/>
<path opacity="0.7" d="M762.231 274.81H760.407C757.498 274.61 754.657 273.836 752.048 272.531C749.44 271.227 747.116 269.419 745.211 267.211C743.336 265.011 741.917 262.461 741.037 259.708C740.156 256.956 739.832 254.055 740.082 251.176C740.436 246.919 742.022 242.857 744.645 239.486C747.269 236.115 750.817 233.581 754.857 232.193C758.896 230.806 763.252 230.624 767.394 231.671C771.535 232.718 775.281 234.948 778.176 238.089C781.071 241.229 782.989 245.145 783.697 249.358C784.404 253.571 783.869 257.899 782.158 261.813C780.447 265.727 777.633 269.058 774.061 271.4C770.489 273.742 766.312 274.993 762.041 275L762.231 274.81ZM762.231 233.622C757.91 233.643 753.725 235.137 750.368 237.857C747.011 240.578 744.681 244.361 743.763 248.584C742.845 252.807 743.394 257.217 745.319 261.085C747.245 264.954 750.431 268.051 754.353 269.864C758.275 271.678 762.698 272.1 766.892 271.061C771.086 270.022 774.801 267.583 777.423 264.149C780.045 260.714 781.418 256.488 781.315 252.168C781.212 247.847 779.64 243.691 776.857 240.385C775.236 238.463 773.249 236.883 771.012 235.735C768.775 234.587 766.333 233.894 763.826 233.698L762.231 233.622Z" fill="#9EBBFF"/>
<g clip-path="url(#clip1_149_502)">
<path d="M480 664C637.625 664 765.406 656.546 765.406 647.352C765.406 638.157 637.625 630.703 480 630.703C322.374 630.703 194.594 638.157 194.594 647.352C194.594 656.546 322.374 664 480 664Z" fill="#F5F5F5"/>
<path opacity="0.1" d="M314.105 531.122C314.282 529.797 314.961 528.59 316.001 527.75C317.042 526.91 318.365 526.501 319.699 526.607C332.299 526.415 344.09 535.313 355.027 544.858C357.456 546.961 360.091 549.138 362.814 546.932C363.656 546.235 364.271 545.303 364.58 544.255C365.051 542.542 365.051 540.733 364.58 539.019C364.175 537.605 363.501 536.281 362.593 535.122C357.839 528.872 352.054 525.871 347.358 519.415C344.728 515.716 342.549 511.717 340.866 507.502C339.394 503.796 336.45 497.81 337.628 492.795C338.938 486.795 343.428 487.309 346.151 488.133C354.762 490.707 362.799 496.84 370.1 504.472C377.887 512.591 384.938 522.371 391.96 532.092C394.609 535.784 397.406 539.578 400.792 540.917C404.177 542.255 408.461 540.093 409.889 534.769C411.316 529.445 409.638 523.327 409.285 518.032C408.812 511.714 409.119 505.362 410.198 499.119C410.676 495.818 411.791 492.642 413.48 489.765C417.278 484.206 422.901 486.162 426.581 490.368C429.39 493.887 431.562 497.869 432.999 502.134C437.128 513.919 439.605 526.218 440.359 538.681C440.918 546.402 442.096 554.447 445.275 560.433C450.413 570.11 459.995 569.345 467.429 564.271C480.368 555.447 490.348 535.504 493.012 513.208C493.881 505.943 494.102 498.09 496.751 492.001C499.062 486.736 504.994 483.177 507.894 488.854C509.062 491.692 509.389 494.806 508.836 497.825C508.317 500.815 507.584 503.764 506.643 506.649C505.171 511.65 503.699 521.018 507.673 523.945C508.266 524.304 508.93 524.53 509.619 524.606C510.308 524.683 511.006 524.607 511.663 524.386C524.675 521.68 536.775 509.443 544.724 492.369C547.604 485.943 549.804 479.235 551.289 472.352C552.246 468.146 552.643 463.631 553.703 459.454C554.382 456.167 555.757 453.063 557.736 450.35C562.8 444.291 574.488 447.144 575.15 460.131C575.547 467.646 573.545 475 572.809 482.353C572.353 486.942 575.194 486.912 577.314 486.765C587.471 485.736 596.45 475.5 604.413 464.852C613.878 452.189 624.359 435.746 637.283 435.261C640.227 435.158 645.129 435.54 646.895 440.085C647.714 442.869 647.714 445.83 646.895 448.615C644.275 459.469 636.591 465.072 630.703 470.44C614.103 485.997 599.502 503.555 587.235 522.709C585.366 525.651 583.437 530.504 585.218 533.387C585.559 533.935 586.057 534.369 586.648 534.631C587.239 534.893 587.894 534.972 588.53 534.857C594.61 534.387 600.306 529.563 605.856 525.562C611.405 521.562 617.705 518.062 623.52 521.077C625.312 522.151 626.874 523.57 628.115 525.252C629.355 526.933 630.25 528.843 630.747 530.872C631.786 534.427 631.953 538.18 631.233 541.814C629.099 551.8 619.869 556.285 614.791 561.212C607.798 567.952 601.396 575.279 595.655 583.111C590.356 590.362 585.351 598.304 580.052 605.422C560.916 630.909 534.42 634.689 510.868 637.645C485.24 640.851 459.554 639.116 434.073 635.748C415.541 633.277 397.273 628.012 379.183 621.761C372.971 619.511 366.803 617.055 360.709 614.143C354.159 611.025 344.517 609.099 342 596.818C341.47 594.171 342.088 592.024 343.84 591.038C349.272 587.95 357.014 592.082 362.122 594.803C369.173 598.568 375.856 603.936 383.098 606.834C384.262 607.405 385.53 607.735 386.826 607.803C388.121 607.872 389.417 607.677 390.635 607.231C391.829 606.73 392.812 605.831 393.417 604.686C394.187 603.195 394.376 601.471 393.947 599.848C393.648 598.971 393.143 598.18 392.475 597.539C379.439 584.19 363.864 573.58 346.666 566.33C341.146 563.963 335.508 562.021 330.194 558.668C325.899 556.014 322.192 552.511 319.302 548.373C316.829 544.417 312.854 537.431 314.105 531.122Z" fill="#407BFF"/>
<path opacity="0.1" d="M595.655 423.01C594.671 424.028 593.383 424.698 591.984 424.92C590.585 425.141 589.152 424.902 587.901 424.237C586.651 423.572 585.651 422.519 585.052 421.236C584.454 419.954 584.29 418.511 584.586 417.127C589.664 392.493 600.704 374.579 613.834 383.874C623.638 390.801 608.27 409.906 595.655 423.01Z" fill="#407BFF"/>
<path opacity="0.3" d="M560.033 434.511C564.049 432.296 567.453 429.123 569.942 425.273C572.431 421.424 573.927 417.018 574.297 412.45L584.247 291.338C584.763 285.112 583.971 278.847 581.92 272.946C579.869 267.044 576.605 261.637 572.339 257.07L541.677 224.259C539.99 222.444 538.699 220.3 537.885 217.96C537.072 215.621 536.754 213.138 536.952 210.669L538.424 192.933L459.068 186.417L457.596 204.154C457.393 206.622 456.677 209.02 455.493 211.195C454.31 213.371 452.685 215.275 450.722 216.788L415.1 244.187C410.148 248 406.047 252.804 403.061 258.292C400.075 263.781 398.27 269.831 397.76 276.057L387.794 397.17C387.417 401.732 388.176 406.316 390.002 410.514C391.828 414.712 394.665 418.393 398.26 421.23C394.244 423.444 390.841 426.617 388.354 430.467C385.868 434.317 384.375 438.723 384.011 443.291L371.308 597.715C370.709 605.057 373.052 612.336 377.821 617.953C382.591 623.57 389.396 627.066 396.744 627.674L527.752 638.424C531.39 638.724 535.052 638.306 538.528 637.191C542.004 636.077 545.226 634.29 548.011 631.931C550.795 629.572 553.087 626.689 554.756 623.445C556.425 620.201 557.438 616.66 557.737 613.025L570.44 458.601C570.828 454.04 570.082 449.453 568.266 445.25C566.45 441.046 563.622 437.357 560.033 434.511Z" fill="#407BFF"/>
<path opacity="0.3" d="M459.091 186.444L457.965 200.12L537.303 206.637L538.429 192.961L459.091 186.444Z" fill="#407BFF"/>
<path opacity="0.3" d="M571.603 260.232L540.941 227.391C540.941 227.391 521.172 228.244 536.525 252.467C549.611 272.954 572.412 269.762 571.603 260.232Z" fill="white"/>
<path opacity="0.2" d="M371.322 597.656C370.724 604.998 373.067 612.277 377.836 617.894C382.605 623.512 389.411 627.008 396.759 627.615L527.767 638.366C531.405 638.666 535.066 638.247 538.542 637.133C542.018 636.018 545.241 634.231 548.025 631.872C550.81 629.514 553.102 626.63 554.771 623.386C556.439 620.142 557.452 616.602 557.751 612.966L371.322 597.656Z" fill="#407BFF"/>
<path opacity="0.3" d="M565.877 263.071C569.301 266.739 571.92 271.082 573.568 275.82C575.215 280.558 575.855 285.588 575.445 290.588L565.494 411.715C565.235 414.829 564.21 417.83 562.51 420.452C560.81 423.075 558.487 425.237 555.749 426.746L544.165 433.158L554.542 441.379C556.998 443.313 558.936 445.823 560.184 448.687C561.432 451.551 561.952 454.679 561.696 457.792L548.993 612.216C548.584 617.221 546.204 621.859 542.376 625.112C538.549 628.366 533.586 629.969 528.576 629.571L397.568 618.82C395.08 618.623 392.656 617.938 390.432 616.805C388.209 615.672 386.232 614.112 384.612 612.215C382.992 610.318 381.762 608.121 380.992 605.749C380.222 603.378 379.928 600.877 380.125 598.392L392.828 443.968C393.082 440.852 394.103 437.848 395.801 435.223C397.498 432.598 399.82 430.433 402.558 428.922L414.143 422.51L403.839 414.289C401.383 412.355 399.445 409.844 398.197 406.981C396.949 404.117 396.429 400.989 396.685 397.876L406.65 276.763C407.064 271.763 408.517 266.905 410.917 262.498C413.318 258.092 416.612 254.234 420.59 251.173C432.366 243.569 463.278 262.497 499.475 265.468C535.671 268.439 558.31 259.262 565.877 263.071Z" fill="#407BFF"/>
<path opacity="0.2" d="M499.401 265.483C463.219 262.541 432.277 243.569 420.501 251.173C441.109 262.497 464.661 269.512 498.827 272.321C532.992 275.13 565.876 263.071 565.876 263.071C558.31 259.262 535.582 268.468 499.401 265.483Z" fill="#407BFF"/>
<path opacity="0.2" d="M387.808 397.17C387.432 401.732 388.19 406.316 390.016 410.514C391.842 414.712 394.679 418.393 398.274 421.23L560.032 434.467C564.048 432.252 567.453 429.078 569.941 425.229C572.43 421.38 573.927 416.974 574.296 412.406L387.808 397.17Z" fill="#407BFF"/>
<path d="M540.087 171.271L460.971 164.752C457.657 164.479 454.751 166.942 454.479 170.253L452.901 189.484C452.63 192.795 455.096 195.7 458.41 195.974L537.526 202.492C540.84 202.766 543.746 200.303 544.018 196.992L545.596 177.761C545.867 174.45 543.401 171.544 540.087 171.271Z" fill="#407BFF"/>
<path opacity="0.2" d="M462.424 193.006C462.328 192.999 462.233 192.972 462.147 192.928C462.06 192.884 461.983 192.824 461.92 192.75C461.857 192.676 461.81 192.591 461.78 192.498C461.75 192.406 461.739 192.309 461.747 192.212L463.602 168.945C463.617 168.75 463.71 168.57 463.859 168.443C464.008 168.316 464.202 168.253 464.397 168.269C464.592 168.285 464.773 168.377 464.9 168.526C465.027 168.675 465.089 168.868 465.074 169.063L463.16 192.315C463.149 192.502 463.067 192.678 462.93 192.807C462.793 192.935 462.612 193.007 462.424 193.006Z" fill="white"/>
<path opacity="0.2" d="M476.776 194.183C476.68 194.175 476.585 194.149 476.499 194.105C476.412 194.061 476.335 194 476.272 193.926C476.209 193.853 476.162 193.767 476.132 193.675C476.102 193.582 476.091 193.485 476.099 193.389L478.013 170.137C478.032 169.943 478.125 169.764 478.273 169.638C478.422 169.512 478.613 169.448 478.808 169.46C478.904 169.468 478.998 169.494 479.083 169.538C479.169 169.582 479.245 169.643 479.307 169.717C479.369 169.791 479.415 169.877 479.443 169.969C479.471 170.062 479.48 170.159 479.47 170.254L477.512 193.506C477.494 193.69 477.409 193.86 477.273 193.985C477.138 194.11 476.961 194.18 476.776 194.183Z" fill="white"/>
<path opacity="0.2" d="M491.114 195.418C491.017 195.411 490.923 195.384 490.836 195.34C490.75 195.296 490.673 195.236 490.61 195.162C490.547 195.088 490.499 195.002 490.469 194.91C490.44 194.818 490.429 194.721 490.437 194.624L492.35 171.372C492.372 171.18 492.467 171.003 492.614 170.877C492.762 170.752 492.951 170.687 493.145 170.696C493.242 170.703 493.336 170.729 493.423 170.773C493.509 170.817 493.586 170.878 493.649 170.952C493.712 171.026 493.76 171.111 493.789 171.204C493.819 171.296 493.83 171.393 493.822 171.49L491.909 194.742C491.901 194.838 491.875 194.933 491.831 195.019C491.787 195.105 491.726 195.182 491.652 195.245C491.578 195.308 491.493 195.356 491.4 195.385C491.308 195.415 491.21 195.426 491.114 195.418Z" fill="white"/>
<path opacity="0.2" d="M505.466 196.536C505.369 196.528 505.275 196.502 505.188 196.458C505.102 196.414 505.025 196.353 504.962 196.28C504.899 196.206 504.851 196.12 504.822 196.028C504.792 195.936 504.781 195.838 504.789 195.742L506.702 172.49C506.721 172.296 506.814 172.117 506.963 171.991C507.111 171.865 507.303 171.801 507.497 171.813C507.593 171.821 507.687 171.847 507.773 171.891C507.859 171.936 507.935 171.996 507.996 172.071C508.058 172.145 508.104 172.23 508.132 172.322C508.16 172.415 508.17 172.512 508.16 172.608L506.246 195.859C506.24 195.955 506.216 196.049 506.173 196.136C506.131 196.222 506.071 196.299 505.999 196.362C505.926 196.425 505.841 196.473 505.75 196.503C505.658 196.533 505.562 196.544 505.466 196.536Z" fill="white"/>
<path opacity="0.2" d="M519.744 197.712C519.647 197.705 519.553 197.679 519.467 197.635C519.38 197.591 519.303 197.53 519.24 197.456C519.177 197.382 519.13 197.297 519.1 197.204C519.07 197.112 519.059 197.015 519.067 196.918L520.981 173.666C521.006 173.475 521.101 173.301 521.248 173.176C521.395 173.051 521.583 172.985 521.775 172.99C521.872 172.997 521.967 173.024 522.053 173.068C522.14 173.112 522.216 173.172 522.279 173.246C522.342 173.32 522.39 173.406 522.42 173.498C522.449 173.59 522.461 173.687 522.453 173.784L520.539 197.036C520.534 197.133 520.508 197.229 520.465 197.316C520.422 197.403 520.361 197.481 520.287 197.544C520.212 197.608 520.126 197.655 520.033 197.684C519.939 197.713 519.841 197.723 519.744 197.712Z" fill="white"/>
<path opacity="0.2" d="M534.155 198.889C534.058 198.882 533.964 198.855 533.877 198.811C533.791 198.767 533.714 198.706 533.651 198.633C533.588 198.559 533.54 198.473 533.51 198.381C533.481 198.289 533.47 198.191 533.478 198.095L535.332 174.828C535.351 174.634 535.444 174.456 535.593 174.329C535.741 174.203 535.933 174.139 536.127 174.152C536.32 174.17 536.498 174.264 536.622 174.413C536.746 174.562 536.806 174.753 536.79 174.946L534.891 198.213C534.873 198.396 534.788 198.566 534.652 198.691C534.516 198.816 534.339 198.886 534.155 198.889Z" fill="white"/>
<path opacity="0.2" d="M412.288 356.711C410.05 344.342 392.018 345.224 390.988 357.74L387.75 397.17C387.373 401.731 388.131 406.316 389.957 410.514C391.783 414.712 394.62 418.393 398.216 421.23C394.2 423.444 390.797 426.617 388.31 430.467C385.823 434.317 384.331 438.723 383.967 443.291L371.263 597.715C370.665 605.057 373.007 612.336 377.777 617.953C382.546 623.57 389.352 627.066 396.699 627.674L430.555 630.453C434.285 630.758 438.036 630.203 441.516 628.829C444.997 627.456 448.116 625.302 450.631 622.533C453.146 619.764 454.991 616.455 456.022 612.861C457.054 609.267 457.245 605.484 456.58 601.804L412.288 356.711Z" fill="#407BFF"/>
<path opacity="0.3" d="M542.56 558.918C542.327 561.753 541.257 564.455 539.486 566.682C537.716 568.91 535.324 570.563 532.614 571.433C529.903 572.302 526.995 572.349 524.258 571.568C521.52 570.786 519.076 569.212 517.235 567.043C515.393 564.874 514.236 562.208 513.911 559.382C513.585 556.556 514.106 553.697 515.406 551.167C516.707 548.637 518.729 546.548 521.217 545.166C523.706 543.784 526.548 543.17 529.386 543.402C533.191 543.717 536.716 545.528 539.186 548.437C541.656 551.346 542.87 555.116 542.56 558.918Z" fill="#407BFF"/>
<path opacity="0.3" d="M496.795 503.222C496.631 505.229 495.875 507.142 494.623 508.719C493.371 510.296 491.679 511.467 489.761 512.083C487.842 512.699 485.784 512.733 483.847 512.18C481.909 511.628 480.179 510.514 478.876 508.979C477.572 507.444 476.754 505.557 476.523 503.557C476.293 501.557 476.662 499.534 477.582 497.743C478.503 495.953 479.935 494.475 481.696 493.497C483.457 492.52 485.469 492.086 487.477 492.251C490.167 492.476 492.659 493.757 494.405 495.813C496.152 497.87 497.011 500.534 496.795 503.222Z" fill="#407BFF"/>
<path opacity="0.3" d="M454.211 379.256C452.199 379.35 450.205 378.846 448.48 377.808C446.755 376.769 445.377 375.244 444.52 373.423C443.663 371.603 443.365 369.569 443.664 367.58C443.963 365.59 444.845 363.733 446.199 362.245C447.554 360.756 449.319 359.702 451.273 359.215C453.227 358.728 455.282 358.831 457.177 359.511C459.072 360.19 460.724 361.416 461.922 363.032C463.121 364.649 463.813 366.584 463.911 368.594C463.976 369.931 463.777 371.267 463.325 372.527C462.872 373.787 462.176 374.945 461.275 375.936C460.374 376.926 459.286 377.729 458.074 378.299C456.862 378.869 455.549 379.194 454.211 379.256Z" fill="#407BFF"/>
<path opacity="0.3" d="M481.987 318.413C480.561 318.485 479.146 318.131 477.921 317.399C476.696 316.666 475.717 315.586 475.106 314.297C474.496 313.007 474.282 311.566 474.493 310.155C474.703 308.744 475.328 307.427 476.287 306.371C477.247 305.315 478.499 304.567 479.885 304.223C481.27 303.878 482.727 303.952 484.07 304.435C485.413 304.919 486.583 305.789 487.431 306.937C488.278 308.085 488.766 309.458 488.832 310.883C488.92 312.788 488.249 314.65 486.966 316.061C485.683 317.472 483.893 318.318 481.987 318.413Z" fill="#407BFF"/>
<path opacity="0.3" d="M526.677 459.233C526.607 460.061 526.294 460.851 525.775 461.501C525.257 462.151 524.558 462.634 523.765 462.887C522.973 463.14 522.123 463.153 521.323 462.925C520.523 462.696 519.809 462.235 519.271 461.601C518.733 460.967 518.395 460.188 518.3 459.362C518.204 458.537 518.356 457.701 518.736 456.961C519.116 456.222 519.707 455.611 520.434 455.207C521.16 454.802 521.991 454.622 522.82 454.689C523.934 454.783 524.965 455.314 525.688 456.165C526.411 457.017 526.767 458.12 526.677 459.233Z" fill="#407BFF"/>
<path opacity="0.7" d="M450.427 574.302H449.721C448.594 574.224 447.493 573.924 446.482 573.42C445.472 572.915 444.571 572.215 443.833 571.36C443.107 570.509 442.557 569.522 442.216 568.456C441.875 567.391 441.749 566.268 441.846 565.154C441.983 563.506 442.597 561.934 443.614 560.629C444.63 559.324 446.005 558.343 447.57 557.806C449.135 557.269 450.823 557.199 452.428 557.604C454.032 558.009 455.484 558.872 456.606 560.088C457.727 561.304 458.471 562.82 458.744 564.45C459.018 566.081 458.811 567.756 458.148 569.271C457.485 570.786 456.395 572.075 455.011 572.982C453.627 573.888 452.009 574.372 450.354 574.375L450.427 574.302ZM450.427 558.359C448.753 558.367 447.132 558.946 445.831 559.999C444.53 561.052 443.628 562.516 443.272 564.151C442.916 565.785 443.129 567.492 443.875 568.989C444.621 570.487 445.856 571.685 447.375 572.387C448.895 573.089 450.609 573.253 452.234 572.85C453.859 572.448 455.298 571.505 456.314 570.175C457.33 568.846 457.862 567.21 457.822 565.538C457.782 563.865 457.173 562.257 456.095 560.977C455.466 560.233 454.697 559.621 453.83 559.177C452.963 558.733 452.017 558.465 451.046 558.389L450.427 558.359Z" fill="white"/>
<path opacity="0.7" d="M541.471 402.2H540.955C539.321 402.065 537.806 401.287 536.744 400.039C535.681 398.79 535.158 397.171 535.288 395.537C535.423 393.901 536.203 392.385 537.456 391.324C538.709 390.262 540.333 389.741 541.971 389.875C543.606 390.01 545.12 390.787 546.183 392.036C547.245 393.285 547.768 394.904 547.638 396.537C547.498 398.173 546.721 399.689 545.474 400.758C544.353 401.698 542.934 402.209 541.471 402.2ZM536.392 395.596C536.319 396.596 536.543 397.596 537.037 398.469C537.53 399.342 538.27 400.05 539.165 400.504C540.06 400.958 541.069 401.138 542.066 401.021C543.063 400.904 544.003 400.495 544.768 399.846C545.279 399.414 545.699 398.885 546.005 398.291C546.311 397.696 546.497 397.046 546.551 396.38C546.606 395.713 546.529 395.042 546.324 394.406C546.119 393.769 545.79 393.179 545.357 392.669C544.907 392.174 544.363 391.773 543.756 391.49C543.15 391.207 542.493 391.048 541.824 391.022C541.158 390.966 540.487 391.041 539.85 391.245C539.213 391.448 538.623 391.775 538.113 392.207C537.602 392.638 537.183 393.167 536.877 393.761C536.572 394.355 536.387 395.004 536.333 395.67L536.392 395.596Z" fill="white"/>
<path opacity="0.7" d="M446.365 271.806H446.144C445.384 271.731 444.682 271.364 444.188 270.783C443.694 270.201 443.445 269.45 443.494 268.689C443.532 268.116 443.736 267.568 444.081 267.11C444.426 266.652 444.898 266.305 445.438 266.111C445.978 265.918 446.563 265.886 447.121 266.02C447.679 266.154 448.186 266.449 448.578 266.866C448.971 267.284 449.233 267.808 449.332 268.373C449.431 268.937 449.363 269.519 449.135 270.045C448.908 270.571 448.532 271.02 448.052 271.335C447.573 271.651 447.012 271.82 446.438 271.821L446.365 271.806ZM444.584 268.777C444.556 269.127 444.633 269.478 444.804 269.785C444.976 270.091 445.234 270.341 445.547 270.501C445.86 270.661 446.214 270.725 446.563 270.685C446.913 270.645 447.242 270.502 447.511 270.275C447.779 270.048 447.974 269.746 448.071 269.408C448.168 269.071 448.163 268.712 448.056 268.377C447.95 268.042 447.746 267.746 447.471 267.527C447.196 267.308 446.863 267.175 446.512 267.144C446.278 267.122 446.041 267.147 445.816 267.218C445.592 267.288 445.384 267.403 445.204 267.555C445.024 267.707 444.877 267.893 444.77 268.103C444.664 268.313 444.6 268.542 444.584 268.777Z" fill="white"/>
<path opacity="0.7" d="M511.456 347.975H510.838C509.869 347.899 508.925 347.632 508.059 347.189C507.194 346.746 506.425 346.137 505.797 345.396C505.169 344.655 504.694 343.797 504.4 342.871C504.105 341.945 503.997 340.971 504.082 340.003C504.207 338.583 504.743 337.23 505.624 336.109C506.506 334.988 507.694 334.147 509.045 333.688C510.396 333.229 511.851 333.173 513.234 333.526C514.616 333.878 515.866 334.625 516.832 335.674C517.798 336.724 518.437 338.031 518.672 339.437C518.908 340.843 518.729 342.288 518.158 343.594C517.587 344.9 516.648 346.013 515.455 346.796C514.263 347.579 512.868 347.998 511.442 348.004L511.456 347.975ZM511.456 334.297C509.975 334.29 508.54 334.812 507.408 335.768C506.137 336.842 505.343 338.375 505.2 340.033C505.117 341.061 505.289 342.094 505.701 343.04C506.112 343.986 506.751 344.817 507.56 345.458C508.369 346.099 509.323 346.531 510.339 346.716C511.355 346.901 512.4 346.833 513.384 346.518C514.367 346.203 515.258 345.651 515.977 344.911C516.696 344.17 517.221 343.264 517.506 342.273C517.792 341.281 517.828 340.235 517.612 339.226C517.397 338.217 516.936 337.277 516.27 336.488C515.737 335.857 515.084 335.339 514.349 334.962C513.613 334.586 512.81 334.36 511.986 334.297H511.456Z" fill="white"/>
<path opacity="0.3" d="M571.838 412.274L581.347 296.779C581.407 296.041 581.322 295.299 581.095 294.594C580.868 293.889 580.504 293.236 580.024 292.672C579.544 292.108 578.958 291.644 578.298 291.306C577.639 290.969 576.919 290.765 576.18 290.705C575.443 290.643 574.7 290.727 573.994 290.952C573.289 291.177 572.635 291.539 572.07 292.017C571.506 292.496 571.041 293.081 570.703 293.739C570.365 294.397 570.16 295.115 570.101 295.853L560.592 411.347C560.282 415.187 559.025 418.889 556.931 422.123C554.837 425.357 551.973 428.022 548.595 429.878L542.81 433.099L548.006 437.202C551.035 439.586 553.426 442.681 554.967 446.212C556.508 449.743 557.151 453.6 556.838 457.439L544.135 611.863C543.369 621.129 537.54 625.644 529.341 629.247C528.821 629.48 528.393 629.879 528.124 630.381C527.855 630.883 527.76 631.46 527.854 632.021C527.949 632.583 528.227 633.098 528.645 633.485C529.063 633.871 529.598 634.109 530.166 634.159C536.345 634.664 542.472 632.696 547.2 628.689C551.928 624.682 554.871 618.964 555.381 612.79L568.084 458.366C568.399 454.526 567.758 450.669 566.216 447.137C564.675 443.606 562.283 440.511 559.252 438.129L554.056 434.011L559.841 430.805C563.216 428.945 566.079 426.28 568.172 423.047C570.265 419.813 571.525 416.112 571.838 412.274Z" fill="white"/>
<path opacity="0.3" d="M724.632 591.759C723.042 584.552 703.199 588.818 699.092 589.479C691.113 590.926 683.301 593.178 675.776 596.2C667.489 599.451 657.862 604.23 649.28 599.289C644.319 596.436 661.542 590.803 663.102 590.229C670.422 587.66 677.488 584.421 684.211 580.552C686.934 578.934 692.203 575.066 689.937 571.14C688.052 567.889 681.296 568.198 677.189 568.698C664.745 570.221 652.537 573.279 640.845 577.802C629.474 582.315 618.341 587.406 607.49 593.053C603.286 595.423 598.713 597.068 593.962 597.921C588.781 598.657 582.436 597.554 580.39 594.686C578.344 591.818 580.979 588.465 581.583 585.582C582.436 582.136 582.078 578.501 580.567 575.287C579.565 573.133 577.885 571.367 575.783 570.257C570.175 567.316 561.696 568.404 556.058 570.728C552.405 572.274 549.067 574.477 546.211 577.228C540.457 582.579 536.42 589.514 534.611 597.156C534.156 599.55 533.232 601.83 531.893 603.867C530.555 605.903 528.827 607.656 526.81 609.025C518.92 614.334 504.465 614.025 493.41 611.363C474.112 606.79 459.392 596.098 455.844 584.023C454.122 578.273 453.283 572.257 445.54 570.007C440.536 568.536 430.055 569.566 432.292 575.89C433.105 577.623 434.166 579.228 435.443 580.655C437.489 583.346 439.667 588.42 433.588 590.053C431.619 590.47 429.597 590.57 427.597 590.347C408.049 589.038 390.061 582.523 378.403 573.346C374.601 570.362 371.378 566.708 368.893 562.565C367.51 560.286 367.009 557.83 365.493 555.58C364.044 553.414 362 551.713 359.605 550.682C352.098 547.461 334.463 549.138 333.227 556.197C332.564 560.021 334.949 564.168 336.171 567.801C336.39 568.259 336.442 568.779 336.318 569.272C335.965 570.198 334.566 570.463 333.374 570.537C317.609 571.581 302.315 565.463 289.082 559.08C275.068 552.315 259.642 543.505 240.167 543.402C236.14 543.218 232.11 543.68 228.229 544.77C227.247 545.032 226.333 545.503 225.55 546.152C225.074 546.647 224.758 547.274 224.643 547.95C224.527 548.627 224.618 549.322 224.902 549.947C225.534 551.242 226.474 552.363 227.64 553.212C233.528 558.006 241.771 559.948 249.293 562.418C271.611 569.646 293.189 578.978 313.738 590.288C315.813 591.45 319.493 594.141 316.579 596.171C313.664 598.201 307.747 596.892 304.258 596.318C297.928 595.289 291.849 593.641 285.681 592.097C277.526 590.038 268.017 588.17 259.185 589.876C254.519 590.774 250.353 592.685 248.16 595.274C247.404 596.031 246.906 597.007 246.737 598.063C246.568 599.119 246.736 600.202 247.218 601.157C250.25 606.554 264.072 608.878 271.624 611.452C281.292 614.749 290.746 618.644 299.93 623.114C307.776 626.997 315.062 631.247 323.011 635.057C351.406 648.661 391.062 650.411 426.522 651.734C465.015 653.205 503.684 651.955 542.074 649.822C570.042 648.263 597.495 645.19 624.904 641.572C632.779 640.542 640.61 639.277 648.456 638.204C656.42 637.292 664.297 635.732 672.008 633.542C674.778 632.836 677.364 631.541 679.588 629.747C681.693 627.791 682.356 625.232 678.587 624.497C670.698 622.923 662.572 624.717 654.859 626.115C646.204 627.703 637.627 629.532 629.128 631.6C625.254 632.633 621.322 633.433 617.352 633.998C613.362 634.557 609.3 634.297 605.414 633.233C604.148 632.836 602.765 632.13 602.691 631.012C602.618 629.894 603.677 629.188 604.767 628.762C620.65 622.467 637.519 618.467 654.506 614.79C666.031 612.29 677.763 610.76 689.377 608.804C699.961 607.025 711.119 606.613 720.289 599.907C722.114 598.729 723.533 597.02 724.352 595.009C724.75 593.974 724.847 592.847 724.632 591.759Z" fill="#407BFF"/>
<path opacity="0.3" d="M269.136 532.21C264.823 519.959 249.455 498.266 246.217 511.076C244.48 518.268 269.136 532.21 269.136 532.21Z" fill="#407BFF"/>
<path opacity="0.3" d="M655.065 556.329C663.279 548.844 673.524 544.388 674.849 550.976C676.085 557.211 655.065 556.329 655.065 556.329Z" fill="#407BFF"/>
<path opacity="0.3" d="M318.08 496.795C312.457 493.853 308.071 489.133 311.368 487.162C314.665 485.192 318.08 496.795 318.08 496.795Z" fill="#407BFF"/>
</g>
</g>
<defs>
<clipPath id="clip0_149_502">
<rect width="768" height="680" fill="white"/>
</clipPath>
<clipPath id="clip1_149_502">
<rect width="736" height="548" fill="white" transform="translate(112 116)"/>
</clipPath>
</defs>
</svg>
