<svg width="518" height="386" viewBox="0 0 518 386" fill="none" xmlns="http://www.w3.org/2000/svg">
<g clip-path="url(#clip0_149_581)">
<path d="M259 386C369.937 386 459.87 380.75 459.87 374.273C459.87 367.797 369.937 362.546 259 362.546C148.062 362.546 58.1299 367.797 58.1299 374.273C58.1299 380.75 148.062 386 259 386Z" fill="#F5F5F5"/>
<path opacity="0.1" d="M142.243 292.403C142.367 291.47 142.844 290.62 143.577 290.028C144.309 289.437 145.241 289.148 146.179 289.223C155.048 289.088 163.346 295.356 171.043 302.079C172.753 303.56 174.607 305.093 176.524 303.54C177.117 303.049 177.55 302.392 177.767 301.654C178.099 300.447 178.099 299.173 177.767 297.966C177.482 296.97 177.007 296.037 176.368 295.221C173.022 290.818 168.951 288.705 165.646 284.157C163.795 281.552 162.261 278.735 161.077 275.766C160.041 273.156 157.969 268.939 158.798 265.407C159.72 261.18 162.88 261.543 164.796 262.123C170.857 263.936 176.513 268.256 181.652 273.632C187.132 279.35 192.095 286.239 197.037 293.087C198.901 295.687 200.87 298.36 203.253 299.303C205.635 300.245 208.65 298.722 209.655 294.972C210.66 291.222 209.479 286.913 209.23 283.183C208.898 278.733 209.113 274.259 209.873 269.861C210.209 267.536 210.994 265.299 212.183 263.273C214.856 259.357 218.813 260.735 221.403 263.697C223.38 266.176 224.909 268.98 225.92 271.985C228.827 280.286 230.57 288.949 231.1 297.728C231.494 303.167 232.323 308.833 234.561 313.049C238.176 319.866 244.921 319.327 250.152 315.753C259.259 309.538 266.283 295.49 268.158 279.785C268.769 274.668 268.925 269.136 270.789 264.847C272.416 261.139 276.591 258.632 278.632 262.63C279.454 264.63 279.684 266.823 279.295 268.95C278.929 271.056 278.413 273.133 277.751 275.165C276.715 278.687 275.679 285.286 278.477 287.348C278.894 287.601 279.361 287.76 279.846 287.814C280.331 287.868 280.822 287.815 281.284 287.659C290.442 285.752 298.958 277.134 304.553 265.106C306.58 260.58 308.128 255.855 309.173 251.007C309.847 248.044 310.126 244.864 310.872 241.922C311.35 239.607 312.318 237.42 313.711 235.51C317.275 231.242 325.501 233.251 325.967 242.399C326.247 247.692 324.838 252.872 324.32 258.052C323.998 261.284 325.998 261.263 327.49 261.159C334.638 260.434 340.958 253.224 346.562 245.724C353.224 236.805 360.6 225.223 369.696 224.881C371.768 224.808 375.218 225.078 376.461 228.279C377.038 230.24 377.038 232.326 376.461 234.287C374.617 241.932 369.209 245.879 365.065 249.66C353.382 260.618 343.106 272.986 334.472 286.478C333.157 288.55 331.799 291.968 333.053 293.999C333.293 294.385 333.643 294.69 334.059 294.875C334.475 295.06 334.936 295.115 335.384 295.034C339.663 294.703 343.672 291.305 347.578 288.487C351.483 285.67 355.918 283.204 360.01 285.328C361.271 286.085 362.37 287.084 363.244 288.268C364.117 289.453 364.746 290.798 365.097 292.227C365.828 294.731 365.945 297.375 365.438 299.934C363.936 306.968 357.44 310.128 353.866 313.598C348.945 318.346 344.439 323.507 340.398 329.024C336.669 334.131 333.146 339.725 329.417 344.739C315.949 362.691 297.301 365.354 280.725 367.436C262.688 369.694 244.61 368.472 226.677 366.1C213.633 364.359 200.777 360.651 188.044 356.248C183.672 354.663 179.331 352.933 175.042 350.882C170.432 348.686 163.646 347.329 161.875 338.678C161.502 336.814 161.937 335.301 163.17 334.607C166.993 332.432 172.442 335.343 176.037 337.259C180.999 339.911 185.703 343.692 190.8 345.733C191.619 346.136 192.512 346.368 193.423 346.416C194.335 346.464 195.247 346.327 196.104 346.013C196.945 345.66 197.637 345.027 198.062 344.221C198.604 343.17 198.737 341.956 198.435 340.812C198.225 340.195 197.87 339.637 197.399 339.186C188.225 329.784 177.263 322.31 165.159 317.204C161.274 315.536 157.306 314.168 153.566 311.806C150.543 309.937 147.934 307.469 145.9 304.555C144.159 301.768 141.362 296.847 142.243 292.403Z" fill="#407BFF"/>
<path opacity="0.1" d="M340.398 216.251C339.706 216.969 338.799 217.441 337.814 217.597C336.83 217.753 335.821 217.584 334.941 217.116C334.061 216.648 333.357 215.906 332.936 215.002C332.515 214.099 332.4 213.083 332.608 212.108C336.182 194.756 343.952 182.138 353.193 188.685C360.093 193.564 349.277 207.021 340.398 216.251Z" fill="#407BFF"/>
<path opacity="0.3" d="M315.328 224.353C318.154 222.793 320.55 220.557 322.302 217.846C324.053 215.134 325.106 212.031 325.367 208.814L332.37 123.504C332.733 119.119 332.175 114.706 330.732 110.549C329.288 106.393 326.992 102.584 323.989 99.367L302.409 76.2553C301.221 74.9773 300.313 73.4665 299.74 71.8187C299.168 70.1709 298.944 68.4221 299.083 66.6832L300.119 54.1898L244.268 49.6006L243.232 62.094C243.09 63.8322 242.585 65.5215 241.752 67.0538C240.919 68.5861 239.776 69.9276 238.394 70.9927L213.323 90.2922C209.838 92.9781 206.952 96.3623 204.851 100.228C202.749 104.094 201.478 108.356 201.119 112.741L194.105 198.05C193.84 201.263 194.374 204.492 195.659 207.449C196.944 210.406 198.941 213 201.471 214.998C198.645 216.557 196.25 218.793 194.5 221.504C192.749 224.216 191.699 227.32 191.443 230.537L182.502 339.31C182.081 344.482 183.73 349.609 187.086 353.566C190.443 357.522 195.233 359.985 200.404 360.412L292.608 367.985C295.169 368.196 297.746 367.901 300.192 367.117C302.639 366.332 304.907 365.073 306.866 363.411C308.826 361.75 310.439 359.719 311.614 357.434C312.788 355.149 313.501 352.655 313.712 350.095L322.652 241.321C322.926 238.108 322.4 234.877 321.122 231.917C319.844 228.956 317.854 226.357 315.328 224.353Z" fill="#407BFF"/>
<path opacity="0.3" d="M244.284 49.6196L243.492 59.2524L299.331 63.8429L300.123 54.2101L244.284 49.6196Z" fill="#407BFF"/>
<path opacity="0.3" d="M323.471 101.594L301.891 78.4618C301.891 78.4618 287.977 79.0626 298.783 96.1245C307.993 110.555 324.04 108.307 323.471 101.594Z" fill="white"/>
<path opacity="0.2" d="M182.512 339.269C182.091 344.44 183.74 349.568 187.096 353.524C190.453 357.481 195.243 359.943 200.414 360.371L292.618 367.944C295.179 368.155 297.756 367.86 300.202 367.075C302.649 366.29 304.916 365.031 306.876 363.37C308.836 361.709 310.449 359.677 311.624 357.393C312.798 355.108 313.511 352.614 313.721 350.053L182.512 339.269Z" fill="#407BFF"/>
<path opacity="0.3" d="M319.441 103.594C321.851 106.178 323.694 109.236 324.854 112.574C326.013 115.912 326.463 119.454 326.175 122.976L319.171 208.296C318.989 210.489 318.268 212.603 317.071 214.45C315.875 216.297 314.24 217.82 312.313 218.883L304.16 223.4L311.464 229.19C313.192 230.552 314.556 232.321 315.434 234.338C316.313 236.355 316.678 238.559 316.498 240.751L307.558 349.525C307.27 353.05 305.595 356.316 302.901 358.608C300.207 360.9 296.714 362.029 293.188 361.749L200.984 354.176C199.233 354.037 197.527 353.555 195.962 352.757C194.398 351.959 193.006 350.86 191.866 349.524C190.726 348.188 189.86 346.64 189.318 344.97C188.776 343.299 188.569 341.538 188.708 339.787L197.649 231.014C197.827 228.819 198.546 226.703 199.741 224.854C200.935 223.005 202.569 221.481 204.496 220.416L212.65 215.899L205.398 210.108C203.67 208.747 202.306 206.978 201.427 204.961C200.549 202.944 200.183 200.74 200.363 198.547L207.377 113.238C207.667 109.716 208.69 106.294 210.38 103.19C212.069 100.086 214.388 97.3693 217.187 95.2129C225.475 89.8571 247.232 103.19 272.707 105.282C298.182 107.375 314.116 100.911 319.441 103.594Z" fill="#407BFF"/>
<path opacity="0.2" d="M272.655 105.293C247.19 103.221 225.413 89.8571 217.125 95.2129C231.629 103.19 248.205 108.131 272.251 110.11C296.296 112.088 319.44 103.594 319.44 103.594C314.115 100.911 298.119 107.395 272.655 105.293Z" fill="#407BFF"/>
<path opacity="0.2" d="M194.116 198.05C193.851 201.263 194.385 204.492 195.67 207.449C196.955 210.406 198.952 213 201.482 214.998L315.328 224.322C318.154 222.762 320.55 220.526 322.302 217.815C324.054 215.103 325.107 212 325.367 208.782L194.116 198.05Z" fill="#407BFF"/>
<path d="M301.29 38.9319L245.608 34.3401C243.275 34.1477 241.23 35.8824 241.039 38.2146L239.928 51.7607C239.737 54.0929 241.473 56.1394 243.805 56.3317L299.488 60.9236C301.82 61.1159 303.865 59.3812 304.057 57.049L305.167 43.5029C305.358 41.1707 303.622 39.1242 301.29 38.9319Z" fill="#407BFF"/>
<path opacity="0.2" d="M246.631 54.2416C246.563 54.2364 246.496 54.2178 246.435 54.1868C246.374 54.1558 246.32 54.1131 246.276 54.0611C246.232 54.0091 246.198 53.9489 246.177 53.8838C246.156 53.8188 246.148 53.7503 246.154 53.6822L247.459 37.2937C247.47 37.1564 247.536 37.029 247.641 36.9396C247.745 36.8502 247.882 36.8062 248.019 36.8172C248.156 36.8282 248.284 36.8933 248.373 36.9982C248.462 37.1031 248.506 37.2392 248.495 37.3766L247.149 53.7548C247.141 53.8867 247.083 54.0106 246.986 54.1011C246.89 54.1916 246.763 54.2419 246.631 54.2416Z" fill="white"/>
<path opacity="0.2" d="M256.731 55.0704C256.663 55.0651 256.597 55.0465 256.536 55.0155C256.475 54.9845 256.421 54.9418 256.377 54.8898C256.332 54.8378 256.299 54.7776 256.278 54.7126C256.257 54.6475 256.249 54.579 256.255 54.511L257.602 38.1328C257.615 37.9963 257.68 37.8703 257.785 37.7814C257.889 37.6924 258.024 37.6476 258.161 37.6563C258.229 37.6614 258.295 37.6801 258.355 37.7113C258.415 37.7424 258.469 37.7853 258.512 37.8375C258.556 37.8896 258.588 37.95 258.608 38.0149C258.628 38.0799 258.634 38.1482 258.627 38.2157L257.249 54.5938C257.237 54.723 257.177 54.843 257.081 54.9309C256.986 55.0188 256.861 55.0684 256.731 55.0704Z" fill="white"/>
<path opacity="0.2" d="M266.822 55.9406C266.754 55.9353 266.688 55.9167 266.627 55.8857C266.566 55.8547 266.512 55.812 266.467 55.76C266.423 55.708 266.39 55.6478 266.369 55.5828C266.348 55.5177 266.34 55.4492 266.346 55.3812L267.692 39.003C267.708 38.8675 267.774 38.743 267.878 38.6546C267.982 38.5661 268.116 38.5203 268.252 38.5265C268.32 38.5317 268.386 38.5504 268.447 38.5813C268.508 38.6123 268.562 38.6551 268.606 38.7071C268.651 38.759 268.684 38.8193 268.705 38.8843C268.726 38.9493 268.734 39.0178 268.728 39.0859L267.382 55.464C267.376 55.5321 267.358 55.5985 267.327 55.6594C267.296 55.7203 267.253 55.7744 267.201 55.8187C267.149 55.863 267.089 55.8965 267.024 55.9175C266.959 55.9384 266.89 55.9462 266.822 55.9406Z" fill="white"/>
<path opacity="0.2" d="M276.923 56.7279C276.855 56.7227 276.788 56.704 276.727 56.673C276.666 56.642 276.612 56.5993 276.568 56.5473C276.524 56.4953 276.49 56.4351 276.469 56.3701C276.448 56.3051 276.44 56.2365 276.446 56.1685L277.793 39.7903C277.806 39.6538 277.872 39.5278 277.976 39.4389C278.081 39.35 278.215 39.3051 278.352 39.3138C278.42 39.319 278.486 39.3377 278.546 39.3688C278.607 39.3999 278.66 39.4428 278.704 39.495C278.747 39.5471 278.78 39.6075 278.799 39.6725C278.819 39.7374 278.826 39.8057 278.819 39.8732L277.472 56.2514C277.468 56.319 277.45 56.3852 277.421 56.446C277.391 56.5068 277.349 56.561 277.298 56.6054C277.247 56.6498 277.187 56.6835 277.123 56.7046C277.058 56.7256 276.99 56.7335 276.923 56.7279Z" fill="white"/>
<path opacity="0.2" d="M286.972 57.5566C286.904 57.5514 286.838 57.5328 286.777 57.5018C286.716 57.4708 286.662 57.4281 286.618 57.3761C286.574 57.3241 286.54 57.2638 286.519 57.1988C286.498 57.1338 286.49 57.0653 286.496 56.9972L287.843 40.6191C287.861 40.4846 287.928 40.3614 288.031 40.2734C288.134 40.1854 288.267 40.1388 288.402 40.1425C288.47 40.1478 288.537 40.1664 288.598 40.1974C288.658 40.2284 288.713 40.2711 288.757 40.3231C288.801 40.3751 288.835 40.4353 288.856 40.5004C288.877 40.5654 288.884 40.6339 288.879 40.7019L287.532 57.0801C287.528 57.1487 287.51 57.2158 287.48 57.2774C287.449 57.3389 287.407 57.3936 287.354 57.4382C287.302 57.4827 287.241 57.5162 287.176 57.5366C287.11 57.5569 287.041 57.5637 286.972 57.5566Z" fill="white"/>
<path opacity="0.2" d="M297.115 58.3853C297.046 58.3801 296.98 58.3615 296.919 58.3305C296.858 58.2995 296.804 58.2568 296.76 58.2048C296.716 58.1528 296.682 58.0926 296.661 58.0275C296.64 57.9625 296.632 57.894 296.638 57.8259L297.943 41.4374C297.957 41.3009 298.022 41.1749 298.127 41.086C298.231 40.9971 298.366 40.9522 298.503 40.9609C298.639 40.974 298.764 41.0401 298.851 41.1449C298.938 41.2496 298.981 41.3845 298.969 41.5203L297.633 57.9088C297.62 58.038 297.56 58.158 297.464 58.2459C297.369 58.3338 297.244 58.3834 297.115 58.3853Z" fill="white"/>
<path opacity="0.2" d="M211.344 169.552C209.77 160.839 197.079 161.461 196.353 170.277L194.074 198.05C193.809 201.263 194.343 204.492 195.628 207.449C196.913 210.406 198.91 213 201.44 214.998C198.614 216.557 196.219 218.793 194.468 221.504C192.718 224.216 191.668 227.32 191.412 230.537L182.471 339.31C182.05 344.482 183.698 349.609 187.055 353.566C190.412 357.522 195.202 359.985 200.373 360.412L224.201 362.37C226.826 362.585 229.466 362.194 231.915 361.227C234.365 360.259 236.56 358.742 238.33 356.792C240.1 354.841 241.399 352.51 242.125 349.979C242.851 347.447 242.985 344.782 242.517 342.19L211.344 169.552Z" fill="#407BFF"/>
<path opacity="0.3" d="M303.03 311.982C302.866 313.979 302.113 315.883 300.867 317.452C299.621 319.021 297.938 320.185 296.03 320.798C294.122 321.41 292.076 321.443 290.149 320.893C288.222 320.342 286.502 319.233 285.206 317.705C283.91 316.177 283.096 314.3 282.867 312.309C282.638 310.319 283.004 308.305 283.919 306.523C284.835 304.741 286.258 303.27 288.009 302.296C289.76 301.323 291.761 300.89 293.758 301.053C296.436 301.275 298.917 302.551 300.655 304.6C302.394 306.649 303.248 309.304 303.03 311.982Z" fill="#407BFF"/>
<path opacity="0.3" d="M270.821 272.752C270.706 274.165 270.174 275.512 269.293 276.623C268.411 277.734 267.22 278.559 265.87 278.993C264.52 279.427 263.072 279.451 261.708 279.061C260.345 278.672 259.127 277.887 258.21 276.806C257.292 275.725 256.716 274.396 256.554 272.987C256.392 271.579 256.651 270.153 257.299 268.892C257.947 267.631 258.955 266.59 260.194 265.901C261.434 265.213 262.85 264.907 264.263 265.024C266.157 265.182 267.91 266.084 269.139 267.533C270.368 268.981 270.973 270.858 270.821 272.752Z" fill="#407BFF"/>
<path opacity="0.3" d="M240.849 185.433C239.433 185.498 238.03 185.143 236.816 184.412C235.602 183.681 234.632 182.606 234.029 181.324C233.425 180.041 233.216 178.609 233.426 177.208C233.636 175.806 234.258 174.498 235.211 173.45C236.164 172.401 237.407 171.658 238.782 171.316C240.157 170.973 241.603 171.045 242.937 171.524C244.271 172.003 245.433 172.866 246.277 174.005C247.12 175.143 247.607 176.507 247.676 177.922C247.722 178.864 247.582 179.805 247.264 180.692C246.945 181.58 246.455 182.396 245.821 183.093C245.187 183.791 244.421 184.357 243.568 184.758C242.715 185.16 241.791 185.389 240.849 185.433Z" fill="#407BFF"/>
<path opacity="0.3" d="M260.399 142.576C259.396 142.626 258.4 142.377 257.538 141.861C256.676 141.345 255.986 140.584 255.557 139.676C255.127 138.768 254.977 137.752 255.125 136.759C255.273 135.765 255.712 134.837 256.388 134.093C257.063 133.35 257.945 132.823 258.92 132.58C259.895 132.338 260.92 132.39 261.865 132.73C262.811 133.071 263.634 133.684 264.231 134.492C264.827 135.301 265.17 136.268 265.217 137.272C265.279 138.613 264.807 139.925 263.904 140.919C263.001 141.913 261.741 142.509 260.399 142.576Z" fill="#407BFF"/>
<path opacity="0.3" d="M291.852 241.766C291.803 242.35 291.582 242.906 291.218 243.364C290.853 243.822 290.36 244.162 289.803 244.34C289.245 244.519 288.647 244.528 288.084 244.367C287.521 244.205 287.018 243.881 286.64 243.434C286.261 242.988 286.023 242.439 285.956 241.857C285.889 241.276 285.996 240.687 286.263 240.166C286.531 239.645 286.946 239.215 287.458 238.93C287.969 238.645 288.554 238.519 289.138 238.566C289.922 238.632 290.647 239.006 291.156 239.605C291.665 240.205 291.915 240.982 291.852 241.766Z" fill="#407BFF"/>
<path opacity="0.7" d="M238.187 322.818H237.69C236.897 322.764 236.122 322.553 235.411 322.197C234.699 321.841 234.066 321.348 233.546 320.746C233.035 320.147 232.648 319.452 232.408 318.701C232.168 317.951 232.079 317.16 232.147 316.375C232.244 315.214 232.676 314.107 233.392 313.188C234.107 312.269 235.075 311.578 236.176 311.199C237.278 310.821 238.466 310.772 239.595 311.057C240.724 311.342 241.746 311.95 242.535 312.807C243.325 313.663 243.848 314.731 244.041 315.879C244.234 317.028 244.088 318.208 243.621 319.275C243.155 320.342 242.387 321.25 241.413 321.889C240.439 322.527 239.3 322.868 238.135 322.87L238.187 322.818ZM238.187 311.589C237.009 311.595 235.868 312.002 234.952 312.744C234.037 313.485 233.401 314.517 233.151 315.668C232.901 316.819 233.051 318.022 233.576 319.076C234.101 320.131 234.97 320.975 236.039 321.47C237.109 321.964 238.315 322.079 239.458 321.796C240.602 321.513 241.615 320.848 242.33 319.912C243.045 318.975 243.419 317.823 243.391 316.645C243.363 315.467 242.935 314.334 242.176 313.433C241.734 312.909 241.192 312.478 240.582 312.165C239.972 311.852 239.306 311.663 238.622 311.61L238.187 311.589Z" fill="white"/>
<path opacity="0.7" d="M302.263 201.593H301.901C300.75 201.498 299.684 200.951 298.937 200.071C298.189 199.191 297.821 198.051 297.912 196.9C298.007 195.748 298.556 194.68 299.438 193.932C300.32 193.184 301.463 192.817 302.616 192.912C303.766 193.007 304.832 193.554 305.58 194.434C306.328 195.314 306.696 196.454 306.604 197.605C306.506 198.757 305.959 199.825 305.081 200.578C304.292 201.24 303.293 201.6 302.263 201.593ZM298.689 196.942C298.638 197.646 298.796 198.35 299.143 198.965C299.49 199.58 300.011 200.079 300.641 200.399C301.271 200.719 301.981 200.845 302.683 200.763C303.384 200.681 304.046 200.393 304.584 199.936C304.943 199.631 305.239 199.259 305.455 198.84C305.67 198.421 305.801 197.963 305.839 197.494C305.878 197.024 305.823 196.552 305.679 196.103C305.535 195.655 305.303 195.239 304.998 194.88C304.682 194.531 304.299 194.249 303.872 194.05C303.445 193.851 302.983 193.738 302.512 193.72C302.043 193.68 301.571 193.734 301.123 193.877C300.675 194.02 300.259 194.25 299.9 194.554C299.541 194.858 299.246 195.231 299.031 195.649C298.816 196.068 298.686 196.525 298.648 196.994L298.689 196.942Z" fill="white"/>
<path opacity="0.7" d="M235.327 109.747H235.172C234.637 109.694 234.143 109.436 233.795 109.026C233.447 108.616 233.272 108.087 233.307 107.551C233.333 107.148 233.477 106.761 233.72 106.439C233.963 106.116 234.295 105.872 234.675 105.735C235.055 105.599 235.467 105.577 235.86 105.671C236.252 105.766 236.609 105.973 236.885 106.267C237.162 106.562 237.346 106.93 237.416 107.328C237.485 107.726 237.437 108.135 237.277 108.506C237.117 108.877 236.852 109.193 236.515 109.415C236.178 109.637 235.783 109.756 235.379 109.757L235.327 109.747ZM234.074 107.613C234.054 107.86 234.108 108.107 234.229 108.323C234.35 108.539 234.531 108.714 234.752 108.827C234.972 108.94 235.221 108.985 235.467 108.957C235.713 108.929 235.945 108.828 236.134 108.668C236.323 108.508 236.46 108.296 236.528 108.058C236.597 107.82 236.593 107.567 236.518 107.331C236.443 107.095 236.299 106.887 236.106 106.733C235.912 106.578 235.678 106.484 235.431 106.463C235.266 106.447 235.099 106.465 234.941 106.515C234.783 106.564 234.637 106.645 234.51 106.752C234.384 106.859 234.28 106.991 234.205 107.138C234.13 107.286 234.085 107.448 234.074 107.613Z" fill="white"/>
<path opacity="0.7" d="M281.14 163.398H280.705C280.023 163.345 279.358 163.157 278.749 162.845C278.14 162.533 277.599 162.104 277.157 161.582C276.715 161.06 276.38 160.455 276.173 159.803C275.966 159.151 275.89 158.465 275.949 157.783C276.038 156.783 276.415 155.83 277.035 155.04C277.655 154.251 278.492 153.658 279.443 153.335C280.393 153.012 281.418 152.972 282.391 153.221C283.364 153.469 284.244 153.995 284.923 154.734C285.603 155.473 286.053 156.394 286.218 157.385C286.384 158.375 286.258 159.392 285.856 160.313C285.454 161.233 284.793 162.016 283.954 162.568C283.115 163.119 282.134 163.415 281.129 163.419L281.14 163.398ZM281.14 153.764C280.097 153.759 279.087 154.127 278.291 154.8C277.396 155.557 276.837 156.637 276.737 157.804C276.678 158.528 276.799 159.256 277.089 159.922C277.378 160.589 277.828 161.174 278.397 161.625C278.966 162.077 279.638 162.381 280.353 162.512C281.068 162.642 281.804 162.594 282.496 162.372C283.188 162.15 283.815 161.762 284.321 161.24C284.827 160.718 285.197 160.08 285.398 159.382C285.598 158.684 285.624 157.947 285.472 157.236C285.321 156.525 284.996 155.863 284.527 155.308C284.153 154.863 283.693 154.498 283.175 154.233C282.658 153.968 282.092 153.808 281.513 153.764H281.14Z" fill="white"/>
<path opacity="0.3" d="M323.636 208.689L330.329 127.337C330.371 126.818 330.311 126.294 330.151 125.798C329.991 125.302 329.735 124.842 329.397 124.444C329.06 124.047 328.647 123.72 328.183 123.482C327.719 123.245 327.212 123.101 326.692 123.059C326.173 123.015 325.65 123.074 325.154 123.232C324.657 123.391 324.197 123.646 323.8 123.983C323.402 124.32 323.075 124.732 322.837 125.196C322.599 125.659 322.455 126.165 322.414 126.685L315.721 208.037C315.503 210.741 314.618 213.349 313.144 215.627C311.671 217.905 309.655 219.782 307.278 221.089L303.206 223.358L306.863 226.248C308.995 227.928 310.677 230.108 311.762 232.595C312.847 235.082 313.299 237.799 313.079 240.503L304.139 349.276C303.6 355.803 299.497 358.983 293.727 361.521C293.361 361.685 293.059 361.966 292.87 362.319C292.681 362.673 292.614 363.079 292.68 363.475C292.747 363.871 292.942 364.233 293.237 364.506C293.531 364.778 293.907 364.945 294.307 364.981C298.656 365.336 302.968 363.95 306.296 361.128C309.624 358.305 311.695 354.277 312.054 349.929L320.994 241.156C321.216 238.451 320.764 235.734 319.68 233.246C318.595 230.759 316.911 228.579 314.778 226.901L311.121 224L315.193 221.742C317.568 220.432 319.583 218.555 321.056 216.277C322.529 214 323.416 211.393 323.636 208.689Z" fill="white"/>
<path opacity="0.3" d="M431.173 335.115C430.054 330.039 416.089 333.043 413.198 333.509C407.582 334.528 402.084 336.114 396.788 338.243C390.956 340.533 384.18 343.9 378.14 340.419C374.649 338.409 386.77 334.442 387.868 334.038C393.02 332.228 397.993 329.946 402.724 327.221C404.641 326.082 408.35 323.357 406.754 320.591C405.428 318.302 400.673 318.519 397.783 318.871C389.024 319.944 380.432 322.098 372.204 325.284C364.201 328.463 356.365 332.049 348.728 336.026C345.769 337.696 342.551 338.855 339.207 339.455C335.561 339.973 331.095 339.196 329.655 337.176C328.215 335.156 330.07 332.794 330.495 330.764C331.095 328.336 330.843 325.776 329.78 323.512C329.075 321.995 327.892 320.751 326.413 319.969C322.466 317.898 316.498 318.664 312.53 320.301C309.959 321.39 307.61 322.942 305.599 324.88C301.55 328.649 298.709 333.534 297.436 338.917C297.115 340.603 296.465 342.209 295.523 343.644C294.581 345.078 293.365 346.313 291.945 347.277C286.392 351.017 276.218 350.799 268.438 348.924C254.856 345.702 244.496 338.171 241.999 329.666C240.787 325.615 240.197 321.378 234.747 319.793C231.225 318.757 223.849 319.483 225.423 323.937C225.995 325.158 226.742 326.289 227.64 327.294C229.08 329.189 230.614 332.763 226.335 333.913C224.95 334.207 223.526 334.277 222.119 334.12C208.36 333.198 195.701 328.609 187.495 322.145C184.82 320.043 182.552 317.47 180.803 314.552C179.829 312.946 179.477 311.216 178.41 309.631C177.39 308.105 175.951 306.907 174.266 306.181C168.982 303.912 156.571 305.093 155.701 310.066C155.234 312.759 156.913 315.681 157.773 318.239C157.927 318.562 157.964 318.929 157.876 319.275C157.628 319.928 156.643 320.115 155.804 320.166C144.709 320.902 133.945 316.592 124.631 312.096C114.768 307.331 103.911 301.126 90.2047 301.053C87.3705 300.924 84.534 301.249 81.8027 302.017C81.1112 302.201 80.4679 302.533 79.9172 302.991C79.5823 303.339 79.3598 303.78 79.2785 304.257C79.1972 304.733 79.2609 305.223 79.4613 305.663C79.9062 306.576 80.5678 307.365 81.3883 307.963C85.5323 311.34 91.3339 312.708 96.6278 314.448C112.335 319.539 127.522 326.112 141.984 334.079C143.445 334.897 146.035 336.793 143.983 338.223C141.932 339.652 137.767 338.73 135.312 338.326C130.857 337.601 126.579 336.441 122.238 335.353C116.498 333.903 109.806 332.587 103.59 333.789C100.306 334.421 97.3738 335.768 95.8301 337.591C95.2982 338.124 94.9478 338.812 94.8288 339.555C94.7097 340.299 94.8281 341.062 95.1671 341.735C97.3013 345.536 107.029 347.173 112.344 348.986C119.149 351.308 125.802 354.052 132.266 357.201C137.788 359.936 142.916 362.93 148.511 365.613C168.495 375.195 196.405 376.428 221.362 377.36C248.454 378.396 275.669 377.516 302.688 376.014C322.372 374.916 341.694 372.75 360.984 370.202C366.527 369.477 372.038 368.586 377.56 367.83C383.165 367.187 388.709 366.089 394.136 364.546C396.086 364.048 397.906 363.137 399.471 361.873C400.953 360.495 401.419 358.693 398.767 358.175C393.214 357.066 387.495 358.33 382.067 359.314C375.975 360.433 369.939 361.721 363.957 363.178C361.231 363.906 358.463 364.469 355.669 364.867C352.861 365.261 350.002 365.078 347.267 364.328C346.376 364.049 345.403 363.551 345.351 362.764C345.299 361.977 346.045 361.479 346.812 361.179C357.99 356.745 369.863 353.927 381.818 351.338C389.93 349.577 398.187 348.499 406.361 347.121C413.81 345.868 421.663 345.578 428.117 340.854C429.401 340.025 430.4 338.82 430.976 337.404C431.256 336.675 431.325 335.881 431.173 335.115Z" fill="#407BFF"/>
<path opacity="0.3" d="M110.594 293.17C107.558 284.541 96.7423 269.26 94.4631 278.283C93.2406 283.349 110.594 293.17 110.594 293.17Z" fill="#407BFF"/>
<path opacity="0.3" d="M382.211 310.159C387.992 304.886 395.203 301.748 396.135 306.388C397.006 310.78 382.211 310.159 382.211 310.159Z" fill="#407BFF"/>
<path opacity="0.3" d="M145.04 268.224C141.082 266.152 137.995 262.827 140.316 261.439C142.636 260.051 145.04 268.224 145.04 268.224Z" fill="#407BFF"/>
</g>
<defs>
<clipPath id="clip0_149_581">
<rect width="518" height="386" fill="white"/>
</clipPath>
</defs>
</svg>
