<svg width="38" height="38" viewBox="0 0 38 38" fill="none" xmlns="http://www.w3.org/2000/svg">
<path opacity="0.7" d="M19.1992 37.8359H17.6243C15.1117 37.6632 12.6582 36.9944 10.4055 35.8679C8.15284 34.7414 6.14568 33.1796 4.50002 31.2728C2.88114 29.3732 1.65594 27.1708 0.895529 24.7935C0.135122 22.4162 -0.145291 19.9114 0.0706056 17.4248C0.37642 13.7482 1.74586 10.2401 4.01178 7.32887C6.27771 4.41762 9.34208 2.22917 12.8308 1.0306C16.3195 -0.167967 20.0817 -0.324749 23.658 0.579354C27.2344 1.48346 30.4702 3.40934 32.9705 6.12193C35.4707 8.83452 37.1273 12.2164 37.7379 15.8548C38.3485 19.4933 37.8868 23.2308 36.4091 26.6112C34.9314 29.9916 32.5016 32.8685 29.4164 34.8909C26.3312 36.9133 22.724 37.9937 19.0352 38L19.1992 37.8359ZM19.1992 2.26418C15.4676 2.28271 11.8538 3.5731 8.95421 5.92234C6.05459 8.27158 4.04242 11.5393 3.24974 15.1863C2.45706 18.8333 2.93123 22.6415 4.59404 25.9827C6.25685 29.3239 9.00888 31.9983 12.396 33.5645C15.7832 35.1307 19.6031 35.4952 23.2252 34.5978C26.8474 33.7004 30.0555 31.5948 32.32 28.6284C34.5845 25.662 35.7702 22.0121 35.6814 18.281C35.5925 14.5499 34.2345 10.9605 31.8313 8.10528C30.431 6.44563 28.7151 5.08052 26.7833 4.0891C24.8514 3.09769 22.742 2.49968 20.5773 2.32977L19.1992 2.26418Z" fill="#C6D7FF"/>
</svg>
