<svg width="28" height="28" viewBox="0 0 28 28" fill="none" xmlns="http://www.w3.org/2000/svg">
<path d="M27.9539 15.1488C27.7267 17.9081 26.6864 20.5381 24.9646 22.7062C23.2429 24.8743 20.9169 26.4833 18.2807 27.3297C15.6446 28.1761 12.8166 28.2219 10.1545 27.4614C7.49227 26.7008 5.11536 25.1681 3.32424 23.0568C1.53313 20.9456 0.408238 18.3507 0.0917692 15.6002C-0.2247 12.8498 0.281475 10.0673 1.5463 7.60446C2.81112 5.14163 4.7778 3.10908 7.19769 1.76381C9.61758 0.418552 12.382 -0.179051 15.1415 0.046575C18.8422 0.352964 22.2701 2.11548 24.6723 4.94706C27.0746 7.77864 28.2548 11.4478 27.9539 15.1488Z" fill="#ECF2FF"/>
</svg>
